<?xml version="1.0" standalone="no"?>
<!DOCTYPE svg PUBLIC "-//W3C//DTD SVG 20010904//EN"
 "http://www.w3.org/TR/2001/REC-SVG-20010904/DTD/svg10.dtd">
<svg version="1.0" xmlns="http://www.w3.org/2000/svg"
 width="738.000000pt" height="1280.000000pt" viewBox="0 0 738.000000 1280.000000"
 preserveAspectRatio="xMidYMid meet">
<metadata>
Created by potrace 1.15, written by Peter Selinger 2001-2017
</metadata>
<g transform="translate(0.000000,1280.000000) scale(0.100000,-0.100000)"
fill="#FFF" stroke="none">
<path d="M3420 12794 c-487 -46 -722 -88 -955 -172 -275 -100 -425 -182 -425
-232 0 -13 -5 -17 -14 -14 -37 14 -152 -74 -322 -248 -142 -144 -269 -290
-291 -333 -22 -42 -61 -91 -178 -225 -305 -347 -419 -537 -500 -832 l-16 -58
-63 0 c-60 0 -67 -2 -132 -50 -38 -27 -74 -50 -81 -50 -31 0 -74 -133 -75
-229 0 -72 -6 -89 -51 -141 -94 -108 -137 -330 -84 -431 32 -59 34 -69 51
-255 14 -146 25 -200 82 -409 8 -27 14 -62 14 -77 0 -73 67 -199 197 -369 60
-79 85 -122 98 -165 22 -80 84 -155 166 -206 38 -23 55 -59 78 -167 11 -51 37
-133 57 -183 55 -138 81 -219 99 -310 47 -237 126 -383 233 -430 35 -16 55
-18 111 -12 l68 6 7 -53 c16 -122 123 -538 167 -651 25 -63 36 -137 53 -358
52 -649 45 -1364 -15 -1575 -19 -68 -57 -132 -97 -165 -42 -36 -88 -54 -547
-209 -500 -170 -551 -188 -700 -248 -77 -30 -174 -73 -215 -93 -119 -60 -166
-116 -126 -149 12 -10 22 -6 53 22 53 48 192 125 363 201 158 70 186 80 620
220 311 101 364 115 418 116 51 0 94 25 160 91 53 54 91 111 106 162 3 9 10
17 16 17 19 0 31 -53 41 -189 21 -301 144 -750 233 -856 17 -20 17 -20 13 5
-3 14 -30 93 -60 175 -126 341 -149 542 -168 1445 -6 289 -16 645 -22 793 -7
147 -10 267 -7 267 3 0 32 -43 64 -96 268 -436 586 -746 938 -914 129 -62 345
-134 463 -155 50 -9 162 -19 250 -22 474 -17 980 116 1288 340 244 177 494
442 629 670 22 37 44 70 49 73 12 7 11 -53 -1 -251 -5 -88 -19 -407 -29 -710
-11 -302 -23 -599 -25 -660 -5 -94 -4 -105 7 -78 20 53 32 58 54 26 11 -15 63
-113 116 -218 110 -217 200 -368 205 -343 2 9 -4 33 -12 53 -30 70 -15 85 35
35 38 -38 205 -118 554 -268 422 -181 704 -320 797 -394 52 -41 114 -138 138
-216 48 -155 48 -633 0 -876 -102 -518 -460 -975 -1085 -1385 -159 -104 -239
-140 -419 -187 -596 -154 -1002 -201 -1646 -191 -445 7 -888 38 -1322 92 -576
73 -1046 208 -1648 475 -266 118 -364 183 -546 365 -225 225 -415 485 -562
770 l-67 130 -3 -80 c-5 -125 45 -321 95 -377 34 -37 45 -7 18 46 -27 51 -8
40 39 -24 51 -69 56 -87 25 -92 -20 -3 -20 -5 11 -63 30 -58 79 -119 88 -110
2 2 -12 34 -33 70 -20 37 -34 69 -31 72 9 9 41 -23 131 -132 101 -123 252
-269 367 -355 89 -67 301 -201 376 -239 26 -13 42 -28 42 -40 0 -44 112 -99
224 -111 89 -9 264 -64 360 -112 73 -37 85 -41 252 -78 157 -34 213 -55 196
-72 -9 -9 -39 -8 -130 5 -64 9 -138 17 -164 17 -63 0 -98 14 -92 37 4 15 -24
28 -196 86 -110 38 -205 67 -210 65 -6 -2 23 -23 65 -48 78 -46 94 -65 48 -54
-87 19 -193 66 -193 85 0 8 -14 10 -40 6 -39 -5 -40 -4 -40 24 0 22 -6 30 -25
35 -15 4 -32 1 -40 -6 -16 -14 -21 -55 -5 -45 5 3 28 -8 51 -24 22 -17 100
-53 172 -82 132 -51 181 -77 122 -64 -130 29 -244 66 -344 112 -133 60 -147
37 -20 -32 39 -22 83 -51 97 -64 18 -16 36 -24 54 -22 31 3 75 -18 102 -48 19
-21 19 -21 -9 -21 -15 0 -66 17 -114 38 -48 22 -103 42 -123 46 -86 16 -400
260 -643 501 -261 258 -435 498 -435 600 0 30 -25 34 -40 6 -16 -31 -12 -62
19 -126 80 -168 430 -563 666 -754 371 -299 907 -519 1505 -620 202 -34 390
-52 825 -81 417 -27 545 -45 545 -79 0 -15 59 -31 109 -30 l46 1 -34 14 c-18
8 -31 18 -27 21 3 3 151 0 328 -7 761 -31 1486 27 1843 146 247 82 747 413
978 647 170 173 286 379 396 707 140 415 179 684 168 1155 -11 418 -57 539
-257 670 -78 51 -362 183 -745 347 -300 128 -454 204 -551 274 -153 108 -275
295 -329 500 -34 130 -39 225 -26 513 6 152 16 427 21 611 17 551 27 630 105
860 64 188 135 458 135 514 0 15 -4 26 -9 26 -12 0 -27 -47 -95 -295 -141
-509 -253 -744 -473 -986 -186 -204 -329 -320 -541 -437 -285 -157 -549 -225
-932 -239 -202 -7 -361 6 -511 43 -625 151 -1189 681 -1414 1326 -48 137 -139
450 -164 563 -26 117 -76 417 -96 570 -47 377 -47 1128 1 1483 26 192 102 411
248 718 163 339 262 468 427 558 86 46 118 71 106 83 -4 3 -31 -5 -62 -17 -31
-12 -58 -20 -61 -17 -10 9 83 58 123 64 29 4 51 19 94 62 86 88 163 120 402
171 263 56 460 138 590 245 84 70 136 138 188 251 39 84 42 87 50 61 19 -71
92 -183 182 -283 98 -109 279 -171 552 -189 50 -3 138 -10 196 -16 105 -11
107 -12 172 -60 36 -27 170 -151 296 -274 146 -142 241 -227 259 -231 15 -4
40 -18 55 -33 71 -66 194 -296 327 -611 45 -107 104 -245 131 -306 27 -61 55
-142 63 -180 27 -131 40 -328 39 -609 -1 -319 -16 -498 -68 -830 -53 -335 -75
-493 -74 -528 1 -30 2 -29 27 25 28 58 58 98 75 98 5 0 25 -14 44 -31 43 -37
64 -34 141 18 112 76 161 173 308 608 96 282 125 339 227 454 145 164 178 205
208 263 16 32 49 80 74 108 52 58 69 108 85 255 15 128 36 203 65 235 34 38
38 76 25 263 -12 170 -12 173 14 284 47 204 32 302 -66 409 -65 72 -66 74 -71
199 -2 62 -9 101 -22 125 -10 19 -70 89 -134 156 -131 137 -175 203 -200 301
-10 44 -39 107 -78 173 -33 58 -64 116 -68 130 -16 55 -204 341 -341 520 -131
171 -454 482 -577 556 -34 21 -117 73 -184 116 -171 108 -272 161 -388 201
-55 19 -127 49 -160 66 -33 17 -100 42 -150 55 -119 33 -522 122 -610 136 -72
11 -475 21 -555 14z m185 -61 c26 -25 15 -113 -23 -200 -38 -86 -40 -106 -10
-101 14 2 24 13 29 31 4 15 19 40 32 57 27 32 32 50 42 147 4 34 13 67 21 74
20 16 41 -38 70 -184 13 -64 29 -127 36 -140 34 -59 15 169 -23 267 -10 27
-16 53 -13 58 9 14 45 9 80 -13 42 -25 70 -71 79 -129 6 -33 17 -53 45 -80 21
-19 49 -53 63 -75 35 -57 51 -69 67 -50 18 21 27 19 42 -12 7 -14 19 -28 26
-31 20 -6 14 27 -13 66 -14 20 -25 40 -25 44 0 17 54 6 98 -19 26 -15 67 -30
92 -33 41 -5 48 -10 80 -57 38 -56 50 -64 50 -34 0 47 -115 157 -153 147 -12
-3 -17 0 -14 8 7 18 -25 85 -61 126 l-31 35 6 -57 c5 -49 3 -58 -10 -58 -10 0
-19 11 -22 28 -12 57 -21 77 -35 77 -12 0 -14 -13 -11 -69 5 -105 -36 -112
-85 -13 -14 29 -34 61 -44 72 -21 23 -35 103 -22 123 8 11 17 10 52 -8 24 -12
86 -33 139 -46 52 -13 105 -31 117 -39 13 -8 54 -52 92 -97 107 -127 160 -168
221 -168 52 0 119 -37 184 -101 40 -40 57 -65 57 -83 0 -17 -6 -26 -15 -26 -8
0 -115 25 -238 55 -316 77 -475 96 -917 110 -102 3 -213 8 -248 11 l-63 6 6
31 c13 66 27 88 72 109 44 21 113 91 113 115 0 24 -15 13 -60 -43 l-45 -57 -3
42 c-4 55 28 121 81 166 45 39 67 43 92 18z m-155 -9 c0 -23 -111 -248 -159
-321 -38 -59 -91 -101 -111 -88 -15 9 -12 27 11 80 l21 48 -22 17 -23 18 22
12 c14 7 37 9 57 5 28 -5 38 -1 59 19 14 14 25 32 25 41 0 13 -6 12 -31 -9
-17 -14 -39 -26 -50 -26 -21 0 -20 4 13 53 29 40 5 34 -71 -20 -69 -50 -231
-200 -231 -214 0 -19 21 -6 84 51 76 68 106 77 106 30 0 -35 -22 -94 -39 -105
-13 -8 -294 -44 -300 -39 -3 2 1 27 7 55 7 28 12 60 12 72 0 19 -2 20 -15 6
-8 -8 -24 -39 -35 -69 l-19 -55 -1 49 c0 42 4 52 35 83 30 30 40 34 66 29 26
-5 38 1 77 33 46 38 286 201 297 201 3 0 2 -12 -1 -26 l-7 -26 32 16 c17 9 59
34 94 56 66 42 97 50 97 24z m-260 -8 c0 -6 -96 -76 -104 -76 -10 0 6 34 27
58 17 18 77 33 77 18z m-355 -68 c12 -27 55 -38 55 -13 0 20 40 35 96 35 31 0
44 -4 44 -14 0 -21 -94 -102 -148 -126 -84 -38 -96 -48 -135 -102 -26 -36 -40
-70 -45 -103 -6 -41 -12 -52 -34 -63 -24 -11 -341 -82 -368 -82 -5 0 4 25 20
56 33 61 56 131 47 140 -11 12 -47 -18 -71 -59 -14 -23 -30 -67 -37 -97 -13
-64 -30 -86 -71 -95 -63 -14 -60 22 12 130 47 70 50 84 14 56 -32 -25 -44 -26
-44 -6 0 27 -19 16 -80 -46 -63 -64 -104 -125 -130 -193 -25 -66 -110 -99
-110 -42 0 11 11 41 25 65 34 58 33 77 -1 55 -32 -21 -50 -56 -58 -116 -5 -34
-14 -53 -33 -68 -36 -28 -48 -13 -45 56 3 70 15 94 48 94 17 0 27 8 35 26 22
60 115 143 184 164 22 7 59 23 82 36 23 13 57 24 76 24 19 0 69 11 110 25 44
14 98 24 125 24 67 -2 142 41 142 82 0 20 17 35 45 41 16 2 21 13 25 48 l5 45
38 -3 c25 -3 45 2 55 12 45 40 112 47 127 14z m1656 -56 c36 3 39 1 39 -21 0
-31 83 -116 105 -107 33 12 139 -63 296 -212 94 -89 141 -158 115 -168 -9 -3
-46 9 -83 28 -60 29 -71 39 -100 93 -56 101 -206 222 -259 209 -18 -5 -23 -1
-26 18 -2 15 -15 29 -40 40 -38 18 -168 133 -168 149 0 5 19 0 41 -12 28 -14
55 -20 80 -17z m-1967 -13 c-42 -45 -143 -119 -162 -119 -24 0 31 53 108 105
77 52 95 57 54 14z m2255 -71 c51 -35 100 -61 123 -64 32 -6 38 -10 38 -31 0
-13 7 -38 16 -54 8 -17 14 -35 12 -40 -5 -14 -118 45 -176 93 -48 39 -142 152
-142 171 0 11 33 -8 129 -75z m-149 17 c19 -19 29 -35 24 -35 -12 0 -33 17
-58 48 -30 35 -3 26 34 -13z m430 -122 c14 -9 61 -49 105 -88 101 -91 123
-105 157 -105 33 0 105 -60 94 -78 -4 -7 -21 -12 -38 -12 -29 0 -30 1 -24 35
7 34 6 34 -28 33 -41 -1 -96 30 -198 110 -64 51 -108 99 -108 117 0 10 15 5
40 -12z m12 -90 c10 -9 18 -24 18 -35 0 -15 -5 -17 -25 -12 -15 4 -25 2 -25
-5 0 -30 133 -113 206 -129 l39 -8 -3 -62 c-1 -34 1 -62 6 -62 18 0 34 29 27
52 -6 22 -5 21 19 -5 22 -24 53 -104 44 -112 -2 -1 -45 16 -96 38 -147 63
-224 148 -251 274 -16 77 0 103 41 66z m-2946 -111 c-42 -83 -90 -142 -117
-142 -22 0 -23 7 -6 37 16 28 150 183 155 179 2 -2 -13 -36 -32 -74z m1909 58
c258 -10 288 -14 495 -65 595 -147 1176 -461 1564 -843 138 -136 326 -364 326
-396 0 -5 -7 -3 -15 4 -27 23 -102 7 -140 -30 -46 -45 -61 -82 -48 -125 8 -26
8 -38 -4 -54 -15 -22 -40 -30 -27 -10 17 28 -372 371 -563 496 -367 242 -942
429 -1648 537 -314 49 -546 61 -850 46 -469 -23 -765 -75 -1150 -205 -150 -51
-207 -66 -270 -70 -124 -8 -184 -42 -320 -180 -117 -120 -142 -139 -191 -148
-30 -6 -32 -4 -38 27 -8 41 -31 64 -40 40 -3 -8 -6 -29 -6 -45 0 -41 -15 -66
-45 -73 -28 -7 -30 -15 -45 -135 -8 -71 -14 -90 -37 -114 -34 -35 -121 -87
-147 -87 -16 0 -18 5 -12 33 19 97 204 400 345 564 66 77 267 266 320 301 22
15 24 14 37 -3 20 -26 17 -45 -5 -45 -24 0 -34 -25 -21 -50 8 -15 17 -18 40
-14 20 5 40 0 64 -15 l35 -22 -6 37 c-5 28 -2 40 11 50 16 11 15 15 -13 40
-17 15 -31 33 -31 41 0 15 62 43 95 43 26 0 44 -38 69 -145 l14 -60 0 75 c0
124 -9 173 -37 186 -23 12 -23 12 21 38 25 14 52 26 60 26 8 0 45 -31 82 -70
36 -38 71 -70 76 -70 6 0 10 11 10 24 0 34 15 40 45 20 25 -16 25 -16 25 15 0
36 -24 101 -38 101 -5 0 -26 -14 -47 -30 -36 -29 -39 -29 -57 -14 -10 10 -18
28 -18 40 0 43 154 114 183 85 15 -15 52 -14 66 3 9 10 8 16 -4 26 -8 7 -15
16 -15 20 0 25 142 44 204 27 26 -7 28 -7 16 8 -18 21 -7 29 69 54 203 66 468
101 826 111 416 10 526 10 790 0z m1486 -146 c59 -43 89 -79 89 -107 0 -20 -1
-19 -26 4 -40 37 -127 139 -119 139 4 0 29 -16 56 -36z m-3815 -118 c-4 -32
-16 -65 -27 -78 -19 -23 -19 -23 -34 -4 -18 23 -19 49 -4 79 12 24 61 69 67
62 3 -2 1 -29 -2 -59z m3761 34 c23 -17 76 -75 118 -130 42 -55 80 -100 86
-100 12 0 -10 53 -45 108 -14 23 -26 44 -26 47 0 9 128 -134 172 -192 22 -29
42 -53 45 -53 3 0 2 14 -2 30 -5 23 -3 32 11 37 13 5 29 -6 58 -39 47 -52 122
-179 131 -223 l6 -30 -24 28 c-13 16 -45 67 -71 113 -26 46 -51 84 -56 84 -13
0 -13 -3 6 -50 9 -23 14 -43 12 -46 -3 -2 -27 11 -54 30 -55 39 -215 146 -313
209 -36 23 -73 54 -83 68 -20 27 -37 139 -21 139 5 0 28 -14 50 -30z m-3869
-112 c13 -13 17 -68 4 -68 -4 0 -13 9 -20 20 -18 29 -32 25 -32 -9 0 -31 -22
-57 -40 -46 -20 13 -9 48 26 81 39 38 45 39 62 22z m1603 -148 c12 -7 19 -21
19 -42 0 -29 -1 -30 -18 -15 -10 10 -23 17 -29 17 -21 0 -131 -185 -119 -198
4 -3 20 4 36 16 16 12 32 22 35 22 14 0 -38 -81 -61 -97 -25 -16 -27 -16 -39
0 -7 9 -15 17 -19 17 -3 0 -33 -22 -66 -48 -68 -55 -113 -72 -190 -72 -29 0
-51 -3 -47 -6 3 -3 41 -15 84 -25 l78 -19 -80 6 c-44 3 -142 19 -217 35 -149
32 -263 39 -324 19 -73 -24 -184 -107 -184 -137 0 -25 28 -13 55 23 75 98 278
110 525 32 160 -51 246 -28 386 104 97 92 128 138 126 188 -2 48 22 56 39 13
9 -24 11 -25 25 -11 9 9 25 47 35 84 10 38 26 74 35 81 20 15 107 27 134 18
47 -15 44 -68 -15 -255 -68 -216 -163 -350 -291 -414 -103 -51 -150 -58 -436
-63 -253 -5 -317 -12 -230 -27 62 -10 425 -7 508 5 190 26 287 102 404 314 49
89 85 189 112 310 23 108 38 135 76 135 36 0 52 -17 52 -54 l-1 -31 -24 29
-23 29 -7 -39 c-3 -21 -10 -57 -15 -79 -5 -21 -8 -41 -6 -43 2 -1 17 13 34 33
17 19 34 35 38 35 10 0 -3 -105 -16 -129 -7 -14 -21 -21 -40 -21 -36 0 -63
-32 -86 -103 -56 -173 -171 -316 -305 -380 -131 -62 -185 -71 -449 -72 -215
-2 -240 -3 -290 -23 -75 -30 -144 -76 -263 -180 -173 -151 -187 -156 -302
-127 -79 21 -144 61 -260 162 -92 79 -155 123 -155 106 0 -20 80 -124 145
-189 161 -161 336 -187 501 -73 27 18 91 73 143 121 67 63 118 100 170 126
l75 37 261 0 260 0 70 29 c192 80 357 233 410 379 29 78 51 90 41 21 -8 -64
-84 -217 -135 -276 -50 -56 -123 -111 -192 -144 -87 -42 -160 -54 -344 -54
-186 0 -318 -13 -374 -36 -67 -28 -186 -133 -169 -149 2 -3 43 15 90 40 113
59 168 72 383 89 327 27 440 64 615 205 41 33 77 57 80 54 3 -3 -37 -45 -87
-94 -65 -62 -105 -92 -133 -100 -23 -7 -45 -20 -50 -30 -6 -11 -32 -21 -73
-28 -35 -6 -91 -20 -123 -32 -44 -15 -102 -23 -224 -30 -246 -14 -330 -35
-330 -84 0 -33 -46 -83 -142 -156 -99 -74 -165 -108 -243 -125 -58 -13 -244
-20 -233 -9 3 3 57 14 120 25 131 22 199 45 284 96 55 33 174 139 174 156 0 3
-30 -11 -67 -32 -36 -22 -70 -37 -75 -34 -5 3 -42 -15 -82 -40 -100 -62 -138
-77 -226 -87 -98 -12 -205 3 -273 37 -56 28 -160 109 -217 169 -45 47 -99 75
-147 75 -32 0 -44 -7 -90 -57 -54 -58 -70 -63 -59 -18 10 41 74 103 118 117
34 10 48 9 90 -6 58 -20 78 -11 51 23 -25 31 -86 37 -156 17 -68 -20 -77 -20
-77 -1 0 21 46 41 112 49 65 8 91 28 59 45 -28 15 -105 14 -146 -3 -42 -18
-59 -45 -80 -126 -26 -102 -48 -110 -47 -16 0 61 19 103 68 159 19 20 34 44
34 52 0 12 13 15 58 15 l57 1 -35 19 -35 18 30 12 c45 18 135 24 179 11 22 -6
42 -9 44 -6 2 2 -5 16 -17 31 -21 27 -28 54 -13 54 29 0 154 -113 199 -182 27
-39 32 -41 168 -54 112 -11 121 -23 17 -23 -89 -1 -92 -2 -82 -21 18 -33 48
-44 89 -31 20 5 147 73 282 149 l247 138 178 -13 c273 -21 373 -9 474 60 64
43 274 258 307 315 24 41 28 59 31 152 2 58 2 103 -1 100 -9 -10 -107 -193
-107 -200 0 -5 18 -6 40 -3 49 7 51 -4 9 -52 -36 -40 -63 -44 -88 -13 -19 22
-41 18 -41 -8 0 -9 10 -24 22 -33 l22 -18 -43 -44 -42 -44 6 33 c4 17 3 32 -1
32 -3 0 -43 -30 -87 -66 -174 -142 -266 -157 -502 -84 -55 18 -127 34 -160 37
-77 7 -138 -17 -288 -111 -175 -110 -241 -124 -350 -76 -41 18 -52 20 -81 9
-29 -11 -38 -10 -60 4 -39 26 -96 78 -96 88 0 19 24 7 66 -31 37 -34 74 -52
74 -36 0 33 -88 101 -156 122 -55 16 -88 6 -126 -39 l-27 -32 -1 36 c0 42 36
97 101 152 69 60 90 59 173 -7 39 -32 146 -154 146 -168 0 -14 -21 -9 -52 13
-42 31 -46 16 -4 -16 48 -37 100 -54 164 -55 69 0 111 21 112 58 0 8 -16 12
-47 12 -88 0 -117 15 -223 115 -55 51 -123 105 -150 118 l-50 25 48 6 c26 4
68 14 93 23 53 18 57 17 164 -66 49 -38 59 -43 76 -33 10 7 35 12 54 12 43 0
76 16 159 77 104 77 125 84 268 93 70 5 133 12 138 15 20 12 -1 23 -57 29 -74
9 -204 -14 -279 -48 -97 -45 -97 -23 0 28 107 55 181 56 531 6 135 -19 185
-33 185 -49 0 -29 -161 -23 -256 9 -61 21 -67 16 -26 -22 37 -37 73 -48 145
-48 85 0 146 31 223 111 51 54 104 132 104 154 0 12 -26 3 -49 -17 l-25 -23
16 25 c24 39 125 63 169 40z m469 -71 c0 -21 -5 -50 -11 -66 -10 -26 -12 -27
-19 -8 -10 24 -12 91 -3 124 6 23 7 23 20 6 7 -11 13 -36 13 -56z m-810 42 c0
-5 -18 -16 -40 -25 -48 -19 -181 -23 -163 -5 26 26 203 52 203 30z m113 3 c11
-11 -22 -62 -55 -87 -42 -31 -90 -47 -143 -47 -47 0 -145 26 -145 39 0 4 40
11 89 15 105 8 142 19 195 57 42 30 49 33 59 23z m789 -44 c-2 -25 4 -67 12
-95 20 -64 20 -77 -1 -73 -24 4 -29 -30 -6 -38 60 -19 123 -84 123 -126 0 -20
-7 -18 -59 20 l-25 17 29 -52 c29 -55 44 -63 65 -38 19 22 31 19 83 -24 70
-59 106 -79 172 -96 73 -19 169 -19 300 -1 246 35 341 29 452 -25 51 -24 84
-53 180 -157 161 -174 238 -247 277 -266 43 -20 106 -20 153 -1 33 14 109 83
100 91 -2 2 -23 -6 -47 -18 -59 -29 -144 -34 -193 -11 -21 10 -115 95 -215
194 -186 186 -229 216 -330 238 -69 14 -263 14 -479 -1 -155 -10 -176 -10
-216 6 -24 9 -54 28 -67 41 -23 24 -23 25 -3 25 11 0 58 -11 104 -24 75 -22
86 -23 99 -10 13 14 11 19 -22 48 -50 43 -163 98 -216 104 -36 4 -42 7 -36 24
12 39 -39 86 -105 97 -47 8 -71 45 -78 119 -3 34 -2 62 3 62 5 0 26 -34 47
-75 22 -41 44 -75 49 -75 10 0 7 59 -8 141 -5 26 2 18 30 -38 51 -99 134 -183
226 -227 81 -39 169 -61 206 -52 39 10 20 23 -42 29 -33 3 -83 19 -120 37 -99
48 -246 203 -231 243 2 7 49 -34 104 -90 91 -93 123 -118 123 -95 0 13 -32 56
-79 105 -57 59 -47 60 24 2 96 -78 147 -94 373 -120 176 -20 222 -33 272 -79
26 -23 50 -36 68 -36 33 0 151 -55 230 -107 31 -21 103 -77 159 -124 116 -97
171 -127 240 -135 40 -5 57 -1 103 23 85 45 85 45 131 8 29 -23 47 -31 55 -25
28 24 177 -112 235 -216 31 -54 34 -57 37 -31 2 15 6 27 10 27 4 0 27 -25 52
-54 25 -30 57 -61 71 -70 24 -14 27 -14 41 2 25 28 35 54 48 120 13 65 33 100
60 103 41 4 63 -4 98 -36 l37 -34 -35 -1 c-49 0 -77 -23 -104 -83 -13 -29 -34
-63 -46 -76 -50 -51 -163 -79 -190 -46 -7 9 -9 26 -5 46 6 27 5 31 -9 26 -29
-11 -46 4 -87 84 -65 124 -162 199 -218 169 -40 -21 -28 -33 42 -45 43 -7 119
-74 129 -113 9 -34 -15 -27 -67 18 -77 66 -134 87 -163 58 -23 -23 -12 -36 36
-43 100 -14 122 -63 45 -100 -23 -11 -42 -23 -43 -26 0 -6 52 -23 107 -34 26
-5 36 -1 58 22 l26 28 22 -26 c12 -15 29 -40 39 -57 9 -17 34 -42 56 -57 84
-55 179 -42 240 34 80 99 107 121 148 121 41 -1 56 -9 89 -50 l20 -24 -27 17
c-60 38 -111 11 -194 -105 -86 -119 -112 -146 -168 -179 -56 -32 -73 -35 -110
-18 -29 13 -43 44 -51 114 -10 74 -23 109 -50 135 -24 23 -26 23 -39 5 -9 -13
-20 -16 -37 -11 -121 34 -134 36 -169 25 -68 -23 -155 -97 -136 -116 3 -3 41
18 85 46 70 46 84 52 113 46 65 -14 188 -90 188 -116 0 -14 -43 -10 -64 6 -11
8 -23 15 -28 15 -15 0 -8 -31 12 -60 28 -40 50 -105 50 -151 0 -54 -22 -51
-65 10 -20 27 -42 52 -51 55 -44 17 -98 -2 -204 -74 -30 -20 -66 -43 -80 -50
l-25 -13 18 24 c26 36 31 49 20 60 -5 5 -22 0 -42 -16 -41 -29 -130 -49 -184
-41 -99 16 -232 116 -335 250 -115 152 -205 224 -262 211 -19 -4 -37 -1 -55
11 -20 13 -64 18 -198 25 -335 17 -404 31 -516 105 -90 59 -211 188 -255 272
-21 41 -36 76 -33 79 3 2 43 -46 89 -109 110 -148 193 -218 257 -218 33 0 25
17 -11 24 -91 18 -304 331 -334 491 -6 36 -5 39 8 27 9 -7 31 -49 48 -93 75
-185 171 -282 335 -342 101 -36 183 -47 435 -57 330 -13 361 -26 525 -229 140
-175 274 -271 376 -271 37 0 69 16 69 34 0 18 -22 26 -68 26 -112 1 -183 43
-279 168 -154 200 -203 246 -301 283 -48 18 -91 22 -282 29 -256 10 -431 36
-514 75 -68 32 -169 137 -214 223 -79 148 -116 462 -54 450 13 -2 16 -13 14
-48z m518 -45 c64 -9 112 -25 133 -43 11 -10 34 -15 66 -13 53 1 70 -11 51
-34 -43 -52 -360 47 -360 111 0 11 6 10 33 0 17 -8 52 -17 77 -21z m-1270 6
c0 -22 -63 -81 -86 -81 -15 0 -14 3 1 28 18 28 65 72 78 72 4 0 7 -9 7 -19z
m-855 -40 c-9 -15 -91 -43 -111 -39 -14 4 -8 10 26 26 47 21 95 29 85 13z
m2552 -48 l38 -17 -43 -4 c-44 -3 -92 17 -92 39 0 14 46 6 97 -18z m1382 -52
c46 -66 80 -136 81 -165 0 -16 -2 -17 -17 -5 -29 25 -81 114 -97 169 -24 79
-23 79 33 1z m-4124 19 c-19 -21 -55 -27 -55 -10 0 12 31 29 54 30 18 0 18 -1
1 -20z m85 -20 c0 -20 -52 -60 -88 -66 -51 -10 -107 6 -107 31 0 17 6 19 45
17 25 -2 61 4 80 12 41 18 70 20 70 6z m1884 -59 c32 -29 72 -54 94 -61 22 -5
46 -18 53 -27 13 -15 11 -15 -23 -9 -39 7 -45 2 -29 -24 15 -23 2 -31 -27 -16
-47 25 -115 110 -127 159 -4 15 -4 27 -1 27 3 0 30 -22 60 -49z m1185 -7 c80
-36 169 -92 232 -146 61 -53 95 -63 83 -26 -5 18 3 14 41 -20 26 -22 78 -54
116 -69 38 -15 69 -30 69 -33 0 -9 -94 -79 -131 -97 -32 -16 -34 -15 -83 10
-63 34 -225 154 -286 213 -29 28 -97 71 -180 114 -133 68 -147 89 -37 51 89
-31 215 -100 292 -161 153 -121 226 -160 305 -160 54 0 87 23 48 34 -13 3 -39
6 -58 6 -48 0 -120 36 -215 107 -44 32 -128 92 -187 131 -60 40 -108 75 -108
78 0 8 36 -4 99 -32z m-1535 20 c9 -3 16 -12 16 -19 0 -27 -67 -35 -77 -9 -10
25 26 42 61 28z m-602 -62 c-39 -48 -61 -67 -69 -58 -4 3 15 29 42 56 57 57
71 59 27 2z m596 -24 c17 -17 15 -48 -4 -55 -20 -8 -32 11 -26 43 5 27 12 30
30 12z m2668 -95 c19 -26 17 -35 -8 -31 -15 2 -24 11 -26 26 -4 26 15 29 34 5z
m-3160 -49 c-61 -53 -159 -106 -189 -102 -17 3 -4 15 67 62 110 71 158 97 165
90 3 -3 -16 -26 -43 -50z m-766 -54 c-61 -48 -302 -211 -341 -231 -35 -17 -52
-20 -98 -15 -70 8 -161 35 -161 47 0 5 43 9 95 9 102 0 156 15 237 67 96 60
254 143 273 143 18 0 18 -2 -5 -20z m231 -22 l34 -13 -50 -6 c-27 -4 -77 -4
-110 -1 l-60 6 40 12 c53 16 104 17 146 2z m-1391 -69 c0 -11 -51 -69 -61 -69
-5 0 0 14 11 32 13 21 17 41 13 58 -6 25 -6 25 16 6 11 -11 21 -23 21 -27z
m200 21 c0 -5 -13 -10 -30 -10 -16 0 -30 5 -30 10 0 6 14 10 30 10 17 0 30 -4
30 -10z m1440 0 c0 -5 -16 -10 -35 -10 -19 0 -35 5 -35 10 0 6 16 10 35 10 19
0 35 -4 35 -10z m-1806 -335 c0 -5 -30 -26 -66 -45 -36 -19 -75 -44 -87 -54
-25 -23 -28 -8 -6 33 24 48 162 105 159 66z m1651 -74 c-9 -9 -109 -41 -127
-41 -23 0 -3 20 35 33 47 17 106 22 92 8z m-1599 -51 c79 -39 163 -124 208
-209 38 -72 43 -93 25 -88 -19 4 -21 -19 -4 -37 22 -22 88 -38 143 -34 l47 3
-40 18 -40 18 24 13 25 14 -22 13 c-12 8 -22 19 -22 26 0 17 71 52 111 55 46
4 49 -21 10 -74 -51 -69 -38 -77 34 -22 61 46 68 38 11 -14 -159 -146 -321
-103 -421 112 -61 132 -143 216 -212 216 -20 0 -32 4 -28 10 13 21 91 10 151
-20z m334 2 l25 -16 -35 -9 c-19 -5 -55 -24 -79 -43 -24 -19 -48 -34 -53 -34
-14 0 -9 65 8 88 30 44 80 49 134 14z m-710 -53 l11 -20 36 21 c21 12 33 16
31 8 -13 -42 -171 -78 -185 -43 -17 45 84 77 107 34z m5867 1 c65 -29 162 -98
221 -156 55 -56 65 -75 32 -67 -27 7 -27 -27 -1 -51 27 -24 41 -91 41 -191 0
-83 -1 -88 -30 -117 -28 -28 -36 -30 -78 -25 -36 4 -53 12 -74 36 -15 17 -28
42 -28 56 0 15 -18 44 -46 76 -46 52 -51 71 -20 77 25 5 44 -15 56 -58 12 -43
75 -111 121 -130 27 -11 33 -11 57 7 41 31 39 42 -9 40 l-43 -2 -38 70 c-54
99 -95 135 -153 135 -53 0 -88 -16 -165 -75 -64 -49 -99 -69 -107 -61 -3 3 0
12 7 20 25 31 2 32 -95 4 -125 -36 -188 -43 -243 -28 -51 13 -122 73 -107 89
6 5 57 13 115 17 140 9 171 20 283 98 109 76 158 96 233 96 62 0 69 11 19 28
-35 13 -85 64 -85 87 0 45 67 57 137 25z m-5087 -40 c21 -13 3 -40 -46 -65
-22 -11 -39 -28 -39 -37 0 -27 -20 -40 -49 -32 -31 7 -32 13 -6 63 34 68 96
99 140 71z m-449 -43 c24 -18 72 -73 107 -122 110 -157 160 -195 255 -195 69
0 113 19 206 86 80 59 115 73 140 57 31 -20 21 -42 -50 -117 -93 -99 -162
-134 -274 -141 l-80 -5 111 37 c111 38 164 65 164 84 0 22 -33 20 -70 -6 -33
-23 -53 -28 -122 -32 -115 -7 -194 9 -234 48 -17 17 -56 72 -85 122 -65 110
-125 177 -160 177 -21 -1 -17 -7 35 -55 62 -57 61 -60 -14 -45 -86 16 -201
-30 -184 -74 4 -11 0 -16 -12 -16 -11 -1 -43 -14 -73 -30 -53 -28 -55 -29 -84
-12 -32 19 -77 78 -77 102 0 27 -21 39 -56 33 -50 -8 -41 5 24 35 50 24 54 27
30 30 -37 4 -53 25 -33 42 25 21 70 -18 70 -59 0 -37 4 -37 104 -11 41 11 79
20 83 20 24 0 -13 -26 -86 -61 l-81 -38 52 -1 c73 0 95 11 148 77 64 80 99
103 156 103 38 0 56 -6 90 -33z m764 -107 c4 -6 -7 -10 -24 -10 -17 0 -31 5
-31 10 0 6 11 10 24 10 14 0 28 -4 31 -10z m4335 -84 c24 -10 23 -11 -16 -14
-46 -3 -98 13 -89 28 7 12 64 4 105 -14z m-352 -73 c11 -16 25 -47 31 -70 7
-25 20 -47 33 -54 32 -17 350 -6 406 13 46 17 47 16 32 -13 -21 -39 -62 -49
-200 -49 -81 0 -130 -4 -130 -10 0 -6 15 -19 33 -30 47 -29 135 -27 212 6 167
72 187 74 120 15 -167 -146 -388 -109 -557 93 -32 38 -56 71 -54 73 2 3 16 -3
30 -13 53 -34 45 21 -9 57 -18 13 -31 27 -29 31 8 13 61 -19 82 -49z m-3892
25 c-35 -48 -93 -140 -139 -220 -97 -170 -153 -201 -362 -202 -161 -1 -163 0
-310 147 -148 147 -142 144 -202 114 -68 -34 -179 -69 -223 -71 -27 0 -47 7
-74 29 -93 75 -97 77 -160 73 l-59 -5 33 29 c45 37 69 35 122 -8 70 -60 188
-106 188 -74 0 16 61 80 91 96 66 33 138 9 244 -82 74 -63 134 -83 279 -95
159 -13 171 -16 156 -34 -17 -20 -148 -20 -220 1 -30 9 -66 18 -80 21 l-25 6
30 -32 c17 -19 49 -37 79 -46 63 -19 182 -19 218 -1 45 24 116 87 179 161 117
135 201 215 227 215 24 0 24 -1 8 -22z m184 9 c0 -8 -11 -19 -24 -25 -29 -13
-77 -71 -154 -188 -82 -124 -158 -204 -233 -244 -60 -32 -179 -73 -187 -65 -2
2 37 25 88 50 126 64 172 109 245 245 67 126 112 177 188 214 57 29 77 32 77
13z m-1140 -17 c40 -20 73 -57 64 -71 -5 -8 -131 45 -149 62 -6 6 -5 13 5 19
22 14 36 12 80 -10z m-348 -50 c33 -22 64 -40 69 -40 5 0 9 -4 9 -10 0 -13
-41 -13 -77 1 -52 19 -108 89 -72 89 6 0 38 -18 71 -40z m5919 0 c-13 -11 -30
-20 -39 -20 -13 0 -12 3 3 20 10 11 28 20 39 20 20 -1 20 -1 -3 -20z m-746
-159 c69 -70 143 -138 165 -151 48 -30 51 -42 8 -29 -76 21 -80 -2 -5 -36 70
-32 141 -37 131 -10 -5 13 7 15 77 16 61 0 78 3 62 9 -13 5 -23 14 -23 19 0
21 100 95 186 138 80 39 99 45 153 44 33 0 61 4 61 9 0 15 -36 30 -74 30 -65
0 -89 27 -45 51 50 27 129 -21 149 -92 14 -47 5 -67 -35 -78 -62 -17 -311
-181 -287 -189 15 -5 62 21 161 87 l84 56 139 1 c150 2 147 1 240 76 25 19 30
20 53 8 14 -7 35 -34 47 -59 21 -41 23 -61 23 -186 -1 -149 -13 -203 -52 -224
-26 -13 -67 8 -71 37 -4 27 22 40 43 22 13 -11 15 -2 15 66 0 76 12 174 26
222 5 16 2 22 -10 22 -22 0 -42 -36 -55 -100 -11 -52 -42 -100 -65 -100 -11 0
-91 52 -136 90 l-25 20 70 -6 70 -7 -62 42 c-35 24 -65 47 -68 52 -13 20 -25
7 -25 -26 0 -90 77 -177 170 -193 52 -9 60 -25 26 -47 -40 -26 -113 0 -206 75
-41 33 -94 68 -117 77 -24 10 -41 23 -40 28 2 6 21 20 43 32 35 20 36 23 14
23 -36 -1 -132 -42 -177 -77 -160 -126 -353 -114 -598 38 l-80 50 68 -65 c37
-36 88 -77 112 -93 45 -28 56 -43 33 -43 -102 1 -246 152 -353 370 -51 106
-54 127 -23 139 41 15 77 -9 203 -138z m125 114 c7 -8 9 -22 6 -32 -6 -15 -9
-15 -28 4 -11 12 -17 26 -14 32 10 15 21 14 36 -4z m-4677 -25 c58 -22 93 -52
82 -69 -10 -17 -35 -13 -80 14 -41 23 -86 75 -66 75 6 0 35 -9 64 -20z m-698
-71 c22 -16 64 -44 93 -61 30 -17 56 -37 59 -45 9 -24 -18 -43 -60 -43 -36 0
-47 6 -99 60 -33 33 -68 60 -79 60 -25 0 -39 -37 -39 -101 0 -67 -18 -134 -41
-155 -11 -9 -22 -14 -25 -11 -14 14 -19 75 -12 139 9 88 43 158 88 180 41 21
61 17 115 -23z m559 -102 c86 -88 138 -132 178 -153 64 -32 72 -44 30 -44 -49
0 -148 58 -228 133 -75 70 -80 71 -57 10 8 -21 -3 -16 -74 33 -68 46 -68 46
-135 41 -38 -3 -68 -4 -68 -1 0 3 29 19 65 36 l66 30 51 -36 c64 -45 84 -35
50 24 -50 87 -16 66 122 -73z m4564 -86 c80 -120 127 -168 199 -204 74 -38
149 -50 265 -41 81 5 100 4 96 -6 -13 -41 -225 -65 -304 -35 -25 9 -48 14 -51
11 -4 -3 -34 20 -67 52 -34 31 -76 65 -94 74 -19 10 -32 25 -32 36 0 10 -22
64 -50 120 -27 56 -46 102 -42 102 4 0 40 -49 80 -109z m-4878 54 c0 -3 -7
-17 -16 -31 -24 -35 -94 -74 -135 -74 l-34 1 30 24 c30 25 134 84 148 85 4 0
7 -2 7 -5z m39 -74 c-64 -65 -74 -87 -34 -77 14 4 25 4 25 1 0 -9 -82 -95 -91
-95 -4 0 -36 24 -71 53 l-63 52 62 6 c63 6 80 14 177 89 62 47 60 35 -5 -29z
m-295 3 c33 -33 9 -74 -44 -74 -27 0 -35 22 -19 52 21 40 39 46 63 22z m531
-74 c9 -15 -57 -82 -118 -118 -30 -18 -81 -38 -115 -45 -33 -7 -64 -16 -68
-20 -15 -15 20 -37 58 -37 45 0 82 17 153 70 105 78 137 78 59 -1 -59 -60
-133 -99 -188 -99 -42 0 -116 30 -138 57 -11 13 -10 18 6 27 10 6 44 30 75 54
82 62 129 92 170 107 43 16 97 19 106 5z m5557 -71 c13 -7 43 -30 68 -52 25
-21 64 -48 88 -59 33 -16 42 -25 40 -42 -2 -15 -11 -22 -33 -24 -24 -2 -50 13
-125 69 -52 38 -116 80 -142 92 -27 12 -48 26 -48 31 0 12 124 0 152 -15z
m-5942 -57 c0 -11 -11 -5 -35 18 -19 19 -35 38 -35 42 0 5 16 -3 35 -18 19
-14 35 -33 35 -42z m-117 26 c39 -28 34 -36 -20 -31 -27 2 -69 -2 -96 -10 -54
-17 -67 -8 -43 28 29 44 105 50 159 13z m762 -94 c-14 -44 -39 -100 -55 -126
-26 -43 -27 -48 -11 -48 24 0 69 51 120 137 23 37 50 79 62 93 l20 25 -6 -25
c-11 -42 -131 -281 -175 -350 -85 -131 -143 -168 -295 -185 -33 -3 -71 -8 -85
-11 -51 -11 -10 7 60 27 126 35 192 79 249 168 58 89 33 84 -72 -17 -112 -108
-165 -134 -99 -50 94 123 127 168 169 236 94 154 134 214 139 209 3 -3 -7 -40
-21 -83z m-101 -15 c-34 -69 -65 -116 -137 -212 -59 -79 -109 -120 -161 -133
-29 -7 -136 14 -136 26 0 4 30 13 68 20 122 23 147 43 262 210 80 115 123 166
128 151 2 -5 -9 -33 -24 -62z m-124 21 c-28 -99 -94 -178 -178 -217 -44 -21
-65 -25 -120 -21 -82 4 -135 30 -214 103 -32 30 -66 56 -77 60 -12 3 -37 -3
-62 -15 -29 -15 -45 -18 -52 -11 -15 15 64 91 95 91 15 0 73 -32 137 -75 61
-41 130 -79 153 -86 96 -25 181 15 267 129 30 39 56 72 57 72 1 0 -1 -14 -6
-30z m-392 -80 c9 -26 -23 -2 -67 51 l-46 54 54 -46 c30 -25 57 -51 59 -59z
m847 43 c-13 -104 -65 -286 -107 -370 -74 -151 -167 -221 -341 -257 -90 -19
-106 -17 -210 31 -43 19 -80 33 -83 31 -2 -3 12 -26 32 -52 27 -35 31 -45 16
-37 -12 6 -24 16 -27 21 -4 6 -29 22 -57 36 -66 33 -99 27 -168 -32 -29 -24
-55 -43 -57 -40 -3 3 0 20 7 40 40 123 158 155 347 95 124 -40 196 -38 295 10
115 54 161 123 274 402 36 90 68 167 70 171 13 20 16 3 9 -49z m5106 -76 c-14
-14 -102 -28 -125 -21 -40 12 -96 79 -96 115 0 11 30 8 98 -8 17 -4 22 -1 22
13 0 13 15 4 55 -36 33 -32 51 -58 46 -63z m-302 38 c31 -50 42 -60 73 -67 21
-4 69 -23 108 -43 71 -36 116 -43 151 -25 25 14 24 30 -3 30 l-21 0 23 25 c33
35 101 59 150 52 22 -3 59 -19 82 -36 47 -35 58 -38 58 -16 0 9 -11 21 -25 27
-29 13 -33 28 -7 28 40 0 92 -73 92 -127 0 -38 -8 -40 -42 -14 -48 38 -81 32
-171 -34 -97 -71 -150 -95 -211 -95 -67 0 -126 30 -180 92 -44 50 -119 188
-132 242 -11 46 15 28 55 -39z m-4718 -53 c-12 -58 -59 -168 -67 -159 -6 6 41
169 58 200 16 31 21 11 9 -41z m4665 -49 c101 -172 169 -224 302 -231 90 -5
142 9 224 59 111 68 178 46 150 -50 -15 -49 -36 -58 -64 -26 -12 14 -25 25
-30 25 -5 0 -46 -36 -92 -79 -50 -47 -99 -84 -122 -91 -117 -39 -280 56 -389
225 -42 66 -118 240 -113 257 2 6 23 -21 46 -61 39 -65 62 -87 62 -61 0 6 -11
38 -25 72 -14 34 -25 63 -25 65 0 16 28 -22 76 -104z m-5367 71 c-33 -40 -96
-54 -144 -32 -53 24 -11 45 94 47 56 1 62 -1 50 -15z m5063 -60 c15 -27 39
-83 54 -124 58 -162 146 -309 217 -363 49 -37 111 -66 169 -78 81 -17 90 -25
46 -43 -54 -23 -201 -21 -253 3 -50 23 -96 74 -137 154 -25 49 -32 77 -35 135
-2 59 -8 80 -30 113 -19 29 -27 53 -26 81 2 33 -1 38 -16 33 -15 -4 -17 1 -17
42 1 35 -5 57 -21 80 -13 17 -23 34 -23 38 0 20 48 -28 72 -71z m-5518 5 c-16
-17 -37 -35 -47 -41 -16 -8 -17 -7 -8 10 11 22 60 61 75 62 6 0 -3 -14 -20
-31z m92 -70 c24 -16 59 -35 76 -41 28 -10 30 -12 12 -19 -10 -4 -36 -8 -57
-8 -51 -1 -99 -23 -125 -56 -20 -25 -22 -26 -22 -7 0 29 21 124 32 145 13 24
33 21 84 -14z m5662 -132 c76 -100 143 -168 210 -212 52 -34 54 -50 7 -42 -64
11 -125 50 -199 129 -50 54 -78 77 -89 73 -21 -9 -31 26 -22 83 7 44 12 62 19
62 2 0 35 -42 74 -93z m-5615 16 c15 -14 -43 -83 -70 -83 -21 0 -15 17 18 55
32 36 40 40 52 28z m937 -7 c0 -17 -36 -63 -44 -56 -7 7 24 70 35 70 5 0 9 -6
9 -14z m-761 -113 c2 -2 2 -6 -1 -9 -9 -9 -61 22 -89 53 -55 62 -51 65 16 13
39 -29 72 -55 74 -57z m6244 73 c25 -38 31 -72 13 -79 -21 -8 -46 30 -46 70 0
39 12 42 33 9z m-1068 -129 c11 -41 26 -74 38 -82 16 -11 18 -20 12 -55 -7
-40 -6 -41 14 -29 18 12 24 10 48 -13 16 -15 37 -42 47 -59 l19 -33 -32 23
c-43 31 -65 14 -28 -22 49 -49 225 -117 269 -103 7 2 25 7 40 10 21 5 27 12
25 29 -2 18 6 25 50 39 75 25 133 33 133 19 0 -15 -42 -31 -80 -31 -22 0 -29
-5 -32 -22 -7 -47 -101 -88 -203 -88 -153 1 -267 126 -330 363 -25 90 -34 169
-16 137 4 -8 16 -46 26 -83z m-5320 64 c3 -6 -7 -21 -22 -35 -32 -30 -143 -91
-143 -79 0 11 89 97 115 111 25 14 42 15 50 3z m6279 -82 c34 -40 43 -76 23
-96 -26 -26 -61 -9 -90 46 -37 66 -35 81 7 81 26 0 41 -7 60 -31z m-653 -34
c107 -79 212 -93 386 -53 86 20 98 20 136 7 25 -8 46 -24 54 -39 17 -34 2 -36
-45 -5 -45 29 -35 30 -216 -18 l-118 -31 -85 43 c-72 37 -204 139 -181 141 5
0 35 -20 69 -45z m-4831 16 c0 -31 -192 -159 -223 -148 -6 2 16 22 48 44 33
22 80 57 105 77 44 35 70 45 70 27z m10 -147 c-7 -7 -22 -14 -34 -14 -11 0
-44 -11 -72 -24 -84 -39 -256 -77 -268 -58 -8 13 38 29 104 36 39 4 88 22 165
60 100 49 110 52 113 34 2 -10 -2 -26 -8 -34z m-756 -21 c-24 -31 -34 -54 -31
-70 2 -14 -3 -29 -15 -40 -17 -15 -20 -15 -34 -1 -14 14 -14 21 6 76 17 47 29
63 49 71 58 21 63 14 25 -36z m6100 4 c27 -21 49 -30 68 -29 25 2 31 -3 48
-40 23 -51 25 -96 6 -142 -27 -65 -85 -84 -126 -41 -19 20 -24 37 -25 78 0 48
2 52 23 51 27 -1 28 11 2 54 -22 35 -31 38 -59 20 -16 -10 -26 -7 -60 16 -46
32 -54 50 -15 36 27 -11 48 -5 39 11 -4 5 -3 14 1 20 10 16 55 1 98 -34z
m-5659 4 c-10 -10 -118 -41 -143 -41 -27 0 0 20 46 34 55 17 111 21 97 7z
m-355 -67 c0 -12 -81 -124 -90 -124 -13 0 -13 46 1 71 15 28 89 73 89 53z
m5568 -53 c14 -8 13 -10 -11 -16 -42 -11 -137 8 -137 27 0 13 121 4 148 -11z
m-5333 -1 c9 -15 -82 -53 -140 -58 -39 -3 -54 0 -64 12 -9 11 -11 20 -4 27 23
23 196 39 208 19z m415 -10 c0 -37 -41 -130 -67 -150 -36 -28 -67 -25 -139 15
-34 19 -69 35 -78 35 -8 0 -35 -25 -60 -56 l-46 -56 0 67 c0 36 5 75 11 87 18
34 70 48 181 49 57 0 121 6 143 14 54 18 55 18 55 -5z m5231 -1 c8 -15 8 -24
0 -32 -15 -15 -46 16 -38 37 9 22 24 20 38 -5z m-60 -136 l70 -67 -3 44 c-3
44 -2 45 27 45 27 0 30 -4 33 -33 8 -77 -57 -107 -119 -55 -31 26 -89 108 -89
125 0 16 13 7 81 -59z m-5643 25 c8 -8 5 -22 -14 -54 -29 -48 -44 -177 -25
-204 20 -27 32 10 29 83 -2 37 -2 67 0 67 1 0 12 -19 22 -42 30 -67 26 -129
-11 -149 -45 -23 -160 75 -158 136 l1 30 9 -31 c10 -34 35 -61 47 -50 4 4 6
41 4 83 -3 73 -2 75 32 109 37 37 46 40 64 22z m5287 -37 c88 -27 90 -29 104
-68 8 -22 11 -48 8 -57 -6 -16 -10 -15 -37 8 -19 15 -48 27 -78 31 -91 12
-102 16 -102 35 0 25 -33 43 -48 28 -34 -34 3 -107 56 -109 39 -2 84 1 103 7
9 3 25 -3 34 -13 15 -14 17 -30 13 -103 -5 -87 -29 -161 -36 -113 -2 12 1 39
7 60 l11 38 -51 -57 c-28 -32 -56 -58 -63 -58 -20 0 -58 47 -54 66 4 23 38 32
38 10 0 -18 36 -40 44 -27 19 30 -56 111 -103 111 -55 0 -63 17 -65 126 l-1
99 33 -3 c18 -2 32 1 32 7 0 19 62 12 155 -18z m-5065 -56 c10 -12 10 -19 2
-27 -34 -34 5 -36 132 -8 109 24 106 24 106 2 0 -26 -26 -47 -93 -77 -32 -14
-60 -32 -63 -40 -4 -9 -19 -15 -39 -15 -38 0 -50 -12 -60 -58 -9 -45 -29 -35
-36 19 -6 40 5 175 16 207 6 16 20 15 35 -3z m5345 -44 c29 -10 51 -25 53 -34
8 -41 -137 -80 -152 -41 -8 21 -8 79 1 87 10 11 44 7 98 -12z m268 -1 c-7 -28
-41 -50 -75 -50 -38 0 -35 12 10 43 46 32 72 35 65 7z m-202 -140 c-47 -72
-49 -80 -20 -73 50 13 41 -45 -11 -72 -43 -22 -50 -19 -50 26 0 22 -5 49 -11
61 -10 18 -17 19 -64 13 -46 -5 -57 -3 -74 14 -22 22 -31 98 -11 86 6 -3 10
-13 10 -20 0 -36 144 -31 218 8 26 13 48 23 50 22 2 -2 -15 -31 -37 -65z m121
23 c-27 -37 -71 -78 -77 -71 -19 18 48 98 82 98 11 0 10 -6 -5 -27z m-5312
-99 c-13 -30 -34 -63 -48 -74 -26 -21 -77 -27 -87 -10 -10 16 31 74 93 131 52
48 57 50 60 30 2 -13 -6 -47 -18 -77z m-346 -51 c10 -127 15 -152 35 -162 9
-6 23 -27 29 -49 16 -54 142 -173 142 -134 0 4 -17 31 -39 59 -43 57 -57 114
-40 162 8 23 17 31 34 31 33 0 55 -36 55 -90 0 -25 10 -77 21 -117 25 -84 21
-103 -20 -103 -38 0 -48 -16 -25 -41 26 -29 88 -45 119 -31 34 16 33 55 -5
143 -40 95 -46 133 -26 164 10 16 26 25 42 25 41 0 60 -59 84 -265 11 -99 30
-245 41 -324 26 -185 24 -209 -20 -238 -22 -15 -49 -23 -76 -23 -37 0 -48 5
-74 35 -41 47 -73 112 -104 210 -24 76 -51 225 -42 233 2 2 10 -11 18 -29 33
-78 60 -129 75 -141 14 -12 14 -10 8 17 -9 37 -66 190 -109 293 -29 68 -36 78
-62 82 -27 4 -32 12 -52 70 -40 120 -54 310 -23 310 4 0 11 -39 14 -87z m5383
-100 c-3 -90 -11 -147 -26 -193 -43 -136 -47 -104 -12 110 19 115 36 210 39
210 3 0 2 -57 -1 -127z m-83 91 c15 -40 -1 -200 -35 -333 -10 -42 -39 -118
-64 -168 -25 -51 -45 -101 -45 -112 0 -11 -25 -57 -55 -101 -57 -84 -70 -117
-33 -84 44 39 107 136 122 187 17 59 97 189 103 169 3 -7 -7 -43 -22 -80 -15
-37 -47 -125 -71 -196 -49 -140 -62 -169 -106 -234 -80 -117 -218 -148 -248
-56 -14 41 -11 76 41 539 44 390 53 448 75 466 54 44 124 -201 80 -281 -7 -14
-30 -52 -50 -84 -57 -94 -45 -156 30 -156 26 0 44 9 72 36 24 24 30 34 17 29
-11 -4 -37 -9 -57 -12 -29 -4 -39 -2 -44 11 -9 22 5 51 60 125 59 81 63 105
35 202 -12 43 -20 81 -18 84 3 3 19 8 36 11 21 4 35 1 48 -12 15 -15 16 -29
11 -108 -4 -50 -10 -113 -13 -140 -8 -62 12 -60 45 4 18 36 22 61 22 137 0 62
5 106 16 133 17 41 37 52 48 24z m-5226 -6 c27 -27 3 -122 -26 -104 -7 4 -12
29 -12 55 0 60 12 75 38 49z m312 -22 c0 -20 -16 -36 -36 -36 -26 0 -30 10
-12 28 11 11 48 17 48 8z m5754 -6723 c-152 -418 -256 -560 -604 -821 -386
-291 -655 -430 -935 -486 -234 -46 -441 -67 -745 -76 -548 -16 -1068 -8 -1155
19 l-30 9 40 2 c22 1 54 6 70 10 17 4 -46 8 -151 9 -145 1 -183 4 -187 15 -6
15 -106 31 -402 67 -308 36 -755 113 -755 129 0 8 7 7 289 -36 278 -43 324
-49 580 -74 245 -24 523 -36 501 -22 -11 8 -532 62 -591 62 -5 0 -9 5 -9 10 0
6 15 10 34 10 19 0 37 4 41 10 6 10 -43 39 -90 51 -40 11 459 1 560 -11 83
-10 135 -26 135 -42 0 -12 63 -38 95 -38 26 0 34 15 13 23 -27 9 113 17 502
27 223 5 457 15 520 20 298 28 787 127 1060 216 117 38 384 176 531 275 174
117 404 360 613 647 65 90 120 161 123 158 3 -2 -21 -76 -53 -163z m-5336
-973 c68 -10 125 -20 128 -23 14 -13 -10 -27 -46 -27 -60 0 -139 20 -205 51
-39 19 -49 27 -30 23 17 -3 85 -14 153 -24z m-248 -5 c0 -10 -82 -46 -98 -43
-13 3 -8 10 18 26 31 19 80 30 80 17z m745 -5 c4 -6 -10 -10 -34 -10 -23 0
-41 5 -41 10 0 6 15 10 34 10 19 0 38 -4 41 -10z m-142 -27 c93 -25 81 -36
-34 -31 -114 4 -159 19 -138 45 15 17 76 13 172 -14z m317 -8 c87 -10 264 -46
275 -56 9 -9 -22 -7 -160 12 -109 14 -225 41 -225 51 0 5 12 7 28 4 15 -3 52
-8 82 -11z m-826 -58 c37 -27 11 -35 -39 -12 l-50 23 36 1 c19 1 43 -5 53 -12z
m436 -6 c0 -12 -11 -25 -27 -33 -47 -23 -26 -33 72 -36 82 -2 96 -5 105 -22 9
-17 18 -19 70 -13 64 6 67 4 50 -42 -9 -25 -14 -27 -48 -20 -20 4 -59 18 -85
31 -40 20 -64 24 -132 24 -77 0 -84 2 -99 25 -10 15 -26 25 -40 25 -25 0 -51
22 -39 33 3 4 29 7 57 7 35 0 59 7 76 20 32 25 40 25 40 1z m471 -11 c106 -16
244 -37 304 -47 l110 -18 -79 -3 c-121 -4 -552 61 -580 89 -16 15 40 11 245
-21z m-358 -12 c-17 -8 -29 -8 -45 0 -20 9 -18 11 22 11 40 0 42 -2 23 -11z
m484 -155 c7 -9 11 -18 9 -21 -8 -7 -96 30 -96 41 0 16 73 -1 87 -20z m153
-13 c11 -7 0 -10 -38 -10 -33 0 -51 4 -47 10 8 13 65 13 85 0z m235 -30 c4 -6
-16 -10 -52 -10 -41 0 -54 3 -43 10 20 13 87 13 95 0z"/>
<path d="M3840 12597 c0 -33 23 -77 41 -77 5 0 9 7 9 15 0 17 -37 95 -45 95
-3 0 -5 -15 -5 -33z"/>
<path d="M4620 12344 c0 -28 40 -103 61 -115 29 -15 25 18 -10 73 -33 53 -51
67 -51 42z"/>
<path d="M2745 12564 c-29 -34 -66 -64 -92 -76 -23 -10 -59 -36 -79 -56 -40
-41 -84 -120 -84 -152 0 -23 18 -27 26 -6 3 8 42 45 87 83 96 80 149 132 172
167 19 28 37 96 26 96 -4 0 -29 -25 -56 -56z"/>
<path d="M1944 12244 c-13 -18 -14 -28 -6 -36 15 -15 52 17 52 44 0 26 -27 22
-46 -8z"/>
<path d="M2814 12107 c-26 -32 -34 -34 -34 -7 0 27 -25 25 -44 -2 -21 -30 -4
-48 44 -48 44 0 63 18 58 57 l-3 28 -21 -28z"/>
<path d="M3032 12078 c-18 -18 -14 -28 12 -28 13 0 26 6 29 14 10 26 -19 36
-41 14z"/>
<path d="M2487 12042 c-27 -26 -27 -26 -27 -4 0 35 -37 27 -81 -16 -21 -21
-41 -50 -44 -65 -13 -52 17 -79 35 -32 8 20 14 24 33 19 19 -4 25 -1 29 14 3
11 17 21 36 25 25 5 33 13 41 44 6 20 9 38 8 40 -2 1 -15 -10 -30 -25z"/>
<path d="M2752 12010 c-29 -12 -50 -56 -34 -72 8 -8 19 -8 42 2 38 16 56 45
39 66 -13 16 -15 16 -47 4z"/>
<path d="M1809 11726 c12 -61 18 -73 25 -57 11 26 0 84 -23 112 -17 22 -17 20
-2 -55z"/>
<path d="M1426 11598 c-32 -45 -16 -77 28 -57 31 14 39 34 26 60 -14 25 -35
24 -54 -3z"/>
<path d="M5660 11549 c0 -14 9 -34 20 -44 19 -18 20 -17 20 2 0 12 -9 31 -20
44 l-19 24 -1 -26z"/>
<path d="M1334 11506 c-3 -8 2 -29 12 -47 l17 -34 9 25 c6 16 5 33 -1 47 -12
26 -29 30 -37 9z"/>
<path d="M5900 11357 c0 -8 8 -22 19 -31 17 -16 19 -16 24 3 5 21 -9 41 -30
41 -7 0 -13 -6 -13 -13z"/>
<path d="M1180 11315 c0 -36 3 -46 10 -35 5 8 10 24 10 35 0 11 -5 27 -10 35
-7 11 -10 1 -10 -35z"/>
<path d="M5990 11267 c0 -19 21 -37 42 -37 21 0 24 20 6 38 -16 16 -48 15 -48
-1z"/>
<path d="M6100 11182 c0 -4 29 -37 65 -72 42 -42 65 -58 65 -48 0 10 -14 33
-30 52 -31 35 -100 82 -100 68z"/>
<path d="M2303 11489 c-57 -10 -199 -82 -280 -143 -55 -42 -75 -51 -112 -52
-26 -1 -48 -3 -50 -3 -2 -1 2 -8 9 -16 7 -9 29 -15 54 -15 43 0 74 16 198 101
87 59 139 74 253 73 83 -1 115 -6 190 -32 92 -31 113 -33 79 -7 -79 60 -256
108 -341 94z"/>
<path d="M1445 11330 c-4 -6 9 -10 32 -10 28 0 34 3 23 10 -20 13 -47 13 -55
0z"/>
<path d="M2293 10981 c-22 -16 -60 -39 -84 -52 -24 -12 -84 -48 -132 -81 -118
-80 -169 -101 -242 -101 -78 -1 -113 18 -201 108 -79 81 -134 117 -134 89 0
-9 38 -53 84 -98 151 -150 253 -179 393 -112 84 41 387 243 391 263 6 23 -33
15 -75 -16z"/>
<path d="M4473 11449 c-33 -10 -42 -22 -24 -34 13 -7 152 22 165 35 13 13 -96
12 -141 -1z"/>
<path d="M4592 11373 c-34 -13 9 -23 101 -22 l102 1 -50 13 c-51 13 -130 18
-153 8z"/>
<path d="M4455 11358 c-11 -6 -32 -22 -47 -36 l-28 -26 0 23 c0 19 -5 22 -32
19 -39 -4 -49 -30 -22 -60 14 -14 26 -18 47 -14 27 6 140 77 152 96 8 14 -45
12 -70 -2z"/>
<path d="M4835 11330 c-10 -17 13 -37 60 -53 64 -22 145 -81 285 -208 211
-192 245 -213 315 -200 22 4 51 13 65 21 36 18 110 80 110 91 0 19 -29 7 -71
-30 -55 -47 -77 -55 -128 -41 -55 14 -130 68 -258 183 -134 120 -211 179 -287
217 -64 32 -81 36 -91 20z"/>
<path d="M3930 11226 c0 -20 64 -86 84 -86 26 0 19 15 -29 59 -49 45 -55 48
-55 27z"/>
<path d="M4080 11125 c0 -9 83 -45 103 -45 31 0 18 17 -26 34 -43 16 -77 21
-77 11z"/>
<path d="M4470 11114 c-85 -8 -197 -26 -210 -34 -21 -13 -4 -24 38 -24 50 0
419 24 460 30 37 6 42 19 10 28 -23 6 -232 6 -298 0z"/>
<path d="M4950 11023 c0 -5 36 -44 81 -88 44 -44 112 -122 151 -172 72 -94
102 -120 72 -60 -41 79 -214 275 -273 310 -17 10 -31 14 -31 10z"/>
<path d="M4110 10873 c0 -13 65 -21 245 -28 335 -14 406 -46 659 -299 160
-160 214 -196 294 -196 42 0 170 27 184 39 4 3 -39 6 -95 6 -89 0 -109 3 -157
26 -80 38 -124 77 -225 197 -135 160 -222 210 -420 242 -100 15 -485 26 -485
13z"/>
<path d="M5602 10687 c-18 -18 -32 -36 -32 -40 0 -12 67 42 74 59 9 24 -8 16
-42 -19z"/>
<path d="M5305 10641 c-10 -16 31 -31 84 -31 60 0 67 15 14 29 -47 13 -90 14
-98 2z"/>
<path d="M6233 10559 c-5 -5 -37 -21 -69 -34 l-59 -25 41 0 c68 0 124 29 124
64 0 10 -25 7 -37 -5z"/>
<path d="M5710 10474 c-37 -16 -70 -42 -70 -56 0 -16 37 -8 56 13 16 17 27 20
66 17 57 -6 78 3 59 26 -17 20 -65 20 -111 0z"/>
<path d="M6420 10601 c0 -12 66 -42 98 -44 35 -3 36 23 2 40 -29 15 -100 17
-100 4z"/>
<path d="M6740 10261 c0 -24 15 -35 36 -27 12 4 13 10 4 26 -14 26 -40 26 -40
1z"/>
<path d="M1636 10298 c-47 -54 -49 -81 -5 -58 16 9 59 77 59 95 0 15 -22 0
-54 -37z"/>
<path d="M1563 9961 c-55 -44 -90 -81 -77 -81 17 0 98 56 128 89 43 45 10 41
-51 -8z"/>
<path d="M5570 10166 c0 -3 26 -38 58 -78 75 -93 161 -178 180 -178 19 0 15 5
-117 148 -91 98 -121 125 -121 108z"/>
<path d="M6719 9454 l-34 -36 30 15 c39 20 74 57 54 57 -9 0 -31 -16 -50 -36z"/>
<path d="M6360 9436 c0 -7 23 -34 50 -60 74 -69 176 -111 168 -69 -3 16 -12
22 -80 53 -14 7 -48 30 -73 51 -50 42 -65 47 -65 25z"/>
<path d="M6605 9164 c-27 -13 -66 -24 -86 -24 -20 0 -39 -6 -41 -12 -9 -24 4
-38 33 -38 47 0 176 71 164 91 -8 12 -12 11 -70 -17z"/>
<path d="M6372 9154 c2 -9 13 -23 25 -31 20 -14 23 -14 29 1 8 21 -13 46 -38
46 -13 0 -18 -6 -16 -16z"/>
<path d="M1020 8705 c-13 -14 -20 -25 -16 -25 15 0 66 31 66 40 0 18 -26 10
-50 -15z"/>
<path d="M3215 339 c-21 -5 -8 -7 44 -8 41 0 72 1 70 3 -9 8 -86 12 -114 5z"/>
<path d="M3592 313 c-6 -2 -10 -9 -6 -14 7 -12 51 -12 59 1 3 6 2 10 -4 10 -5
0 -15 2 -23 4 -7 3 -19 2 -26 -1z"/>
<path d="M3734 249 c-4 -7 1 -18 11 -25 15 -11 22 -12 38 -1 10 6 19 17 20 22
3 15 -60 18 -69 4z"/>
<path d="M1990 9556 c-276 -193 -438 -386 -456 -542 -6 -44 -3 -56 17 -83 33
-45 96 -71 210 -87 55 -8 113 -21 129 -29 16 -8 55 -48 88 -88 69 -83 127
-139 172 -162 88 -46 352 -39 477 13 34 14 61 27 59 30 -3 2 -64 -6 -137 -18
-233 -39 -317 -28 -439 58 -55 38 -98 87 -87 98 3 3 30 -6 59 -20 87 -42 258
-56 258 -20 0 14 -9 17 -95 34 -100 20 -235 98 -235 137 0 17 1 17 82 -12 38
-14 78 -25 88 -25 33 0 12 25 -43 51 -42 19 -53 29 -55 51 -8 64 140 167 293
204 97 24 295 24 395 1 97 -23 173 -65 190 -108 13 -31 13 -33 -19 -59 -44
-38 -149 -66 -373 -100 -315 -48 -310 -47 -176 -49 124 -1 308 25 503 73 55
13 101 23 103 21 4 -3 -65 -43 -136 -79 -85 -43 -210 -86 -307 -106 -103 -21
-145 -35 -145 -50 0 -40 272 29 433 110 54 28 103 50 108 50 25 0 -15 -39
-118 -116 -94 -70 -112 -88 -102 -100 17 -21 32 -17 65 17 16 17 66 60 111 95
51 41 85 75 92 94 l10 30 73 -6 73 -7 -19 21 c-18 21 -18 21 17 35 46 20 67
52 67 105 0 33 -5 48 -22 62 -13 11 -69 59 -126 107 -169 145 -261 191 -427
214 -138 19 -272 -4 -399 -67 -107 -54 -170 -107 -249 -213 -110 -147 -148
-191 -193 -217 -45 -26 -75 -30 -121 -13 -25 8 -33 19 -42 54 -22 89 -7 225
31 267 l19 23 -5 -27 c-3 -14 -9 -33 -12 -42 -3 -9 -1 -16 5 -16 19 0 41 45
39 82 -3 98 227 287 405 332 286 73 786 16 987 -114 51 -33 119 -101 175 -175
l38 -50 -7 -515 c-3 -283 -11 -623 -17 -755 -17 -382 -16 -454 5 -494 26 -50
106 -132 143 -147 38 -16 180 -19 219 -4 46 18 13 31 -99 40 -137 11 -157 22
-199 107 -30 62 -33 75 -32 158 0 49 6 151 13 225 17 193 27 1207 12 1332 -13
117 -39 191 -85 244 -38 45 -183 129 -291 169 -88 33 -246 44 -625 44 l-265 0
-105 -73z m780 -235 c88 -28 150 -65 247 -150 77 -67 153 -153 153 -172 0 -11
-37 -49 -48 -49 -5 0 -7 13 -4 28 3 24 -4 35 -41 68 -64 57 -220 140 -306 163
-59 16 -106 21 -220 22 -155 0 -202 -7 -304 -45 -138 -52 -182 -85 -259 -198
-29 -43 -44 -58 -46 -46 -10 50 181 263 294 330 57 33 127 61 184 72 14 2 84
3 155 1 96 -3 147 -9 195 -24z"/>
<path d="M4348 9570 c-157 -12 -212 -26 -323 -80 -221 -108 -264 -208 -249
-570 9 -191 17 -179 33 45 15 215 36 317 75 368 87 115 253 168 631 203 237
22 373 9 605 -57 168 -48 298 -121 423 -237 54 -52 59 -48 17 13 -78 113 -290
228 -546 296 -68 18 -114 21 -319 24 -132 2 -288 0 -347 -5z"/>
<path d="M4580 9335 c-118 -19 -240 -59 -293 -98 -24 -17 -80 -57 -123 -87
-107 -75 -165 -129 -140 -130 24 0 155 70 269 145 137 89 162 97 319 106 75 4
196 4 270 0 166 -8 202 -24 308 -131 64 -64 140 -176 140 -206 0 -5 -26 17
-57 47 -166 160 -278 201 -548 201 -176 0 -230 -10 -339 -58 -122 -54 -218
-93 -248 -99 -26 -5 -28 -8 -28 -60 0 -30 -4 -55 -9 -55 -4 0 -25 14 -46 30
-41 33 -55 37 -55 17 0 -16 38 -52 163 -153 248 -199 360 -276 457 -312 49
-18 242 -16 336 4 140 28 243 78 218 104 -9 9 -27 4 -72 -19 -93 -47 -200 -73
-306 -74 -84 -1 -98 2 -173 35 -100 44 -255 144 -343 223 -88 78 -102 93 -65
70 195 -123 277 -161 395 -185 159 -33 350 -38 350 -11 0 14 -47 22 -185 31
-83 5 -150 15 -185 28 -75 26 -265 123 -319 162 -83 60 -9 62 148 3 118 -44
218 -63 331 -62 l105 1 -90 14 c-216 33 -485 116 -485 150 0 8 16 32 36 54 54
60 123 82 271 88 243 9 466 -46 567 -141 64 -61 47 -80 -121 -132 -100 -31
-105 -33 -68 -37 63 -5 150 10 215 37 72 30 80 31 80 5 0 -12 8 -21 23 -24 55
-11 122 -15 158 -10 l39 7 -38 41 c-20 22 -57 79 -81 126 -60 116 -120 191
-196 245 -84 60 -163 91 -277 110 -111 18 -193 18 -308 0z m-366 -354 c11 -18
-6 -41 -30 -41 -28 0 -30 7 -7 32 18 20 29 23 37 9z m1162 -136 c7 -28 6 -29
-10 -15 -21 16 -36 51 -29 63 8 14 31 -15 39 -48z"/>
<path d="M5636 9131 c-4 -6 4 -44 18 -84 14 -40 30 -103 35 -142 l8 -70 2 86
c1 86 -16 167 -42 203 -10 14 -16 16 -21 7z"/>
<path d="M5256 8731 c-16 -17 -16 -19 3 -24 21 -5 41 9 41 30 0 19 -24 16 -44
-6z"/>
<path d="M5014 8685 c-8 -19 3 -35 25 -35 20 0 41 19 41 37 0 18 -59 17 -66
-2z"/>
<path d="M3780 8605 c0 -19 5 -35 10 -35 6 0 10 16 10 35 0 19 -4 35 -10 35
-5 0 -10 -16 -10 -35z"/>
<path d="M3793 8380 c0 -36 2 -50 4 -32 2 17 2 47 0 65 -2 17 -4 3 -4 -33z"/>
<path d="M3784 8046 c-3 -14 -1 -33 5 -43 8 -15 10 -10 11 25 0 47 -6 55 -16
18z"/>
<path d="M3113 7783 c-35 -7 -92 -78 -136 -171 -35 -72 -42 -97 -42 -147 0
-109 90 -239 183 -264 51 -14 155 7 160 32 3 15 -7 17 -81 17 l-84 0 -42 46
c-24 25 -49 61 -57 79 -41 99 15 313 91 349 43 21 72 10 114 -41 l31 -38 0 28
c0 73 -63 123 -137 110z"/>
<path d="M3964 7746 c-40 -18 -64 -52 -64 -91 0 -30 1 -30 26 15 30 53 39 60
78 60 45 0 96 -38 118 -87 25 -57 45 -275 29 -316 -18 -46 -88 -72 -189 -71
-83 1 -84 0 -60 -18 52 -40 148 -36 212 9 112 79 134 216 58 376 -56 119 -124
159 -208 123z"/>
<path d="M3840 7650 c0 -22 5 -40 10 -40 6 0 10 18 10 40 0 22 -4 40 -10 40
-5 0 -10 -18 -10 -40z"/>
<path d="M3153 7370 c-26 -11 -43 -40 -43 -74 l0 -26 73 6 c62 6 80 3 125 -16
62 -27 122 -89 122 -126 l0 -26 29 31 c83 88 266 -20 221 -130 -17 -39 -75
-79 -118 -79 -29 0 -32 -3 -27 -20 8 -25 5 -25 -75 1 -83 27 -227 30 -283 6
-52 -22 -271 -181 -334 -242 -62 -60 -66 -85 -22 -131 17 -17 36 -49 44 -70
11 -34 23 -44 92 -79 43 -22 105 -59 138 -81 118 -81 130 -84 298 -91 216 -8
498 10 573 36 58 21 249 129 241 137 -2 2 -63 -18 -136 -46 -73 -27 -162 -55
-199 -62 -88 -17 -511 -17 -610 0 -136 23 -378 173 -329 204 6 4 19 5 28 3 9
-3 48 8 86 25 102 43 192 55 301 41 121 -15 233 -14 355 4 123 19 162 15 328
-36 206 -63 247 -63 317 -3 67 57 57 87 -44 137 -28 14 -103 67 -165 116 -184
146 -272 179 -376 140 -74 -27 -113 -34 -113 -21 0 6 5 14 10 17 31 19 87 187
76 230 -4 17 -11 22 -26 18 -33 -9 -24 23 14 52 58 44 132 67 231 71 111 5
134 20 93 60 -19 20 -40 28 -76 32 -62 6 -103 -8 -184 -60 -80 -52 -153 -78
-220 -78 -76 0 -119 15 -195 66 -98 68 -164 87 -220 64z m277 -495 c125 -39
188 -44 270 -19 92 27 149 32 207 19 65 -15 99 -37 282 -184 l145 -116 -37 -3
c-39 -3 -133 27 -312 102 -129 55 -158 56 -300 12 -121 -37 -201 -37 -286 -1
-129 54 -116 55 -289 -13 -173 -69 -242 -87 -268 -73 -15 8 -8 18 43 66 131
121 331 245 397 245 20 0 87 -16 148 -35z m452 -240 c40 -9 96 -23 123 -31 80
-26 219 -88 207 -92 -7 -2 -78 19 -159 47 -82 27 -184 55 -228 62 -44 7 -87
16 -95 20 -26 14 74 10 152 -6z m-517 -10 c27 -12 19 -13 -97 -14 -71 -1 -128
1 -128 4 0 23 179 32 225 10z m-370 -75 c4 -6 -7 -10 -24 -10 -17 0 -31 5 -31
10 0 6 11 10 24 10 14 0 28 -4 31 -10z"/>
<path d="M3445 6170 c38 -15 357 -42 368 -31 16 16 2 24 -56 32 -72 10 -337
10 -312 -1z"/>
<path d="M2700 5735 c0 -22 4 -34 10 -30 6 3 10 17 10 30 0 13 -4 27 -10 30
-6 4 -10 -8 -10 -30z"/>
<path d="M2731 5593 c22 -58 73 -144 115 -193 24 -28 44 -57 44 -64 0 -7 8
-21 19 -30 27 -24 166 -81 273 -111 218 -62 737 -36 927 46 50 21 110 74 98
85 -4 4 -53 -15 -109 -43 -57 -27 -128 -56 -158 -64 -75 -19 -500 -19 -625 0
-251 38 -394 123 -516 305 -64 96 -87 119 -68 69z"/>
<path d="M2736 5411 c-3 -5 3 -20 13 -32 18 -22 20 -22 26 -6 13 33 -22 67
-39 38z"/>
<path d="M2755 4445 c88 -72 365 -167 365 -125 0 14 -31 28 -97 44 -32 7 -104
34 -159 60 -115 52 -158 60 -109 21z"/>
<path d="M4013 4342 c-24 -9 -43 -20 -43 -24 0 -12 88 -10 111 2 26 15 24 40
-3 39 -13 0 -42 -8 -65 -17z"/>
<path d="M3830 4298 c-19 -5 -46 -18 -60 -28 l-25 -20 33 0 c35 0 112 34 112
50 0 12 -12 11 -60 -2z"/>
<path d="M3227 4294 c-13 -13 -7 -23 23 -39 47 -25 430 -48 430 -26 0 4 -51
14 -112 20 -151 17 -299 38 -319 45 -8 4 -18 3 -22 0z"/>
<path d="M5346 4050 c-107 -429 -249 -642 -519 -780 -110 -55 -137 -72 -137
-83 0 -13 36 1 135 50 310 155 496 427 546 798 17 134 6 140 -25 15z"/>
<path d="M5814 3735 c-8 -20 13 -95 27 -95 15 0 7 103 -8 108 -7 2 -16 -4 -19
-13z"/>
<path d="M5860 3575 c0 -9 8 -32 17 -53 15 -34 17 -35 21 -14 4 26 -15 82 -29
82 -5 0 -9 -7 -9 -15z"/>
<path d="M490 3510 c-86 -9 -143 -26 -172 -50 l-23 -19 35 0 c19 0 62 6 95 14
137 33 529 27 658 -9 28 -9 127 -27 220 -41 232 -36 290 -52 515 -148 263
-113 439 -168 710 -223 272 -55 411 -89 474 -116 48 -20 68 -18 68 7 0 23
-204 80 -485 135 -243 47 -374 87 -745 230 -362 139 -603 193 -979 220 -150
11 -272 11 -371 0z"/>
<path d="M2200 3331 c0 -22 162 -104 268 -136 39 -11 24 10 -31 43 -44 27
-215 102 -232 102 -3 0 -5 -4 -5 -9z"/>
<path d="M2807 3284 c14 -37 261 -204 301 -204 34 0 10 20 -226 183 -58 39
-85 47 -75 21z"/>
<path d="M3838 3179 c-19 -11 -24 -34 -9 -43 5 -3 20 4 35 15 38 30 16 53 -26
28z"/>
<path d="M5399 3180 c-254 -18 -990 -144 -1046 -180 -31 -19 158 -3 287 25
473 102 738 128 1253 123 180 -2 327 0 327 3 0 24 -590 45 -821 29z"/>
<path d="M2524 3169 c-9 -16 20 -37 69 -50 65 -17 77 -6 24 23 -62 35 -84 41
-93 27z"/>
<path d="M4580 3150 c0 -5 14 -10 31 -10 17 0 28 4 24 10 -3 6 -17 10 -31 10
-13 0 -24 -4 -24 -10z"/>
<path d="M4449 3111 c-13 -11 -22 -22 -19 -24 8 -8 70 21 70 33 0 16 -26 12
-51 -9z"/>
<path d="M6525 3122 c6 -5 45 -17 88 -27 58 -13 81 -15 90 -6 22 22 -12 36
-101 39 -54 3 -83 0 -77 -6z"/>
<path d="M3654 3086 c-46 -20 -52 -36 -12 -36 18 0 51 11 73 25 l40 24 -35 0
c-19 0 -49 -6 -66 -13z"/>
<path d="M3315 3050 c-3 -6 6 -15 20 -20 32 -12 233 -14 220 -1 -27 24 -227
42 -240 21z"/>
<path d="M4202 2980 c-40 -9 -46 -15 -38 -35 4 -11 13 -14 33 -9 36 9 96 34
92 38 -11 9 -58 12 -87 6z"/>
<path d="M4062 2949 c-53 -10 -94 -30 -100 -48 -4 -11 2 -12 24 -7 16 4 48 9
71 13 44 6 73 28 57 42 -5 4 -28 4 -52 0z"/>
<path d="M3115 2900 c-4 -7 -3 -16 3 -22 14 -14 57 -6 57 12 0 18 -50 26 -60
10z"/>
<path d="M3853 2893 c-21 -8 -15 -33 8 -33 25 0 59 17 59 30 0 10 -45 12 -67
3z"/>
<path d="M340 1351 c20 -39 90 -79 90 -52 0 18 -59 71 -79 71 -18 0 -20 -3
-11 -19z"/>
<path d="M557 1233 c-14 -13 -7 -56 14 -84 26 -37 99 -93 292 -223 86 -58 154
-106 151 -106 -4 0 -45 15 -93 34 -87 34 -181 54 -181 39 0 -19 85 -63 121
-63 20 0 67 -14 104 -30 73 -33 110 -38 118 -16 11 27 -35 66 -208 181 -198
132 -277 197 -274 229 3 38 -1 46 -19 46 -10 0 -22 -3 -25 -7z"/>
</g>
</svg>
