<?xml version="1.0" standalone="no"?>
<!DOCTYPE svg PUBLIC "-//W3C//DTD SVG 20010904//EN"
 "http://www.w3.org/TR/2001/REC-SVG-20010904/DTD/svg10.dtd">
<svg version="1.0" xmlns="http://www.w3.org/2000/svg"
 width="1280.000000pt" height="1264.000000pt" viewBox="0 0 1280.000000 1264.000000"
 preserveAspectRatio="xMidYMid meet">
<metadata>
Created by potrace 1.15, written by Peter Selinger 2001-2017
</metadata>
<g transform="translate(0.000000,1264.000000) scale(0.100000,-0.100000)"
fill="#000000" stroke="none">
<path d="M6250 12341 c-8 -5 -41 -11 -74 -15 -85 -9 -159 -48 -207 -108 -50
-63 -69 -131 -67 -230 1 -42 -1 -80 -4 -84 -4 -3 2 -23 13 -42 10 -20 19 -43
19 -50 0 -19 -42 -78 -73 -102 -16 -13 -29 -35 -33 -58 -3 -20 -19 -50 -34
-67 -15 -16 -31 -41 -35 -54 -4 -13 -23 -39 -41 -58 -25 -24 -34 -43 -34 -66
0 -26 -6 -36 -32 -51 -113 -66 -201 -162 -228 -251 -7 -22 -35 -85 -62 -140
-56 -112 -58 -149 -14 -190 23 -21 25 -29 20 -72 -4 -29 -21 -71 -42 -106 -26
-43 -37 -73 -40 -114 -3 -37 -13 -68 -29 -91 -13 -20 -26 -47 -29 -61 -17 -78
-52 -160 -113 -268 -38 -67 -77 -133 -88 -146 -18 -24 -32 -63 -68 -192 -26
-91 -61 -148 -126 -201 -91 -76 -129 -166 -129 -307 0 -73 -13 -102 -70 -154
-24 -21 -49 -52 -56 -69 -12 -28 -20 -32 -95 -49 -142 -30 -290 -120 -368
-224 -86 -112 -161 -352 -161 -511 0 -52 -4 -101 -8 -108 -5 -7 -26 -13 -48
-13 -57 -1 -74 -8 -74 -30 0 -10 5 -19 10 -19 6 0 10 -15 10 -32 0 -38 -49
-148 -66 -148 -19 0 -54 -96 -52 -142 3 -79 -35 -291 -107 -591 -19 -82 -40
-181 -45 -220 -5 -40 -14 -95 -21 -122 -16 -66 -2 -96 66 -142 28 -19 118
-101 200 -181 176 -172 417 -361 532 -416 l43 -21 -85 4 c-147 6 -285 -35
-405 -118 -135 -94 -149 -110 -180 -216 -12 -38 -36 -93 -54 -120 -51 -77 -63
-106 -71 -162 -4 -29 -16 -62 -27 -75 -29 -33 -38 -62 -38 -126 0 -31 -8 -91
-18 -132 -13 -55 -16 -92 -10 -139 6 -58 5 -66 -17 -96 -43 -56 -48 -84 -35
-199 11 -100 11 -109 -21 -276 -27 -146 -31 -179 -21 -214 6 -22 10 -42 9 -42
-5 -5 -1396 16 -1422 21 -57 10 -145 -12 -204 -51 -118 -78 -271 -268 -301
-376 -5 -17 -45 -97 -90 -178 -81 -150 -134 -263 -220 -475 -27 -66 -68 -165
-93 -220 -56 -127 -79 -195 -117 -342 -16 -65 -39 -152 -52 -193 -18 -62 -22
-100 -22 -215 0 -91 5 -148 13 -162 8 -16 9 -29 2 -42 -6 -10 -15 -59 -22
-108 -9 -76 -9 -104 4 -169 31 -158 39 -235 32 -337 -9 -139 -30 -250 -61
-316 -31 -68 -56 -97 -109 -123 -62 -31 -90 -63 -120 -139 -16 -38 -43 -87
-62 -109 -32 -37 -37 -39 -101 -42 l-67 -3 -3 -267 -2 -268 6005 0 6005 0 0
229 0 229 -104 4 c-57 1 -107 5 -110 8 -3 3 -14 66 -26 140 -28 186 -68 399
-82 433 -6 15 -19 34 -29 41 -12 8 -23 34 -29 67 -6 30 -19 66 -30 80 -14 20
-21 57 -30 155 -7 73 -22 166 -36 215 -14 47 -29 119 -33 160 -5 41 -18 121
-29 179 -11 58 -25 159 -31 225 -11 138 -26 180 -82 236 -25 25 -38 46 -35 55
10 25 -21 70 -74 108 -28 20 -76 60 -108 89 -31 29 -74 65 -94 81 -50 37 -77
83 -94 159 -13 55 -22 70 -83 132 -54 55 -84 99 -140 203 -79 148 -111 198
-185 289 -32 39 -55 78 -62 110 -57 223 -58 224 -111 273 -79 72 -95 77 -288
84 -93 3 -186 11 -205 17 -21 7 -170 14 -372 18 -185 3 -338 8 -341 11 -2 3
-21 34 -42 69 l-38 63 30 72 29 71 -22 80 c-28 98 -29 163 -7 279 14 74 15
102 6 176 -6 49 -9 98 -6 109 3 11 27 34 54 52 53 34 99 82 126 132 15 26 18
56 17 167 -1 140 -24 273 -60 341 -30 59 -92 115 -162 147 -80 37 -129 47
-272 57 -67 5 -118 14 -140 25 -50 25 -93 31 -262 35 -174 5 -276 -10 -378
-55 -80 -35 -146 -44 -221 -29 -47 9 -66 8 -114 -6 -41 -11 -61 -13 -68 -6 -6
6 -37 11 -69 11 -49 0 -58 3 -58 18 0 10 -5 23 -12 30 -6 6 -10 13 -7 15 2 2
65 38 139 81 327 190 448 289 603 495 29 39 70 83 92 99 99 71 139 146 116
213 -6 18 -11 41 -11 51 0 56 -115 281 -217 426 -31 43 -52 89 -69 149 -14 48
-34 103 -44 123 -10 19 -21 56 -25 82 -4 26 -13 49 -21 52 -8 3 -14 14 -14 24
0 17 -17 45 -84 141 l-29 41 27 25 c32 30 33 51 4 59 -49 13 -79 6 -107 -24
l-27 -30 -21 22 c-11 13 -24 39 -28 58 -4 19 -15 53 -25 75 -10 23 -21 61 -25
85 -19 115 -81 253 -183 406 -77 115 -251 314 -275 314 -29 0 -136 61 -177
101 -24 24 -56 49 -69 55 -14 6 -36 32 -51 59 -30 59 -70 88 -159 115 -36 11
-88 34 -116 52 -69 46 -93 94 -104 207 -4 50 -13 97 -20 104 -8 11 -8 22 0 46
15 42 6 119 -27 241 -46 169 -73 330 -67 399 4 41 0 90 -12 146 -21 101 -15
143 27 191 27 30 30 41 29 91 -1 40 -7 63 -20 77 -22 25 -33 64 -20 72 18 11
9 129 -15 202 -14 41 -21 74 -15 77 16 11 10 61 -11 80 -28 26 -25 45 8 45 35
0 119 40 155 74 29 27 69 105 61 118 -3 4 -20 -3 -37 -16 -54 -40 -96 -57
-146 -58 -62 -2 -111 26 -111 63 0 15 -6 32 -14 39 -8 6 -16 21 -18 33 -2 14
-9 21 -19 19 -24 -4 -42 73 -28 120 14 51 68 128 109 156 44 29 45 46 3 50
-74 7 -196 -93 -227 -186 -10 -29 -22 -50 -27 -47 -4 3 1 26 13 50 l22 45 -24
25 c-13 14 -28 25 -34 25 -21 1 -56 38 -56 59 0 12 5 21 10 21 6 0 10 8 10 18
0 11 9 27 20 37 11 10 20 31 20 46 0 15 5 31 10 34 14 9 12 21 -6 40 -15 15
-15 17 1 29 13 9 16 19 10 32 -4 10 -7 27 -6 38 2 10 -7 28 -19 41 -11 12 -20
27 -18 33 2 5 -5 18 -14 29 -10 10 -32 35 -49 56 -18 21 -53 49 -79 62 -25 13
-52 31 -59 39 -15 18 -29 20 -51 7z m-1497 -4913 c31 -54 54 -116 113 -303 26
-82 65 -183 87 -224 49 -93 47 -118 -14 -243 -5 -10 -9 -27 -9 -38 0 -23 -100
-260 -110 -260 -3 0 -34 34 -70 76 -35 42 -110 126 -167 186 l-103 109 0 72
c0 50 6 85 20 115 11 24 25 62 31 84 l11 42 21 -34 c16 -25 22 -55 26 -129 l6
-96 30 0 c25 0 34 7 53 45 21 40 23 54 18 125 -5 69 -3 84 14 110 22 33 25 70
10 110 -23 61 -32 166 -20 231 7 35 16 64 21 64 4 0 19 -19 32 -42z m2841
-165 c51 -79 68 -245 40 -382 -15 -72 65 -71 99 1 29 63 38 118 40 262 l2 145
66 -68 c37 -38 92 -87 123 -111 51 -37 63 -54 107 -142 27 -56 49 -110 49
-122 0 -11 -16 -36 -35 -55 -115 -118 -220 -258 -357 -475 -24 -37 -85 -121
-136 -185 -69 -86 -102 -119 -127 -128 -19 -7 -46 -20 -60 -29 -32 -21 -34 -3
-5 44 25 40 25 53 1 83 -10 13 -20 33 -22 44 -3 11 -17 26 -32 33 -16 8 -27
21 -27 33 0 11 -25 88 -56 172 -80 216 -95 272 -85 316 22 94 95 321 102 314
11 -12 13 -61 5 -133 -5 -42 -4 -81 3 -108 12 -44 47 -77 73 -67 11 5 16 -14
25 -97 12 -115 35 -168 84 -193 53 -28 58 -17 58 133 1 75 5 160 10 187 43
242 51 295 51 353 0 37 -9 100 -19 140 -11 39 -15 72 -10 72 5 0 20 -17 33
-37z m-3335 -250 c14 3 29 -2 44 -16 19 -18 22 -29 17 -60 -4 -20 -9 -40 -12
-43 -7 -6 -118 76 -118 87 0 4 5 19 12 33 10 23 12 24 23 9 8 -10 20 -14 34
-10z"/>
</g>
</svg>
