<?xml version="1.0" standalone="no"?>
<!DOCTYPE svg PUBLIC "-//W3C//DTD SVG 20010904//EN"
 "http://www.w3.org/TR/2001/REC-SVG-20010904/DTD/svg10.dtd">
<svg version="1.0" xmlns="http://www.w3.org/2000/svg"
 width="640.000000pt" height="1280.000000pt" viewBox="0 0 640.000000 1280.000000"
 preserveAspectRatio="xMidYMid meet">
<metadata>
Created by potrace 1.15, written by Peter Selinger 2001-2017
</metadata>
<g transform="translate(0.000000,1280.000000) scale(0.100000,-0.100000)"
fill="#000000" stroke="none">
<path d="M1140 12783 c0 -175 48 -1169 150 -3113 39 -739 63 -1244 78 -1646 8
-199 8 -202 35 -234 28 -33 32 -47 19 -66 -8 -12 -95 23 -209 85 -58 31 -62
36 -55 60 9 34 9 31 -16 606 -12 270 -29 645 -37 835 -9 190 -29 626 -45 970
-16 344 -39 857 -50 1140 -11 283 -27 691 -35 905 -15 379 -23 445 -51 445
-23 0 -23 61 10 -855 29 -778 58 -1374 71 -1445 6 -30 36 -663 40 -835 2 -66
6 -158 9 -205 21 -299 66 -1297 66 -1468 l0 -73 -30 16 c-39 20 -96 19 -172
-5 -34 -11 -68 -20 -74 -20 -26 0 -39 452 -15 532 12 43 17 48 50 54 32 6 180
60 190 70 10 9 -24 34 -47 34 -14 0 -80 -18 -148 -41 -68 -22 -135 -39 -150
-37 -28 3 -28 3 30 66 71 76 181 255 203 331 14 49 15 74 5 206 -16 204 -20
185 32 185 25 0 47 4 51 9 14 24 -82 42 -113 22 -7 -4 -20 -51 -29 -104 -16
-94 -15 -97 6 -146 11 -27 21 -56 21 -64 0 -37 -36 -124 -100 -242 -62 -114
-81 -140 -156 -210 -99 -94 -113 -127 -71 -169 20 -20 36 -26 67 -26 37 0 43
3 53 30 10 27 36 42 38 23 0 -5 2 -75 4 -158 3 -82 8 -209 13 -282 7 -119 10
-135 31 -157 l24 -26 43 40 c24 22 55 42 71 45 15 4 34 9 42 11 8 3 34 2 58
-2 38 -5 46 -12 63 -44 17 -34 29 -41 114 -74 52 -21 109 -50 127 -66 24 -24
35 -28 49 -20 29 16 42 12 38 -12 -9 -62 -115 -62 -236 0 -44 23 -93 42 -108
42 l-27 0 22 -24 c30 -32 148 -85 211 -95 29 -5 72 -6 96 -3 40 4 44 3 44 -17
0 -16 6 -21 25 -21 24 0 25 3 25 56 l0 56 25 -16 c30 -20 35 -20 35 -1 0 8
-11 25 -25 39 -14 14 -25 33 -25 43 0 10 -14 38 -30 63 -27 41 -39 80 -24 80
3 0 20 -10 36 -22 34 -24 67 -89 68 -132 0 -24 2 -27 15 -16 20 16 19 73 -2
117 -19 41 -66 73 -105 73 -24 0 -28 4 -28 28 0 30 -16 267 -25 375 -6 64 -5
67 18 76 19 8 29 25 45 78 27 88 69 167 144 270 32 46 64 96 69 112 6 16 17
32 25 35 8 3 14 15 14 26 0 32 27 78 50 85 12 4 31 -1 48 -13 51 -35 136 -63
229 -74 51 -7 95 -9 98 -6 4 3 -5 28 -18 55 -25 50 -97 354 -97 411 0 18 -5
41 -12 52 -11 17 -5 41 6 29 8 -8 56 -198 81 -321 14 -66 30 -127 36 -134 6
-8 22 -39 34 -71 l24 -58 -21 -22 c-20 -21 -20 -24 -6 -67 13 -40 13 -47 1
-58 -21 -17 -13 -111 12 -137 11 -14 15 -26 10 -38 -5 -10 -11 -45 -15 -77 -6
-58 -6 -59 26 -78 26 -16 33 -28 44 -80 19 -87 79 -205 144 -282 31 -36 52
-66 46 -66 -5 0 -21 -18 -35 -40 -22 -35 -28 -39 -55 -34 -26 6 -32 2 -47 -26
-10 -18 -28 -45 -40 -60 -13 -15 -23 -38 -23 -50 0 -27 -16 -58 -48 -93 -21
-22 -32 -26 -57 -21 -30 5 -33 3 -53 -45 -31 -71 -29 -108 6 -128 l29 -17 -24
-34 c-12 -19 -23 -43 -23 -54 0 -12 -11 -23 -29 -29 -36 -13 -61 -69 -61 -138
0 -42 3 -49 26 -60 19 -8 24 -16 19 -29 -11 -27 -81 -390 -121 -625 -12 -70
-12 -92 -3 -103 20 -24 85 46 93 101 4 23 12 50 19 59 9 13 12 -54 13 -316 0
-354 7 -428 56 -578 35 -108 95 -210 135 -229 17 -8 23 -22 28 -77 7 -64 2
-222 -12 -361 l-6 -63 -34 0 c-31 0 -36 -4 -55 -47 -21 -48 -22 -114 -2 -240
7 -43 6 -43 -24 -43 -16 0 -40 -8 -52 -18 -46 -37 -7 -88 82 -106 27 -6 27 -7
22 -74 -9 -113 -13 -131 -40 -148 -20 -13 -27 -14 -40 -4 -21 18 -14 55 10 55
30 0 31 23 2 36 -20 9 -32 9 -51 1 -37 -17 -33 -58 10 -106 l35 -39 -25 -31
c-35 -42 -75 -126 -75 -156 0 -59 51 -87 98 -54 40 28 42 5 7 -72 -34 -74 -34
-77 -18 -104 15 -26 15 -30 -7 -65 -19 -31 -24 -58 -31 -166 -5 -71 -13 -157
-19 -192 -5 -34 -10 -114 -10 -177 0 -63 -9 -196 -20 -295 -24 -219 -25 -344
-4 -697 9 -150 14 -354 12 -453 -3 -174 -4 -182 -30 -225 -14 -25 -30 -63 -33
-85 -11 -59 -32 -94 -57 -95 -5 0 -8 24 -8 53 0 29 -7 105 -16 168 -22 162
-28 337 -26 704 2 367 2 371 47 606 59 311 63 421 19 514 -30 65 -109 115
-180 115 -19 0 -22 10 -37 157 -10 87 -18 205 -18 263 -1 118 -8 161 -26 168
-16 5 -17 -140 -3 -238 5 -36 14 -143 20 -238 9 -147 8 -177 -5 -201 -34 -68
-119 -95 -149 -48 -14 22 -17 71 -32 526 l-7 193 22 -7 c15 -4 36 2 65 19 37
21 52 25 89 20 63 -9 91 0 140 45 23 21 57 42 74 46 52 11 87 84 48 99 -8 3
-15 1 -15 -5 0 -24 -50 -59 -84 -59 -29 0 -38 -6 -56 -35 -26 -41 -48 -55 -89
-55 -51 0 -63 38 -72 230 -26 575 -36 694 -94 1190 -46 389 -45 376 -54 522
-8 116 -20 166 -40 154 -11 -7 7 -288 28 -436 54 -370 93 -751 101 -987 4
-133 11 -247 15 -253 4 -7 11 -94 15 -193 3 -100 10 -189 14 -198 11 -24 -52
-60 -109 -62 -39 -2 -48 2 -75 31 -22 24 -36 32 -48 27 -70 -29 -112 -26 -142
10 -19 22 -17 111 5 220 25 133 35 373 38 920 2 527 -14 1102 -32 1163 -9 28
-7 38 10 61 20 27 20 30 5 263 -9 130 -16 265 -16 300 0 70 -19 113 -41 91 -9
-9 -9 -41 0 -137 6 -70 11 -163 11 -209 0 -45 5 -122 10 -171 10 -81 9 -92
-10 -131 -18 -38 -20 -50 -10 -106 5 -35 10 -154 10 -264 0 -110 4 -238 10
-285 14 -124 15 -821 2 -1140 -8 -205 -16 -300 -31 -374 -12 -54 -21 -114 -21
-134 0 -43 35 -118 61 -132 10 -6 53 -9 95 -8 71 3 77 1 95 -22 28 -38 37
-111 44 -377 l7 -241 -34 -7 c-23 -5 -53 -28 -101 -78 l-69 -72 6 -55 c4 -30
26 -145 51 -255 24 -110 53 -263 65 -340 12 -77 31 -177 41 -223 14 -61 19
-121 19 -228 0 -92 5 -167 14 -203 8 -31 17 -100 20 -153 4 -53 13 -145 21
-204 9 -59 20 -180 25 -268 5 -89 12 -177 16 -197 5 -32 4 -37 -17 -42 -13 -4
-55 -34 -94 -67 -38 -33 -81 -63 -95 -67 -58 -14 -109 -46 -135 -84 -14 -22
-36 -45 -50 -51 -32 -14 -35 -28 -45 -218 l-8 -165 38 -50 c34 -44 53 -57 157
-104 203 -93 352 -138 529 -161 111 -14 355 -15 434 -1 101 17 158 13 281 -18
63 -16 143 -35 179 -41 36 -6 115 -22 177 -35 130 -29 172 -30 268 -9 238 52
358 75 495 94 85 11 202 30 260 41 86 18 123 20 205 14 182 -13 297 -1 432 44
93 31 297 132 403 200 52 34 103 61 113 61 10 0 20 8 24 18 3 9 13 25 20 34
16 18 25 168 12 204 -4 12 -3 40 3 63 8 30 8 45 0 53 -6 6 -9 30 -6 57 8 68
-11 171 -35 187 -16 12 -18 18 -9 42 15 40 4 74 -30 94 -21 13 -31 28 -35 54
-9 57 10 179 48 302 19 62 37 136 41 165 3 29 16 68 29 87 12 20 26 51 30 70
4 19 20 60 35 90 15 30 33 73 40 95 7 22 21 54 31 71 30 50 51 169 53 296 l1
117 -51 73 c-59 85 -116 126 -190 134 -46 6 -52 10 -89 62 -78 109 -190 172
-304 172 -57 0 -60 1 -79 35 -33 55 -114 64 -120 12 -3 -21 1 -27 17 -27 11 0
23 4 26 10 3 5 13 10 21 10 10 0 14 -12 14 -40 0 -45 0 -46 41 -24 26 13 32
13 42 1 7 -8 50 -22 96 -32 77 -17 87 -23 138 -72 31 -29 59 -53 63 -53 5 0
13 -13 18 -29 13 -37 47 -60 92 -62 55 -4 119 -46 141 -93 10 -23 29 -53 41
-69 33 -40 36 -132 9 -233 -34 -126 -110 -350 -156 -464 -24 -58 -55 -159 -69
-225 -14 -66 -32 -149 -40 -185 -9 -36 -16 -104 -16 -152 l0 -87 36 -27 c33
-26 35 -31 30 -67 -8 -51 -27 -85 -65 -122 -25 -23 -35 -27 -49 -19 -39 24
-59 121 -38 182 10 27 -14 31 -40 5 -13 -14 -15 -29 -11 -80 5 -53 11 -69 36
-94 16 -16 33 -38 36 -49 8 -26 27 -25 76 2 26 16 42 33 47 53 5 16 16 31 25
33 20 4 19 17 19 -250 -1 -177 -3 -200 -21 -236 -49 -96 -271 -233 -496 -306
-116 -37 -193 -46 -330 -37 -132 9 -225 1 -349 -30 -49 -12 -139 -24 -226 -28
-128 -7 -162 -13 -290 -51 -191 -55 -290 -62 -481 -30 -73 12 -183 38 -244 58
-104 35 -117 37 -245 37 -74 0 -175 -1 -225 -3 -49 -2 -162 -2 -250 1 -211 6
-275 21 -558 139 -130 54 -151 66 -177 101 -40 55 -44 88 -26 195 9 51 16 105
16 121 0 38 99 132 167 157 28 10 73 41 108 74 33 31 74 66 92 78 l32 22 33
-20 c18 -11 41 -20 50 -20 33 0 28 20 -11 39 -22 12 -43 26 -46 32 -4 6 -9 52
-11 102 -2 51 -9 139 -14 197 -6 58 -17 192 -25 298 -8 106 -24 233 -35 282
-15 68 -20 127 -20 242 0 101 -6 177 -16 223 -8 39 -29 133 -45 210 -16 77
-48 216 -70 308 -23 93 -39 171 -36 173 8 8 89 -19 92 -30 52 -210 78 -332 90
-421 7 -60 24 -171 35 -245 12 -74 30 -191 41 -260 11 -69 24 -213 29 -320 5
-107 16 -226 24 -265 8 -38 20 -146 26 -240 13 -197 17 -218 31 -209 14 8 5
153 -23 359 -11 83 -23 233 -28 335 -5 113 -18 245 -34 340 -14 85 -26 175
-26 200 0 25 -9 95 -21 156 -11 60 -22 143 -24 185 -1 46 -11 99 -24 133 -11
31 -21 75 -21 97 0 22 -8 56 -19 77 -42 84 -52 78 130 86 88 4 162 6 164 4 2
-2 -5 -53 -16 -113 -27 -150 -36 -533 -19 -786 9 -130 9 -191 2 -205 -7 -14
-7 -25 1 -39 6 -11 14 -83 17 -160 6 -133 5 -154 -4 -144 -11 10 -40 233 -42
314 -1 50 -6 126 -13 170 -15 107 -38 395 -51 640 -6 110 -12 218 -13 239 -2
45 -23 60 -32 23 -8 -28 18 -402 45 -652 10 -99 24 -258 30 -354 6 -96 17
-209 25 -250 15 -80 35 -356 35 -478 0 -43 5 -75 11 -79 9 -5 10 33 5 148 -4
85 -4 172 0 193 7 38 7 38 17 15 5 -14 13 -124 16 -245 l7 -220 -66 -98 c-89
-133 -110 -175 -110 -217 0 -63 17 -75 112 -78 58 -3 112 3 178 17 52 12 109
21 127 21 49 0 121 28 192 74 62 40 64 44 132 179 64 127 71 137 93 131 21 -5
26 -1 36 30 6 20 20 41 30 46 20 11 34 68 45 180 8 86 30 163 54 184 14 12 20
37 25 94 8 89 3 110 -30 123 -31 11 -31 44 0 174 14 58 24 128 24 165 -1 50 5
80 26 130 15 36 34 85 41 110 8 25 41 133 74 240 72 235 95 321 112 419 8 46
21 84 34 100 22 26 45 124 45 190 0 26 -5 34 -27 42 l-28 9 3 148 c4 181 10
250 24 279 8 17 8 26 -2 37 -10 13 -7 24 18 62 17 25 43 77 58 116 15 38 36
74 47 79 33 19 59 95 65 194 2 49 9 96 15 104 7 8 14 99 18 235 5 186 10 230
27 281 22 64 60 232 93 409 11 59 27 122 36 139 9 17 19 62 23 99 7 59 34 128
46 116 2 -3 8 -60 14 -129 17 -202 58 -557 96 -818 29 -199 33 -249 24 -272
-9 -20 -9 -45 -1 -98 8 -51 8 -77 0 -98 -7 -15 -13 -82 -14 -148 -2 -93 -11
-158 -39 -290 -92 -424 -101 -516 -93 -910 4 -236 -5 -568 -17 -602 -4 -8 -18
-7 -56 4 -65 19 -71 13 -98 -80 -52 -179 -42 -220 74 -301 l28 -20 -54 -18
c-90 -30 -155 -90 -217 -199 l-38 -67 -56 -5 c-30 -2 -91 -19 -135 -37 -43
-18 -105 -43 -138 -55 -56 -21 -86 -47 -67 -59 18 -11 111 14 202 55 66 29
107 42 143 43 l51 1 12 -50 c7 -27 17 -51 22 -53 5 -2 30 -19 55 -38 26 -20
56 -34 73 -34 15 0 42 -4 59 -9 19 -5 53 -5 85 1 104 18 88 48 -26 48 -127 0
-204 38 -226 109 -9 31 -8 49 6 96 29 100 157 208 265 222 l40 6 0 -45 c0
-106 -25 -137 -59 -74 -9 16 -21 28 -26 28 -20 -2 -16 -44 6 -68 21 -22 41
-30 119 -48 l26 -5 -4 -103 c-3 -95 -6 -107 -36 -158 -42 -69 -47 -100 -30
-166 12 -46 11 -58 -2 -98 -14 -42 -14 -49 1 -90 10 -25 15 -60 13 -77 -4 -23
2 -42 18 -67 16 -23 24 -49 24 -77 0 -37 5 -47 45 -84 24 -22 49 -41 55 -41 6
0 26 -16 46 -35 21 -21 44 -35 59 -35 39 0 104 35 174 95 36 30 72 57 82 60 9
3 24 24 34 46 13 27 31 47 56 59 35 19 49 42 49 86 0 12 7 27 15 34 8 7 22 38
31 69 8 31 24 73 35 93 15 29 18 48 13 90 -5 46 -1 62 25 120 17 38 36 68 41
68 6 0 10 -4 10 -9 0 -16 118 -137 153 -156 29 -15 47 -41 99 -141 59 -115 62
-124 46 -140 -28 -29 -103 -29 -220 0 -113 28 -153 32 -163 16 -17 -28 181
-82 307 -84 88 -1 126 18 142 72 7 25 4 36 -18 64 -14 19 -39 63 -55 99 -43
92 -58 111 -143 178 -101 79 -145 152 -140 227 3 45 7 52 25 52 41 0 112 15
139 28 42 21 178 64 204 64 32 0 271 125 312 164 79 73 162 220 162 287 0 38
-26 4 -60 -80 -27 -67 -42 -90 -105 -150 -93 -91 -112 -93 -78 -9 29 72 40
161 24 202 -7 16 -15 26 -18 22 -4 -3 -10 -53 -13 -111 -6 -94 -10 -109 -41
-162 -38 -63 -93 -103 -144 -103 l-29 0 41 43 c57 59 75 101 80 182 5 84 -6
73 -36 -39 -24 -87 -26 -91 -94 -166 -39 -43 -55 -54 -87 -57 l-40 -5 29 64
c16 34 32 77 36 93 6 30 6 30 -13 10 -11 -11 -30 -51 -42 -88 -20 -62 -27 -71
-74 -102 -28 -19 -64 -37 -80 -41 l-29 -7 31 55 c34 59 44 111 18 89 -8 -7
-17 -27 -20 -46 -6 -30 -71 -104 -82 -92 -2 2 3 42 10 89 12 75 30 126 46 129
3 0 27 2 53 4 59 3 93 26 127 86 21 37 25 60 28 151 4 107 4 107 -21 119 -35
16 -103 -2 -184 -47 l-61 -34 -12 34 c-20 61 -126 146 -194 156 -53 7 -55 24
-22 156 13 54 27 128 31 164 4 36 14 77 21 92 8 15 14 49 14 75 0 26 9 68 20
92 11 24 20 56 20 72 0 16 21 72 46 126 27 56 50 122 54 153 5 30 15 73 24 95
8 22 15 72 16 111 0 45 5 77 14 90 14 18 16 17 31 -21 9 -22 20 -50 25 -63 5
-12 21 -28 35 -34 22 -10 29 -9 48 10 19 20 22 35 25 130 4 105 -5 159 -54
328 -5 18 0 22 31 27 46 7 65 23 65 52 0 28 -14 40 -67 56 -24 6 -43 16 -43
20 0 11 39 35 70 44 68 18 80 27 80 58 0 19 -9 41 -25 57 l-25 26 34 76 c42
89 60 186 47 251 -11 59 -21 71 -71 86 -35 10 -40 15 -40 42 0 17 16 168 35
336 19 168 35 308 35 310 0 2 31 2 69 1 56 -1 74 2 99 20 55 40 124 126 158
197 47 99 68 192 94 410 26 227 42 307 76 389 25 57 26 71 25 206 -2 161 -7
231 -23 303 -7 33 -7 52 0 59 19 19 34 -32 42 -155 5 -67 16 -180 24 -252 9
-71 16 -152 16 -180 l0 -50 -18 34 c-19 39 -42 52 -42 25 0 -29 39 -147 60
-181 14 -24 27 -33 46 -33 24 0 26 3 21 33 -17 103 -28 204 -42 386 -17 211
-36 341 -61 399 -12 30 -17 34 -41 28 -16 -4 -34 -8 -41 -9 -10 -1 -13 30 -16
133 -2 97 -8 155 -23 205 -31 110 -74 215 -87 215 -21 0 -52 43 -65 90 -17 61
-106 206 -130 213 -28 7 -57 55 -42 70 17 17 13 39 -19 99 -29 53 -32 56 -76
61 -32 3 -55 13 -72 30 l-25 26 24 38 c43 67 64 122 79 211 8 47 7 55 -12 74
-18 18 -20 28 -14 82 5 49 11 65 32 82 26 21 26 22 21 130 -5 102 -7 109 -27
112 -25 4 -33 22 -50 114 -17 91 -8 114 26 64 30 -44 155 -329 185 -422 12
-36 35 -81 51 -100 52 -58 154 -239 186 -326 16 -46 35 -115 41 -154 8 -53 28
-106 76 -206 44 -90 74 -168 91 -238 14 -56 39 -136 55 -176 16 -41 45 -128
64 -193 19 -66 52 -168 74 -228 48 -136 71 -235 71 -307 0 -47 4 -59 26 -80
l27 -24 -32 -40 c-45 -55 -60 -115 -72 -277 -6 -83 -18 -166 -29 -204 -11 -35
-20 -80 -20 -99 0 -20 -18 -74 -41 -123 -24 -54 -39 -100 -37 -116 3 -25 8
-28 43 -31 55 -4 101 28 144 101 19 32 35 56 37 54 12 -12 45 -229 49 -322 5
-101 8 -119 30 -151 14 -20 25 -42 25 -49 0 -14 31 -25 68 -25 42 0 71 94 103
342 14 114 41 167 96 192 64 30 79 73 65 178 -7 46 -12 135 -12 198 0 97 -5
131 -30 220 -42 150 -41 160 20 187 43 19 50 26 50 50 0 16 -12 46 -27 68 -21
31 -28 56 -33 120 -4 44 -12 93 -19 108 -6 16 -11 72 -11 125 0 53 -16 225
-35 382 -19 157 -40 326 -45 375 -6 50 -13 100 -15 112 -5 19 0 22 37 25 l43
3 -1 65 c-1 83 -30 148 -112 252 -33 42 -75 101 -92 131 l-31 55 42 21 c40 21
69 22 69 2 0 -5 -11 -12 -25 -15 -35 -9 -31 -26 5 -26 32 0 50 22 50 63 0 32
-17 38 -65 21 -22 -7 -41 -11 -43 -9 -2 2 3 16 11 32 22 44 28 82 17 103 -15
28 -37 25 -54 -8 -8 -16 -22 -34 -30 -41 -17 -14 -14 -22 -39 109 -21 110 -43
177 -80 245 l-32 60 -47 -1 -47 0 -52 138 c-28 76 -70 177 -94 224 l-42 87 28
16 c18 10 29 24 29 38 0 36 -168 188 -187 169 -4 -3 16 -30 45 -59 49 -50 79
-102 64 -110 -4 -3 -25 -10 -47 -17 -117 -37 -220 -109 -382 -264 -71 -68
-114 -103 -117 -95 -19 57 -76 484 -76 565 0 49 -20 88 -34 66 -9 -15 12 -268
40 -469 13 -100 24 -189 24 -199 0 -14 -7 -16 -52 -10 -66 9 -142 47 -218 108
-33 26 -81 61 -107 77 -82 51 -259 287 -288 384 -39 131 -27 265 36 389 58
115 164 235 262 296 26 16 61 48 77 71 17 23 36 41 43 41 24 0 57 -46 83 -116
13 -37 31 -78 39 -90 8 -12 72 -69 142 -127 193 -158 199 -164 281 -281 85
-121 118 -152 151 -141 19 6 16 12 -43 83 -35 42 -83 107 -108 144 -24 36 -67
83 -94 103 -27 21 -65 52 -84 69 -19 18 -53 45 -75 61 -69 49 -124 107 -131
139 -3 17 -14 40 -24 51 -10 11 -36 46 -57 77 -43 64 -106 118 -137 118 -12 0
-27 -9 -34 -20 -17 -28 -41 -25 -79 12 -22 22 -46 33 -75 37 -40 6 -45 10 -75
66 -55 104 -95 104 -187 -1 -60 -67 -80 -77 -91 -44 -9 27 -63 56 -78 41 -6
-6 -18 -11 -28 -11 -13 0 -19 18 -29 90 -10 71 -18 94 -36 111 -19 18 -24 33
-24 73 0 48 1 49 13 26 23 -46 92 -39 156 16 32 28 47 35 66 30 16 -4 44 2 74
15 48 20 49 21 53 72 2 29 12 64 22 80 16 23 25 27 66 27 40 0 55 6 99 41 28
22 51 47 51 54 0 8 23 42 50 76 53 66 53 66 50 115 -1 17 10 60 24 94 27 67
32 110 16 139 -7 14 -5 23 10 36 16 14 20 31 20 80 0 34 5 76 10 92 17 46 -37
206 -81 243 l-33 27 17 41 c30 76 21 100 -50 136 -25 12 -33 23 -33 42 0 35
-84 161 -120 179 -15 8 -67 24 -116 36 -49 12 -106 30 -126 40 -29 15 -60 19
-140 19 -77 0 -109 4 -126 15 -15 11 -33 14 -56 10 -20 -4 -36 -2 -40 4 -15
24 -80 31 -151 16 -38 -8 -85 -15 -103 -15 -18 0 -56 -12 -85 -26 -108 -54
-247 -136 -247 -146 0 -6 -11 -24 -26 -40 -14 -17 -28 -44 -31 -60 -4 -20 -14
-33 -32 -39 -17 -6 -32 -24 -43 -49 -9 -22 -23 -40 -32 -40 -9 0 -22 -15 -29
-32 -8 -18 -39 -63 -70 -99 -56 -65 -96 -137 -97 -171 0 -10 -15 -38 -34 -62
-48 -64 -70 -128 -69 -200 2 -56 2 -103 -1 -286 -1 -68 2 -77 84 -235 18 -33
35 -67 39 -75 16 -31 113 -80 158 -80 81 0 187 -79 169 -126 -2 -6 -28 -25
-57 -40 -43 -24 -54 -36 -64 -69 -7 -22 -25 -66 -39 -99 -15 -32 -30 -75 -34
-95 -7 -34 -10 -36 -52 -39 -35 -3 -53 -11 -87 -43 -38 -35 -48 -39 -93 -39
-45 0 -55 -4 -81 -32 -16 -18 -40 -48 -52 -66 -18 -27 -26 -32 -47 -27 -80 20
-100 18 -158 -18 -31 -19 -82 -42 -112 -52 -30 -10 -71 -26 -91 -36 -57 -28
-226 -252 -304 -401 -16 -32 -33 -58 -37 -58 -5 0 -8 22 -8 50 0 52 -20 452
-45 905 -53 952 -85 1611 -89 1797 -2 101 -7 152 -16 163 -17 20 -30 19 -30
-2z m2130 -73 c8 -5 12 -11 10 -12 -3 -2 -17 -12 -32 -21 -16 -10 -28 -24 -28
-32 0 -21 6 -19 65 14 l53 30 103 -10 c128 -11 170 -22 208 -55 26 -22 31 -23
39 -9 13 24 72 10 130 -29 50 -33 96 -109 107 -177 6 -34 5 -36 -34 -49 -23
-7 -58 -27 -79 -44 -41 -35 -70 -36 -97 -6 -23 25 -14 36 36 43 22 3 43 8 46
11 13 12 -8 36 -32 36 -43 0 -81 -27 -104 -72 l-21 -43 0 33 c0 74 48 122 122
122 34 0 48 4 48 14 0 20 -28 28 -78 20 l-44 -7 7 47 c8 53 -6 62 -29 18 -16
-31 -90 -102 -106 -102 -5 0 -17 -14 -25 -31 -15 -28 -15 -33 1 -56 l17 -26
19 39 c39 81 53 63 18 -27 -22 -59 -55 -99 -82 -99 -17 0 -18 6 -13 53 11 100
15 114 41 138 31 29 64 90 64 119 0 26 -17 60 -31 60 -6 0 -7 -13 -4 -33 6
-28 0 -42 -44 -102 -48 -66 -51 -73 -51 -132 0 -70 -14 -88 -42 -53 -25 30
-23 49 13 136 17 40 29 79 27 86 -8 24 -58 -44 -76 -104 -10 -32 -21 -55 -25
-52 -15 16 -5 81 18 122 24 42 25 62 4 62 -5 0 -19 -16 -30 -35 -25 -42 -55
-48 -45 -10 4 14 2 25 -4 25 -5 0 -12 -12 -15 -27 -7 -30 -9 -35 -38 -76 -11
-15 -21 -45 -24 -67 -5 -38 -7 -40 -22 -26 -13 14 -14 21 -2 49 23 57 24 67 8
67 -20 0 -36 -21 -43 -59 -14 -70 -48 -43 -38 31 3 26 3 52 -1 58 -10 16 -45
-18 -45 -44 -1 -26 -97 -73 -114 -56 -5 5 -12 39 -14 74 -4 57 -2 65 17 75 12
7 21 18 21 26 0 10 10 15 28 15 26 0 27 -2 23 -42 -3 -38 -2 -41 13 -29 9 7
16 21 16 31 0 9 11 22 25 28 26 12 53 57 42 69 -4 4 -20 -6 -35 -20 -16 -15
-31 -25 -34 -21 -13 12 16 66 48 91 25 18 33 31 29 44 -6 17 -1 19 47 19 29 0
60 -4 68 -10z m-262 -51 c-27 -48 -15 -65 18 -24 44 56 54 65 70 65 28 0 -15
-57 -109 -142 l-87 -80 20 -33 c11 -18 20 -45 20 -60 0 -15 11 -41 25 -57 43
-51 -1 -70 -49 -21 -27 27 -37 54 -33 88 2 16 -3 19 -25 17 -44 -4 -32 35 30
101 31 31 33 37 16 37 -46 0 -94 -61 -94 -120 0 -23 6 -33 25 -40 19 -7 25
-17 25 -38 0 -35 28 -73 75 -102 39 -24 41 -28 22 -54 -13 -17 -16 -16 -65 14
-32 19 -54 41 -58 56 -7 27 -24 23 -24 -7 0 -12 -4 -17 -11 -14 -6 4 -9 30 -8
59 3 47 1 52 -24 64 -38 18 -35 53 8 101 19 21 35 45 35 52 0 20 58 69 81 69
27 0 24 15 -6 28 -32 15 -32 27 1 48 27 18 124 44 137 37 4 -3 -2 -22 -15 -44z
m-206 -89 c-12 -16 -22 -34 -22 -39 0 -6 -11 -17 -23 -26 -31 -20 -47 -56 -47
-106 0 -34 5 -43 30 -57 36 -20 37 -24 8 -37 -33 -14 -47 -75 -24 -109 9 -14
23 -26 31 -26 20 0 19 -9 -5 -45 -28 -42 -25 -69 12 -111 25 -28 29 -39 21
-52 -5 -10 -19 -17 -29 -17 -16 0 -20 9 -22 48 -3 46 -4 49 -28 43 -31 -8 -41
14 -27 64 7 29 6 44 -5 66 -16 30 -12 56 19 131 12 29 11 34 -5 46 -22 16 -18
53 10 113 16 33 16 35 -7 54 -24 20 -24 20 -5 35 26 19 44 19 48 -1 2 -11 14
0 36 31 25 35 36 45 45 36 8 -8 5 -19 -11 -41z m-135 -92 c-21 -59 -30 -121
-19 -138 9 -15 8 -26 -3 -54 -17 -40 -19 -83 -6 -118 11 -32 -1 -170 -16 -175
-26 -9 -34 35 -18 90 l16 52 -28 22 c-15 13 -40 23 -54 23 -33 0 -54 44 -50
103 2 28 18 19 42 -23 16 -29 29 -40 46 -40 16 0 23 6 23 20 0 14 -7 20 -24
20 -18 0 -25 7 -30 31 -8 40 2 79 20 79 9 0 14 -12 14 -37 0 -54 8 -36 19 41
10 73 32 116 57 116 9 0 14 -6 11 -12z m659 -114 c-3 -26 -6 -60 -6 -75 0 -19
-5 -29 -15 -29 -22 0 -38 39 -32 82 6 43 22 68 45 68 12 0 14 -9 8 -46z m692
-35 c5 -40 -38 -64 -115 -64 -89 -1 -84 33 7 54 25 5 50 17 55 26 16 24 49 14
53 -16z m-933 11 c3 -5 -6 -19 -20 -32 -33 -29 -33 -52 0 -45 20 3 25 1 23
-12 -5 -23 -49 -27 -65 -5 -18 25 -16 47 8 78 21 27 43 34 54 16z m-310 -119
c-10 -34 -25 -24 -25 16 0 34 1 36 16 21 10 -10 14 -23 9 -37z m481 24 c11 -8
41 -14 72 -15 51 0 122 -26 137 -50 10 -16 45 -12 72 10 33 26 40 25 47 -5 3
-13 26 -37 49 -54 40 -27 43 -32 39 -65 -5 -43 19 -86 48 -86 24 0 26 22 5 40
-22 18 -18 43 10 70 34 32 32 50 -6 50 l-30 0 20 26 c12 15 21 31 21 35 0 16
-37 9 -63 -11 -29 -23 -42 -13 -33 25 13 51 125 57 172 9 23 -22 24 -25 9 -47
-21 -32 -56 -135 -59 -177 -2 -19 -11 -53 -21 -75 -9 -22 -19 -76 -22 -120 -5
-76 -9 -86 -70 -195 -36 -63 -77 -131 -91 -150 -15 -19 -36 -55 -48 -80 -12
-25 -42 -71 -68 -103 -26 -31 -58 -81 -71 -111 -19 -43 -34 -60 -70 -81 -49
-29 -117 -35 -169 -15 -36 13 -44 6 -21 -19 26 -30 116 -47 155 -31 17 7 33
10 36 7 4 -3 9 -26 11 -50 l5 -44 -51 -22 c-153 -66 -404 -50 -573 35 -43 22
-47 26 -36 43 9 15 9 52 0 163 -16 190 -15 222 9 367 16 98 18 134 10 171 -7
32 -7 69 -1 111 18 113 15 108 60 102 47 -7 87 15 96 52 5 20 -2 34 -35 70
-22 24 -41 49 -41 54 0 22 23 22 55 0 28 -20 33 -28 28 -51 -5 -24 -2 -28 15
-28 14 0 27 11 37 30 9 17 20 30 24 30 5 0 24 31 43 70 18 38 36 69 40 70 4 0
23 -13 41 -30 19 -16 46 -30 59 -30 37 0 76 35 89 81 13 42 32 49 65 24z m-96
-12 c0 -13 -33 -43 -48 -43 -12 0 -10 6 8 25 23 24 40 32 40 18z m868 -53 c24
-24 41 -48 39 -55 -3 -6 -28 -41 -57 -79 -54 -70 -60 -99 -12 -53 32 30 42 33
42 13 0 -8 -18 -30 -40 -49 -46 -39 -49 -47 -19 -47 31 0 85 62 94 107 l8 38
12 -29 c18 -43 3 -75 -66 -141 -33 -32 -58 -60 -55 -63 3 -3 29 9 57 26 27 18
52 32 55 32 2 0 4 -13 4 -30 0 -22 -5 -30 -17 -30 -10 0 -36 -16 -57 -35 -22
-19 -43 -35 -47 -35 -5 0 -11 16 -15 35 -3 19 -8 35 -9 35 -23 0 -35 -17 -35
-51 0 -45 -19 -96 -44 -122 -45 -44 -49 4 -5 59 45 56 15 57 -33 0 -29 -33
-47 -46 -66 -46 -24 0 -20 7 51 74 76 72 77 74 77 123 0 27 16 107 36 177 19
70 34 135 32 144 -2 13 -12 16 -40 14 -36 -3 -55 9 -43 28 3 6 30 9 58 7 46
-3 57 -8 95 -47z m-1548 11 c17 -33 12 -53 -11 -49 -27 4 -44 30 -36 52 9 22
34 20 47 -3z m363 8 c60 -31 85 -82 53 -108 -11 -10 -20 -10 -38 0 -35 18 -47
40 -48 82 0 41 2 42 33 26z m1084 -66 c11 -27 -13 -37 -57 -24 -46 14 -53 38
-12 43 38 5 63 -2 69 -19z m-1437 -33 c18 0 19 -3 10 -20 -15 -28 -62 -26 -96
3 -18 16 -25 29 -21 41 6 15 10 15 46 -4 22 -11 50 -20 61 -20z m80 -43 c0
-54 24 -97 54 -97 7 0 13 -13 13 -32 0 -18 4 -45 8 -60 6 -24 4 -28 -13 -28
-21 0 -32 18 -32 53 0 13 -12 39 -26 60 -28 42 -40 92 -30 131 11 44 26 28 26
-27z m-181 7 c35 -30 37 -40 13 -71 -25 -32 -44 -15 -52 46 -3 28 -3 51 1 51
4 0 21 -12 38 -26z m1486 -16 c-12 -39 -47 -89 -59 -85 -15 5 -20 75 -5 93 6
8 25 14 41 14 26 0 29 -3 23 -22z m-1355 -57 c5 -11 17 -27 26 -36 16 -15 15
-18 -9 -42 -22 -22 -28 -24 -41 -13 -16 13 -23 90 -9 103 11 12 22 8 33 -12z
m188 -18 c-2 -20 -9 -29 -24 -31 -29 -4 -41 28 -18 45 30 22 46 16 42 -14z
m-350 -9 c26 -18 31 -71 7 -80 -25 -10 -45 16 -45 57 0 43 5 46 38 23z m102
-61 c14 -37 26 -70 28 -74 1 -3 -9 -11 -24 -18 -32 -14 -50 -3 -59 41 -7 29
11 118 24 118 3 0 17 -30 31 -67z m1410 42 c0 -34 -73 -99 -83 -73 -2 7 0 21
5 30 11 23 78 60 78 43z m-1536 -80 c17 -13 18 -21 10 -77 l-9 -63 -35 0 c-28
0 -37 5 -48 28 -7 15 -12 44 -10 65 l3 37 24 -37 c12 -21 30 -38 38 -38 11 0
10 6 -6 26 -42 53 -17 97 33 59z m310 -110 c-4 -27 -11 -58 -16 -69 -16 -29
-27 0 -16 40 9 36 2 60 -26 84 -9 7 -16 19 -16 27 0 10 10 8 40 -9 l40 -23 -6
-50z m1196 70 c0 -9 -30 -65 -34 -65 -3 0 -11 -3 -20 -6 -26 -10 -20 42 6 60
22 16 48 21 48 11z m-1272 -33 c15 -23 15 -24 -14 -20 -22 2 -30 9 -32 26 -5
31 24 27 46 -6z m-118 -2 c39 -4 45 -9 49 -30 1 -14 -2 -48 -9 -76 -9 -38 -10
-56 -1 -72 9 -16 9 -26 0 -40 -9 -15 -7 -32 10 -82 12 -34 19 -65 16 -68 -12
-12 -44 33 -55 79 -7 27 -16 49 -20 49 -5 0 -24 -9 -44 -20 l-34 -21 -16 23
c-9 12 -16 35 -16 49 0 20 -9 33 -34 49 -39 24 -56 58 -35 71 21 13 51 -12 79
-64 21 -40 29 -47 56 -47 16 0 39 7 50 16 18 14 17 15 -18 9 -30 -5 -39 -2
-52 17 -9 12 -16 35 -16 51 0 24 3 28 18 22 28 -13 82 -18 82 -8 0 5 -15 13
-32 18 -21 6 -38 21 -46 38 -15 32 -9 63 10 50 7 -4 33 -10 58 -13z m1600 -40
c0 -5 0 -13 1 -17 0 -6 -74 -32 -93 -33 -18 0 -5 20 25 39 34 22 67 27 67 11z
m-1484 -36 c-3 -9 -6 -20 -6 -26 0 -6 -6 -6 -15 2 -22 18 -18 40 6 40 15 0 19
-4 15 -16z m1502 -31 c2 -9 -7 -13 -30 -13 -18 0 -39 -4 -47 -9 -24 -15 -2
-30 34 -24 30 5 34 3 29 -11 -7 -17 -68 -23 -91 -8 -22 14 -2 50 35 66 42 17
63 17 70 -1z m-1509 -39 c36 -30 38 -40 11 -47 -24 -6 -56 19 -65 51 -9 31 15
29 54 -4z m1361 6 c0 -16 -61 -80 -91 -96 -26 -13 -29 -13 -29 1 0 8 17 23 38
34 22 11 46 31 56 45 17 27 26 33 26 16z m-1639 -30 c18 -10 26 -49 13 -63
-13 -13 -64 27 -64 50 0 25 19 30 51 13z m1499 2 c0 -14 -23 -32 -42 -32 -21
0 -23 11 -6 28 13 13 48 16 48 4z m234 -38 c21 -8 21 -53 -1 -61 -15 -6 -46
21 -55 49 -2 6 -30 -15 -62 -48 -57 -58 -85 -63 -50 -9 37 57 116 89 168 69z
m-1454 -54 c-16 -29 -30 -24 -30 10 0 28 2 30 20 20 16 -9 18 -15 10 -30z
m-274 -1 c7 -13 -49 -59 -60 -49 -4 4 -5 21 -2 38 6 24 11 28 32 24 13 -2 27
-8 30 -13z m1720 -19 c17 0 19 -40 2 -62 -7 -9 -26 -18 -43 -20 -29 -4 -30 -3
-30 37 0 40 16 58 43 49 8 -2 20 -4 28 -4z m-236 -30 c0 -18 -26 -35 -34 -22
-2 4 0 17 5 30 10 26 29 21 29 -8z m-1375 -56 c19 -51 16 -61 -15 -44 -27 14
-53 74 -45 101 6 19 8 19 25 4 10 -9 25 -36 35 -61z m35 49 c6 -16 15 -36 20
-45 8 -14 7 -18 -4 -18 -19 0 -35 22 -42 58 -8 40 12 44 26 5z m-121 -40 c5
-30 15 -43 44 -62 36 -24 48 -53 26 -67 -6 -3 -16 -1 -22 5 -15 15 -27 14 -27
-4 0 -42 -63 24 -79 82 -14 49 -5 55 14 10 21 -52 40 -60 32 -14 -20 108 -20
112 -7 100 7 -7 16 -29 19 -50z m1601 32 c0 -23 -46 -88 -67 -96 -14 -5 -27
-8 -29 -6 -2 2 1 19 6 39 7 25 20 40 43 52 34 16 47 19 47 11z m-30 -124 c0
-13 -50 -51 -66 -51 -27 0 -14 31 19 45 38 17 47 18 47 6z m36 -29 c-23 -23
-33 -6 -10 19 12 13 20 16 22 9 3 -7 -3 -19 -12 -28z m-216 -2 c-12 -22 -40
-27 -40 -7 0 19 10 27 32 27 16 0 17 -3 8 -20z m50 -50 c-6 -12 -26 -30 -43
-40 -36 -22 -59 -27 -36 -7 9 6 31 32 50 57 24 31 35 39 37 28 2 -10 -2 -26
-8 -38z m-1058 -349 c34 -27 293 -84 358 -79 51 3 68 -7 28 -17 -40 -10 -212
2 -248 18 -19 8 -60 20 -90 27 -64 14 -100 34 -100 55 0 21 23 19 52 -4z m-63
-34 c17 -16 73 -38 161 -63 119 -34 148 -39 240 -39 116 0 238 25 279 57 37
29 80 21 50 -9 -6 -6 -71 -26 -145 -44 l-135 -33 -127 19 c-70 10 -154 19
-187 20 -66 2 -120 22 -172 61 -27 21 -32 29 -22 40 16 20 29 18 58 -9z m646
-28 c-22 -10 -58 -18 -80 -18 l-40 0 40 19 c22 10 58 18 80 18 l40 0 -40 -19z
m-651 -55 c53 -28 89 -39 146 -45 41 -4 130 -15 197 -24 142 -19 199 -12 326
37 51 20 82 27 89 20 5 -5 13 -34 17 -65 l7 -56 -71 -35 c-104 -51 -179 -61
-480 -61 -247 0 -263 1 -315 23 -88 35 -85 27 -44 133 40 103 42 109 51 109 4
0 38 -16 77 -36z m1185 -131 c17 -21 31 -44 31 -52 0 -16 -340 -351 -357 -351
-14 0 -63 57 -63 74 0 7 46 55 103 108 56 53 134 132 172 176 39 44 73 81 77
81 3 1 20 -16 37 -36z m-284 -29 l25 -26 -21 -29 c-11 -16 -27 -32 -35 -37
-25 -14 -144 -133 -144 -144 0 -6 23 -47 50 -93 28 -46 50 -87 50 -92 0 -5
-49 -59 -109 -120 -60 -61 -114 -120 -120 -132 -9 -17 -21 -21 -59 -21 -26 0
-71 -6 -100 -14 -45 -11 -55 -11 -73 2 -11 8 -74 41 -140 73 l-119 59 2 89 c3
72 0 92 -14 108 -14 15 -16 31 -11 94 3 42 2 79 -3 82 -5 3 -72 12 -149 21
-145 17 -240 37 -258 55 -13 13 77 101 103 101 10 0 53 -17 96 -37 85 -41 56
-37 424 -59 55 -4 125 -1 168 6 93 15 269 71 342 109 70 36 67 36 95 5z m115
-19 c-13 -14 -26 -23 -28 -20 -7 7 29 45 41 45 6 0 0 -11 -13 -25z m291 -15
c10 -6 26 -25 35 -42 l16 -32 -53 -49 c-30 -27 -77 -70 -104 -96 -33 -30 -77
-92 -128 -178 -43 -73 -82 -135 -87 -138 -5 -3 -32 16 -60 43 -75 73 -74 78
78 226 70 68 161 158 202 199 41 41 76 76 78 76 2 1 12 -4 23 -9z m159 -56 c0
-19 -28 -49 -79 -83 -44 -30 -169 -156 -198 -200 -2 -2 -6 -2 -9 2 -14 14 34
83 94 135 36 31 88 78 116 104 45 42 76 59 76 42z m-1885 -64 c14 -12 87 -29
231 -54 116 -20 214 -36 218 -36 8 0 8 -58 0 -87 -5 -19 -13 -23 -49 -23 -77
0 -218 30 -355 76 -74 24 -141 49 -149 53 -11 7 -6 18 25 54 40 46 44 47 79
17z m1295 2 c0 -5 -9 -17 -20 -27 -22 -20 -26 -14 -10 16 11 19 30 26 30 11z
m-1400 -106 c59 -30 193 -73 355 -113 33 -8 98 -18 145 -21 l85 -7 3 -46 c2
-28 -5 -68 -16 -100 -61 -167 -73 -195 -91 -208 -12 -7 -21 -22 -21 -33 0 -43
-220 -228 -256 -214 -7 3 -39 -2 -71 -10 -42 -11 -98 -14 -203 -12 -169 3
-196 -5 -231 -75 -12 -23 -29 -51 -39 -62 -9 -11 -34 -65 -55 -120 -80 -210
-148 -335 -183 -335 -9 0 -41 16 -70 36 -29 20 -56 34 -59 30 -16 -15 25 -63
79 -91 l56 -29 41 19 c35 15 47 16 81 6 21 -6 42 -16 45 -22 7 -11 -89 -186
-127 -232 l-23 -27 -49 35 c-27 19 -64 38 -83 41 -19 4 -36 12 -38 18 -2 6
-11 209 -20 451 -8 242 -18 457 -21 477 -5 31 -2 39 20 53 14 10 31 36 41 64
18 55 77 155 179 304 41 59 77 113 80 120 3 8 8 7 16 -6 15 -23 47 -17 99 19
44 30 97 31 176 4 32 -11 77 -20 101 -20 24 0 46 -5 49 -10 4 -6 27 -21 53
-35 59 -30 33 -32 -63 -5 -122 35 -195 50 -247 50 -28 0 -49 -3 -46 -6 3 -3
61 -18 129 -34 179 -41 283 -76 379 -127 68 -36 91 -43 117 -38 18 3 33 8 33
11 0 21 -48 89 -90 127 -68 61 -240 149 -300 153 -52 4 -120 23 -120 35 0 16
36 29 65 24 17 -3 59 -20 95 -39z m-183 -27 c15 -6 61 -15 101 -20 80 -9 181
-52 267 -113 72 -52 32 -44 -55 10 -41 26 -90 53 -109 61 -42 18 -181 43 -238
43 -41 0 -65 14 -41 23 22 9 45 7 75 -4z m1798 -229 c-21 -58 -45 -165 -45
-198 -1 -24 -2 -25 -12 -8 -17 30 -2 121 32 193 34 73 49 81 25 13z m-149 -91
c28 -38 34 -56 34 -95 0 -31 9 -69 25 -103 14 -30 30 -86 35 -124 19 -131 97
-253 240 -375 103 -87 216 -156 326 -197 101 -38 124 -56 103 -81 -42 -51
-366 43 -564 163 -134 82 -232 179 -330 328 -79 121 -185 343 -185 388 0 6 16
23 35 36 19 13 65 59 102 102 l67 79 39 -38 c21 -20 54 -58 73 -83z m-714 -82
l107 -58 6 -47 c3 -26 8 -55 10 -66 2 -11 -3 -20 -15 -23 -12 -3 -28 -33 -50
-96 -52 -146 -105 -253 -185 -372 -149 -222 -248 -326 -376 -395 -72 -38 -116
-40 -125 -5 -11 42 4 73 64 134 50 51 69 82 131 215 72 158 111 277 111 347 0
52 11 77 59 129 27 30 50 71 67 120 15 41 36 99 47 128 10 29 24 52 30 50 7
-2 60 -29 119 -61z m397 -136 c0 -61 -5 -56 -32 34 -18 58 -12 78 15 46 13
-17 18 -39 17 -80z m-74 79 c-3 -5 -23 -10 -43 -10 -28 0 -33 3 -22 10 20 13
73 13 65 0z m-132 -19 c-17 -15 -23 -30 -23 -62 0 -23 -3 -39 -7 -35 -13 13
-2 90 15 103 27 20 39 14 15 -6z m157 -47 c6 -14 10 -100 10 -192 0 -156 2
-170 25 -219 23 -51 23 -53 5 -63 -10 -5 -39 -10 -64 -10 -79 0 -107 53 -87
165 17 89 13 136 -14 209 -40 105 -32 139 22 96 39 -30 63 -26 63 10 0 38 26
41 40 4z m118 -170 c67 -134 128 -222 226 -320 100 -99 155 -138 307 -215 160
-80 266 -112 379 -113 98 -2 120 -7 120 -31 0 -43 -164 -32 -319 21 -153 53
-222 86 -334 161 -172 114 -293 244 -377 404 -25 48 -47 79 -60 82 -16 4 -20
13 -20 44 0 22 3 43 7 46 17 17 32 1 71 -79z m-272 40 c33 -78 13 -239 -39
-316 -14 -19 -32 -59 -42 -89 -24 -74 -77 -170 -140 -254 -84 -112 -245 -288
-284 -311 -20 -11 -73 -46 -117 -77 -106 -74 -170 -103 -190 -86 -42 34 -41
89 1 89 25 0 116 52 185 105 215 166 288 238 339 336 19 35 52 83 73 106 22
22 53 65 69 95 79 147 109 217 115 263 l6 50 -40 -87 c-22 -47 -54 -108 -72
-135 -18 -26 -80 -118 -138 -203 -124 -185 -129 -190 -260 -294 -165 -129
-203 -155 -240 -166 -42 -11 -52 -7 -52 26 0 20 9 29 47 46 25 11 67 36 93 54
26 19 54 34 63 34 22 0 213 192 279 280 113 153 190 308 240 489 23 80 23 81
56 81 28 0 35 -5 48 -36z m-544 -69 c3 -3 -1 -22 -8 -43 -7 -20 -13 -55 -14
-77 0 -51 -10 -85 -22 -85 -11 0 -7 43 13 143 13 63 18 74 31 62z m-66 -72
c-14 -100 -58 -241 -100 -328 -48 -97 -128 -197 -143 -180 -9 9 -22 124 -39
340 l-6 80 36 44 c20 23 36 47 36 52 0 5 28 9 63 10 34 0 80 6 102 14 58 19
58 19 51 -32z m870 -34 c82 -154 182 -258 359 -378 127 -86 193 -121 327 -171
121 -45 149 -50 265 -53 65 -2 86 -6 100 -20 17 -18 17 -19 -10 -43 -24 -21
-38 -24 -100 -24 -93 0 -123 9 -297 88 -256 115 -354 184 -561 392 -134 135
-146 150 -152 190 -7 53 1 102 17 97 6 -2 29 -37 52 -78z m-1192 43 c6 -11
-44 -112 -56 -112 -7 0 -8 16 -3 46 6 44 6 45 -14 34 -24 -12 -41 -43 -72
-127 -12 -32 -33 -74 -46 -93 -12 -19 -23 -40 -23 -47 0 -7 -11 -20 -24 -28
-13 -9 -36 -34 -51 -55 -31 -45 -40 -47 -90 -23 -33 16 -36 20 -31 48 4 16 26
72 50 125 24 52 47 105 51 117 9 32 43 71 77 89 45 23 221 43 232 26z m2878
-109 c9 -10 19 -33 23 -51 4 -19 20 -48 36 -66 15 -18 33 -44 38 -58 19 -51
73 -269 68 -274 -3 -3 -24 9 -47 27 -67 54 -166 50 -311 -15 -13 -6 -23 12
-54 96 -21 57 -46 123 -57 147 -18 42 -18 45 -1 64 26 29 126 95 186 123 62
28 98 30 119 7z m-2892 -121 c5 -20 10 -48 9 -62 -1 -24 -1 -24 -14 5 -7 17
-16 47 -19 68 -9 50 9 41 24 -11z m999 -8 c17 -25 45 -51 61 -57 35 -13 40
-38 40 -195 0 -137 24 -378 46 -452 22 -80 40 -163 57 -266 15 -92 41 -164 59
-164 11 0 6 51 -11 115 -43 161 -94 432 -107 558 -7 82 -18 176 -23 210 -5 34
-8 89 -7 121 3 57 4 60 39 78 25 12 37 25 37 39 0 17 16 7 80 -52 128 -117
271 -230 359 -283 101 -61 311 -152 399 -172 65 -15 177 -15 228 1 20 6 21 4
16 -44 -4 -47 -3 -51 17 -51 19 0 21 6 21 55 0 32 4 55 10 55 7 0 10 -24 8
-62 -3 -54 -6 -64 -26 -73 -29 -13 -30 -19 -36 -158 -5 -108 -8 -124 -41 -196
-31 -69 -34 -83 -24 -105 7 -14 10 -28 7 -31 -3 -3 -106 -7 -229 -9 -125 -2
-242 -9 -264 -15 -42 -12 -194 -26 -430 -41 -86 -5 -169 -16 -215 -29 -41 -11
-93 -21 -116 -21 -22 0 -96 -16 -164 -35 -68 -19 -153 -37 -189 -41 -36 -3
-96 -15 -133 -27 -56 -17 -71 -19 -90 -9 -44 24 -139 194 -184 329 -14 43 -34
90 -45 105 -37 52 -25 78 48 106 76 29 373 240 373 265 0 7 16 24 35 40 19 15
49 49 66 75 18 26 53 70 78 97 33 36 69 98 126 217 44 92 83 168 86 168 3 0
20 -21 38 -46z m-1054 -190 c32 -141 42 -223 25 -207 -15 14 -59 168 -66 228
-2 22 -9 55 -14 75 -5 19 -10 49 -9 65 1 29 1 29 21 -13 10 -24 30 -90 43
-148z m1205 177 c0 -11 -25 -21 -53 -21 -21 1 -21 1 3 15 29 16 50 19 50 6z
m1399 -68 c7 -15 33 -81 57 -148 62 -168 58 -164 133 -119 88 52 132 60 188
33 57 -28 150 -118 159 -154 4 -16 1 -51 -6 -79 -20 -78 -105 -282 -150 -360
-53 -91 -47 -102 70 -158 154 -73 312 -198 278 -219 -7 -5 -48 -20 -92 -34
-88 -29 -199 -40 -265 -28 l-44 8 -58 162 c-44 126 -69 181 -113 245 -36 55
-59 101 -66 136 -7 31 -17 52 -25 52 -7 0 -18 15 -24 33 -6 17 -36 73 -66 122
-49 82 -95 194 -138 342 l-16 52 76 71 c42 38 80 70 83 70 4 0 12 -12 19 -27z
m-2689 0 c0 -9 17 -83 37 -165 20 -81 33 -151 30 -155 -15 -14 -36 24 -46 82
-6 33 -17 92 -25 130 -18 81 -20 125 -6 125 6 0 10 -8 10 -17z m-15 -138 c8
-32 15 -86 15 -119 0 -51 -2 -58 -13 -46 -26 28 -61 186 -51 227 10 37 30 11
49 -62z m-213 8 c56 -31 60 -53 15 -87 -26 -19 -30 -19 -70 -6 -24 9 -43 22
-45 32 -4 21 27 88 40 88 6 0 32 -12 60 -27z m163 -78 c10 -36 15 -68 12 -71
-11 -11 -37 5 -46 28 -9 27 -3 108 9 108 4 0 16 -29 25 -65z m-69 -43 c-12
-12 -18 8 -10 35 l8 28 4 -28 c2 -16 1 -31 -2 -35z m3484 -9 c0 -24 -64 -254
-92 -329 -35 -96 -48 -92 -28 10 22 112 95 326 111 326 5 0 9 -3 9 -7z m27
-110 c-3 -10 -20 -64 -37 -121 -36 -123 -52 -163 -80 -203 -34 -47 -40 -33
-10 24 16 28 47 112 70 185 23 72 46 132 52 132 6 0 8 -8 5 -17z m54 -206 c22
-125 60 -215 129 -307 52 -69 74 -110 60 -110 -14 0 -53 20 -60 31 -7 10 -151
51 -278 79 l-103 22 -23 -21 c-22 -21 -71 -30 -64 -12 2 6 35 34 73 64 104 80
165 178 211 341 21 76 29 63 55 -87z m-3923 61 c46 -28 57 -53 37 -84 -8 -13
-18 -24 -21 -24 -2 0 -27 11 -54 25 -49 25 -50 26 -50 71 0 45 0 46 28 39 15
-3 42 -16 60 -27z m4018 -110 c-9 -12 -16 -33 -16 -46 0 -31 -17 -19 -25 16
-4 22 0 35 22 59 24 27 28 29 31 12 2 -10 -4 -29 -12 -41z m-4043 -20 l25 -23
-32 -88 c-18 -48 -35 -84 -39 -81 -4 4 -7 54 -7 111 0 113 7 123 53 81z m2925
-287 c-19 -31 -28 -26 -15 9 6 17 15 26 20 21 5 -5 3 -18 -5 -30z m1045 -92
c23 -12 63 -37 89 -56 26 -18 67 -41 93 -49 50 -17 77 -50 50 -60 -31 -12 -84
8 -156 58 -41 29 -128 82 -193 118 -66 36 -121 70 -123 77 -4 12 165 -50 240
-88z m32 51 c55 -21 118 -43 141 -49 34 -9 44 -18 59 -50 9 -22 16 -44 13 -51
-2 -6 -43 10 -103 41 -55 29 -138 71 -185 94 -47 22 -96 46 -110 53 -61 30 90
-1 185 -38z m-1108 -182 c59 -65 153 -212 141 -223 -2 -1 -38 -14 -82 -29
-187 -62 -447 -91 -694 -76 -135 8 -148 11 -219 44 -41 20 -84 36 -94 36 -10
0 -59 -18 -108 -40 -160 -72 -458 -124 -711 -123 -190 0 -204 3 -194 46 17 79
79 164 136 186 15 6 78 17 140 26 158 22 213 34 261 55 23 10 152 36 287 59
376 61 554 78 876 80 l221 1 40 -42z m128 -66 c-9 -9 -55 40 -48 51 4 6 16 -2
30 -18 13 -15 22 -30 18 -33z m930 -32 c-34 -23 -118 -50 -149 -49 -19 0 146
67 169 68 6 1 -3 -8 -20 -19z m156 -24 l35 -24 12 -159 c7 -88 26 -282 42
-432 17 -150 33 -339 37 -419 4 -105 10 -154 21 -170 18 -28 11 -35 -48 -52
-40 -11 -240 -13 -256 -2 -6 4 -50 138 -98 297 -48 160 -130 422 -182 584 -53
161 -94 294 -92 296 2 2 60 8 130 14 150 14 211 30 264 71 45 34 78 33 135 -4z
m-491 -26 c20 -7 16 -8 -22 -9 -27 -1 -48 4 -48 9 0 12 34 12 70 0z m127 -6
c-3 -3 -12 -4 -19 -1 -8 3 -5 6 6 6 11 1 17 -2 13 -5z m-621 -146 c31 -37 51
-81 70 -153 12 -45 12 -51 -3 -63 -25 -18 -73 -29 -203 -47 -63 -9 -182 -35
-265 -58 l-150 -42 -175 1 c-179 0 -272 14 -341 49 -28 15 -34 14 -109 -14
-100 -39 -291 -77 -452 -91 -125 -11 -252 -5 -482 21 -49 5 -138 13 -198 18
-60 5 -111 11 -114 13 -9 9 95 194 120 212 24 18 31 19 103 8 325 -49 805 8
963 115 44 29 69 29 128 -1 85 -43 234 -58 461 -46 321 16 333 18 501 79 47
17 92 31 102 31 9 0 29 -15 44 -32z m-2248 -66 c2 -14 -2 -22 -11 -22 -17 0
-30 27 -21 41 9 16 29 4 32 -19z m-168 -182 c0 -12 -7 -35 -16 -51 -12 -25
-18 -28 -30 -18 -19 16 -18 32 7 63 25 31 39 33 39 6z m2596 -64 c26 -57 59
-181 68 -258 5 -41 3 -48 -12 -48 -9 0 -26 -3 -38 -6 -20 -5 -22 0 -31 104
-11 124 -27 162 -69 162 -22 0 -25 -3 -20 -22 17 -62 18 -68 7 -68 -6 0 -11 7
-11 16 0 13 -11 15 -70 12 -39 -2 -70 0 -70 3 0 12 25 27 68 40 50 15 73 36
48 45 -15 6 -128 -29 -152 -47 -10 -8 -9 -54 2 -88 3 -11 7 -11 19 -1 13 10
19 10 33 -4 25 -22 48 -20 65 4 13 19 16 19 43 5 16 -8 36 -15 45 -15 11 0 18
-18 25 -72 10 -66 9 -74 -8 -86 -10 -7 -18 -24 -18 -38 0 -28 -19 -38 -72 -38
-36 -1 -38 -2 -38 -33 l0 -33 -97 0 c-92 0 -101 -2 -142 -30 -55 -37 -69 -38
-77 -2 -3 15 -7 32 -9 39 -7 20 15 26 121 34 62 4 114 14 134 24 58 30 23 37
-112 24 -68 -7 -131 -10 -139 -7 -11 4 -19 34 -27 98 -15 109 -21 123 -69 153
-36 23 -40 23 -116 11 -43 -7 -87 -20 -97 -29 -21 -19 -20 -34 16 -199 13 -60
24 -123 24 -141 0 -36 13 -45 60 -45 41 0 60 10 60 31 0 22 -35 43 -61 36 -10
-3 -19 -2 -19 1 0 4 -3 17 -6 30 -5 19 -3 22 17 20 18 -2 25 2 27 20 2 13 -2
30 -9 38 -10 13 -14 13 -29 -1 -16 -15 -19 -14 -29 16 -6 18 -11 44 -11 59 0
25 4 28 45 33 26 4 55 2 69 -5 31 -13 54 -5 65 24 9 23 9 23 20 -5 6 -16 11
-43 11 -61 0 -17 7 -58 15 -89 8 -32 14 -79 14 -105 -1 -26 -4 -37 -6 -26 -4
21 -40 44 -67 44 -20 0 -27 -26 -16 -56 6 -14 10 -27 10 -29 0 -2 -23 -6 -50
-10 -28 -4 -57 -14 -65 -22 -28 -27 -13 -173 17 -173 4 0 8 11 8 25 0 14 4 25
9 25 13 0 29 -48 36 -108 9 -84 41 -156 85 -196 22 -20 45 -36 50 -36 22 0 59
49 66 86 5 27 1 59 -15 113 -12 42 -19 77 -14 78 35 13 37 20 25 95 -7 40 -13
81 -15 90 -1 13 16 26 59 47 l62 29 11 -76 c6 -43 20 -165 31 -272 11 -107 29
-240 39 -295 19 -99 32 -324 35 -607 1 -113 4 -140 18 -154 15 -15 17 -15 27
5 7 12 8 27 4 34 -4 6 -11 147 -14 312 -5 235 -10 311 -23 350 -20 63 -31 144
-56 420 -11 121 -23 237 -26 258 l-7 37 65 0 c41 0 71 -5 84 -15 29 -22 33
-19 36 36 l3 51 63 20 c59 18 74 30 52 43 -21 13 -8 23 35 27 45 3 46 3 56
-35 13 -51 7 -83 -9 -44 -7 17 -19 27 -32 27 -24 0 -24 -3 -4 -41 12 -23 14
-46 9 -92 -5 -47 -2 -82 14 -144 31 -120 28 -133 -33 -133 -45 0 -57 21 -67
116 -13 116 -33 168 -54 135 -12 -20 15 -185 37 -230 23 -45 24 -46 83 -54 54
-6 62 -5 78 14 22 28 22 78 -3 164 -21 75 -25 122 -11 144 5 7 14 11 20 7 24
-15 42 -117 51 -296 9 -173 9 -187 -9 -210 -18 -26 -81 -237 -100 -340 -5 -30
-13 -102 -16 -160 -13 -202 -54 -339 -124 -413 -22 -23 -56 -59 -76 -81 -34
-36 -38 -38 -83 -34 -74 8 -210 65 -257 109 -40 37 -43 43 -54 123 -21 155
-111 400 -193 528 -83 130 -207 230 -303 243 -83 12 -85 15 -85 104 l0 78 43
6 c132 18 308 -46 425 -156 52 -50 64 -50 38 2 -29 56 -138 131 -241 166 -28
10 -99 20 -160 24 l-110 6 -13 65 c-14 73 -10 105 15 115 10 4 88 10 173 14
152 8 206 20 197 44 -3 9 -29 11 -93 7 -49 -3 -139 -5 -201 -5 l-112 0 -15
-33 c-20 -40 -20 -80 -1 -202 14 -95 14 -95 -8 -112 -28 -22 -25 -22 -82 3
l-47 21 7 76 c3 42 8 98 11 124 5 45 4 47 -27 63 -36 19 -117 17 -266 -6 l-82
-13 -35 40 c-19 21 -35 46 -36 55 0 19 44 29 140 29 137 1 281 32 344 75 l37
25 82 -26 c100 -33 260 -45 291 -21 32 24 11 35 -58 30 -77 -7 -181 10 -259
42 l-59 23 -71 -38 c-97 -52 -176 -70 -321 -70 -97 0 -117 2 -113 14 3 8 8 58
12 113 3 54 8 108 10 119 3 13 -5 31 -20 48 -23 25 -23 26 -5 36 10 6 70 14
132 20 119 10 182 24 261 59 62 27 93 26 153 -1 46 -21 62 -23 239 -22 166 0
205 4 310 27 321 70 409 87 448 88 23 0 62 9 87 19 25 10 58 19 73 19 24 1 31
-6 53 -53z m-2261 -137 c88 -11 223 -23 300 -26 135 -6 164 -21 42 -22 -53 -1
-58 -3 -69 -28 -6 -17 -11 -104 -12 -215 0 -102 -4 -189 -8 -193 -15 -15 -61
7 -98 47 -42 46 -31 47 -130 -7 -53 -29 -90 -32 -90 -9 0 9 5 35 12 57 l12 40
123 -6 c92 -4 126 -2 140 8 16 12 16 14 2 20 -9 3 -73 5 -143 3 -143 -3 -135
-9 -111 82 21 77 21 164 1 196 -22 32 -44 40 -144 48 l-83 7 -21 -48 c-16 -35
-22 -75 -26 -159 -2 -62 -1 -125 3 -140 l8 -29 13 30 c7 17 13 67 14 113 0 63
3 82 14 82 7 0 19 -7 26 -15 14 -17 60 -21 60 -5 0 6 17 1 37 -10 21 -11 44
-20 52 -20 9 0 11 -7 7 -22 -4 -13 -10 -48 -13 -78 -4 -32 -13 -60 -22 -67
-24 -18 -34 -16 -28 7 6 23 4 24 -24 8 -15 -9 -23 -10 -26 -2 -2 6 -10 20 -17
30 -14 18 -15 18 -35 0 -12 -11 -21 -30 -21 -43 0 -13 -11 -41 -25 -61 -14
-20 -25 -44 -25 -52 0 -9 -13 -26 -30 -38 -37 -28 -58 -68 -81 -152 -31 -116
-20 -28 16 125 19 83 34 173 33 200 0 28 3 68 7 90 8 37 7 39 -8 26 -11 -8
-17 -28 -17 -52 0 -58 -37 -240 -76 -366 -19 -62 -34 -123 -35 -135 0 -13 -9
-41 -19 -63 l-19 -40 0 35 c-1 58 17 163 59 344 21 94 42 203 46 241 4 44 15
85 29 110 13 22 26 67 30 103 5 42 12 65 23 72 21 11 134 4 347 -21z m1646
-29 c10 -6 19 -16 19 -22 0 -7 -4 -7 -14 1 -10 9 -16 8 -26 -4 -9 -11 -22 -14
-46 -9 -19 3 -40 2 -47 -4 -8 -7 -18 -6 -31 4 -21 15 -21 16 9 32 25 14 110
15 136 2z m-1711 -39 c27 -20 34 -48 10 -42 -52 13 -63 13 -72 -3 -12 -22 -25
-20 -31 4 -7 29 -36 36 -69 17 -26 -15 -28 -15 -28 1 0 26 12 39 40 45 43 9
124 -3 150 -22z m507 -9 c-10 -10 -17 -33 -17 -51 0 -31 1 -32 30 -26 35 8 34
9 24 -118 l-7 -77 -33 -6 c-32 -6 -34 -9 -34 -45 l0 -39 -56 0 c-34 0 -53 4
-49 10 3 6 19 10 35 10 29 0 44 19 34 45 -6 15 -17 14 -60 -2 -14 -5 -29 240
-16 263 7 13 10 11 15 -14 8 -39 36 -50 59 -22 13 16 15 27 8 46 -7 18 -6 26
3 29 6 2 19 6 27 8 8 3 24 6 34 6 18 1 18 0 3 -17z m-867 -43 c0 -38 -16 -69
-35 -69 -19 0 -19 33 0 70 20 39 35 38 35 -1z m332 -303 c11 -17 -31 -28 -84
-23 -49 4 -82 22 -72 39 8 12 147 -2 156 -16z m1836 -28 c13 -17 21 -78 10
-84 -4 -3 -8 11 -8 30 l0 36 -48 0 c-27 0 -70 -6 -95 -14 -36 -11 -47 -11 -47
-2 0 13 102 43 151 45 15 0 31 -5 37 -11z m-1608 -15 c14 -9 44 -34 68 -56 24
-21 46 -37 49 -34 2 3 12 20 21 38 19 38 74 61 94 41 9 -9 4 -13 -19 -18 -47
-9 -57 -40 -60 -199 -2 -77 -6 -149 -8 -160 -2 -11 -23 -45 -46 -75 -70 -93
-73 -128 -16 -151 18 -7 33 -13 35 -15 2 -1 -11 -24 -27 -52 -75 -121 -136
-289 -165 -452 -23 -131 -38 -279 -31 -308 10 -42 25 -11 30 66 7 88 39 255
64 325 10 29 24 77 31 107 14 60 41 118 102 222 26 44 38 74 34 86 -5 15 1 22
24 32 82 34 134 147 148 320 7 95 7 95 39 110 25 11 33 21 33 42 0 50 8 58 53
52 23 -3 80 1 126 10 46 9 98 16 115 16 l33 0 -18 -107 c-42 -266 -54 -303
-95 -303 -6 0 -18 -8 -25 -17 -8 -9 -31 -29 -52 -44 -68 -50 -275 -277 -297
-327 -85 -191 -157 -415 -176 -544 -5 -42 -11 -51 -52 -78 -57 -37 -159 -70
-219 -70 -62 0 -104 23 -164 88 -87 95 -144 236 -168 413 -17 127 -15 641 3
724 27 124 42 161 79 203 24 26 37 28 37 6 0 -9 7 -31 16 -50 26 -54 0 -175
-48 -233 -15 -17 -32 -50 -38 -73 -21 -75 3 -90 91 -58 33 12 62 20 64 18 1
-1 11 -34 21 -73 17 -62 19 -111 19 -445 1 -206 2 -391 3 -410 3 -35 3 -35 15
-10 8 18 12 141 12 430 0 437 -7 520 -45 520 -30 0 -33 18 -9 51 12 17 27 49
34 72 8 23 25 70 39 104 29 71 30 80 15 120 -11 27 -12 25 -38 -57 -29 -94
-73 -170 -97 -170 -14 0 -16 8 -11 43 3 23 9 96 13 161 l7 119 23 -28 22 -28
13 22 c18 28 23 27 57 -10 37 -40 60 -34 64 18 3 35 6 38 39 44 20 3 52 15 70
27 41 26 39 26 69 5z m330 2 c11 -13 8 -15 -14 -15 -25 0 -33 10 -19 23 10 11
19 8 33 -8z m-537 -24 c7 -27 0 -31 -33 -20 -15 6 -54 9 -86 7 l-59 -3 3 -33
c2 -24 -2 -33 -10 -30 -16 5 -22 41 -14 74 6 23 10 24 100 24 84 0 94 -2 99
-19z m583 -62 l-14 -44 -1 36 c-1 19 4 40 11 47 18 18 19 9 4 -39z m-134 6 c4
-17 7 -16 17 10 11 27 14 28 25 13 9 -12 12 -63 10 -180 -1 -145 -4 -170 -24
-216 -27 -61 -74 -106 -130 -123 -65 -20 -71 0 -18 58 69 73 77 114 64 303 -7
97 -6 108 14 139 22 34 34 33 42 -4z m1175 -2 c-3 -10 -5 -4 -5 12 0 17 2 24
5 18 2 -7 2 -21 0 -30z m73 16 c0 -21 32 -20 55 1 l24 23 11 -27 c5 -15 10
-41 10 -57 0 -16 10 -68 21 -115 19 -72 20 -91 10 -125 -9 -31 -17 -39 -35
-39 -20 0 -28 12 -55 79 -17 44 -31 99 -31 121 0 25 -8 53 -19 68 -23 33 -34
69 -26 81 7 12 35 3 35 -10z m1390 -159 c19 -6 11 -8 -32 -9 -33 -1 -58 3 -58
9 0 12 54 12 90 0z m160 -64 c0 -13 12 -64 26 -112 14 -49 30 -111 35 -139 11
-58 0 -397 -12 -389 -5 3 -9 16 -9 30 0 13 -5 24 -10 24 -14 0 -30 -44 -30
-81 0 -20 -5 -29 -16 -29 -17 0 -16 24 2 101 4 17 0 31 -11 43 -28 28 -39 4
-42 -87 -1 -45 -11 -173 -22 -285 -20 -209 -35 -263 -73 -270 -15 -3 -14 4 3
59 43 139 64 422 40 547 -10 51 -17 60 -34 43 -9 -9 -12 -72 -12 -234 -1 -213
-15 -357 -36 -357 -11 0 -17 46 -23 175 -3 82 -10 124 -26 165 -14 35 -25 93
-31 160 -9 110 -30 184 -54 194 -18 6 -20 -36 -6 -97 18 -75 -78 -287 -129
-287 -15 0 -13 11 25 115 39 108 60 205 70 315 13 156 26 228 58 317 l32 92
110 4 c60 1 125 4 143 5 28 2 32 -1 32 -22z m-2266 -234 c-4 -75 -10 -144 -15
-153 -4 -9 -1 -34 8 -60 9 -25 14 -53 10 -62 -10 -25 -43 -21 -66 9 -18 23
-21 41 -21 126 0 96 1 100 32 139 24 30 32 51 36 94 2 30 8 52 13 49 5 -3 6
-67 3 -142z m97 128 c15 -9 19 -22 19 -68 0 -72 18 -184 32 -197 7 -7 8 31 3
125 l-7 135 41 -60 42 -60 -6 -80 c-4 -50 -2 -91 5 -109 9 -26 8 -32 -16 -57
-37 -39 -90 -62 -122 -54 -36 9 -41 21 -29 60 8 27 6 37 -12 62 -21 28 -22 35
-15 171 6 131 8 142 26 142 11 0 28 -5 39 -10z m-1231 -29 c0 -18 -52 -71 -70
-71 -25 0 -30 10 -19 38 12 31 89 59 89 33z m904 -188 c-140 -152 -187 -211
-254 -322 -56 -95 -127 -269 -137 -336 -6 -44 -23 -73 -23 -39 0 74 81 316
141 421 73 128 196 269 289 333 30 21 64 47 74 59 11 12 21 19 24 17 2 -3 -49
-63 -114 -133z m637 82 c48 -31 112 -97 149 -155 30 -46 84 -179 77 -187 -7
-6 -60 64 -128 169 -90 137 -118 168 -166 189 -24 10 -43 23 -43 28 0 12 58
-11 111 -44z m-83 -21 c29 -20 49 -70 58 -144 8 -75 24 -88 24 -21 0 50 4 58
26 43 13 -8 44 -66 44 -82 0 -16 -79 -48 -129 -52 -41 -3 -46 0 -63 29 -23 39
-38 132 -31 196 5 40 9 47 27 47 12 0 32 -7 44 -16z m-443 -112 c-12 -96 -16
-111 -36 -136 l-21 -26 -30 21 c-16 12 -35 32 -41 46 -10 22 -5 29 53 88 35
35 67 62 72 59 5 -3 6 -27 3 -52z m-129 -152 c34 -52 61 -58 114 -28 40 23 41
23 55 4 8 -11 15 -31 15 -45 0 -44 -27 -172 -39 -184 -6 -6 -11 -28 -11 -49 0
-21 -7 -55 -15 -74 -8 -20 -20 -77 -26 -128 -6 -50 -26 -153 -45 -228 -19 -75
-34 -146 -34 -158 0 -11 -9 -39 -20 -61 -20 -38 -29 -78 -67 -293 l-17 -99
-45 -20 c-80 -35 -181 -7 -260 72 -22 22 -42 53 -46 70 -10 46 -45 41 -103
-13 -26 -24 -56 -48 -67 -54 -35 -18 -226 -55 -236 -45 -4 4 -14 43 -20 86 -9
62 -8 112 5 264 10 104 19 195 21 203 4 12 26 15 124 15 l118 0 87 44 c74 37
90 50 108 85 11 23 34 60 49 83 16 23 29 50 29 60 0 39 42 163 84 248 48 95
182 284 203 285 7 0 25 -18 39 -40z m767 -2 c19 -15 103 -192 166 -351 64
-158 106 -207 232 -268 l60 -29 -7 -62 c-4 -34 -21 -197 -38 -362 l-31 -301
-51 1 c-29 1 -88 14 -133 29 -63 21 -84 33 -98 55 -16 28 -51 50 -78 50 -7 0
-46 -30 -85 -66 -79 -72 -138 -104 -243 -130 -91 -22 -97 -17 -97 94 0 54 -7
109 -19 151 -11 36 -22 96 -26 132 -3 37 -15 100 -26 140 -14 52 -24 146 -34
314 -8 132 -19 264 -25 294 -25 132 -2 292 39 276 9 -4 37 -9 63 -12 39 -5 58
-1 103 22 l56 27 38 -26 c47 -33 65 -33 126 4 55 32 83 36 108 18z m-1676
-1357 c11 -114 6 -182 -15 -203 -16 -16 -30 15 -46 110 -22 126 -21 161 6 189
12 13 26 23 33 23 6 0 15 -45 22 -119z m467 65 c12 -28 29 -42 101 -77 90 -45
156 -55 233 -35 28 7 32 6 32 -11 0 -10 -7 -29 -16 -41 -14 -20 -23 -22 -108
-22 -99 0 -98 0 -241 79 -62 35 -118 25 -274 -49 -72 -33 -136 -58 -141 -55
-6 3 -10 30 -10 59 l0 52 98 23 c113 27 245 75 262 96 21 26 49 18 64 -19z
m1350 -67 c37 -16 140 -46 219 -63 26 -6 28 -10 25 -48 -3 -37 -7 -43 -33 -50
-60 -17 -159 -12 -210 11 -61 27 -77 26 -128 -4 -60 -35 -157 -55 -269 -55
-109 0 -128 4 -128 30 0 28 43 56 116 74 103 26 235 101 274 156 l22 31 36
-32 c20 -18 54 -40 76 -50z m348 -70 c39 -69 8 -230 -56 -294 -15 -15 -23 -32
-20 -40 7 -18 -14 -75 -28 -75 -13 0 -3 89 23 200 11 47 23 117 25 155 3 39 8
76 10 83 6 21 25 9 46 -29z m-1704 -4 c89 -41 175 -104 217 -158 22 -28 55
-68 74 -89 32 -36 34 -43 32 -101 -2 -59 -4 -64 -56 -122 -45 -52 -74 -72
-190 -134 -76 -40 -154 -76 -175 -78 l-37 -5 4 188 c4 149 3 187 -7 177 -8 -7
-15 -66 -21 -162 -8 -150 -17 -191 -43 -191 -22 0 -190 184 -247 269 -45 67
-51 80 -46 117 2 23 16 66 30 97 25 55 27 57 129 105 57 27 132 59 168 71 36
12 72 26 80 31 21 14 29 13 88 -15z m355 -86 c22 -10 23 -15 16 -52 -8 -47
-19 -77 -26 -77 -17 0 -49 28 -83 75 -22 30 -40 57 -40 60 0 10 109 5 133 -6z
m1033 -30 c47 -18 68 -20 130 -14 62 6 75 4 80 -9 5 -12 -23 -173 -32 -184 -1
-2 -45 26 -97 62 -52 35 -121 72 -152 82 -53 17 -57 17 -83 1 -74 -48 -205
-87 -349 -103 -55 -6 -62 -4 -72 14 -17 32 -13 60 12 73 12 7 87 16 171 20
145 7 150 8 215 42 78 42 101 44 177 16z m-1936 -4 c18 -21 5 -45 -25 -45 -20
0 -25 5 -25 23 0 39 26 50 50 22z m1918 -112 c15 -10 49 -35 77 -56 27 -22 60
-43 73 -48 31 -12 44 -53 37 -118 -10 -89 -14 -101 -34 -101 -11 0 -24 -12
-31 -30 -21 -50 -94 -106 -183 -141 l-81 -31 -35 21 c-67 40 -191 101 -204
101 -8 0 -31 13 -52 30 -21 16 -55 34 -75 40 -56 15 -66 48 -51 155 14 94 6
88 126 100 136 14 234 37 277 65 51 34 115 39 156 13z m322 -172 c0 -35 -12
-51 -36 -51 -26 0 -31 18 -14 51 14 25 50 25 50 0z m-2210 -91 c-34 -131 -68
-180 -125 -180 -25 0 -17 23 50 136 36 60 68 117 71 128 4 11 9 15 16 8 6 -6
1 -39 -12 -92z m148 -70 c43 -44 76 -83 73 -85 -8 -9 -105 -3 -156 8 -39 10
-51 17 -53 34 -4 24 36 123 49 123 5 0 44 -36 87 -80z m558 -89 c-20 -39 -42
-71 -49 -71 -33 0 -118 32 -115 43 2 7 39 30 81 52 42 23 82 46 89 53 7 7 16
8 21 3 5 -5 -7 -39 -27 -80z m1454 70 c0 -24 -25 -45 -45 -37 -15 5 -21 37 -8
49 3 4 17 7 30 7 16 0 23 -6 23 -19z m-760 -47 c66 -23 198 -86 254 -122 38
-25 61 -32 98 -32 65 0 148 31 201 74 66 54 71 50 63 -45 -15 -164 -21 -174
-186 -311 -46 -38 -75 -72 -98 -116 -33 -62 -62 -81 -62 -40 0 39 -32 152 -57
202 -51 100 -185 200 -297 222 -32 5 -37 10 -32 28 3 12 10 46 17 76 18 86 25
90 99 64z m700 -145 c20 -95 28 -329 12 -329 -12 0 -62 82 -74 123 -9 28 -8
53 0 101 7 35 12 91 12 124 0 126 22 117 50 -19z m-1940 85 c41 -8 85 -13 97
-9 15 3 33 -2 52 -16 l28 -21 -18 -71 c-10 -40 -34 -168 -54 -286 -20 -117
-40 -223 -45 -235 -10 -26 -11 -23 -40 109 -40 183 -102 284 -203 330 l-47 22
33 64 c19 35 42 79 51 97 19 38 35 40 146 16z m395 -48 c28 -7 64 -20 81 -29
l32 -16 -16 -63 c-15 -60 -20 -68 -111 -153 -111 -106 -187 -205 -255 -333
-27 -51 -51 -91 -53 -89 -2 2 6 39 16 83 11 43 36 165 56 269 41 216 69 325
87 337 20 12 107 9 163 -6z m829 -127 c145 -54 241 -218 262 -447 9 -91 27
-94 60 -9 12 31 36 76 53 99 47 64 182 198 193 192 10 -7 2 -100 -13 -150 -5
-18 -18 -39 -29 -49 -15 -14 -17 -21 -7 -36 9 -15 5 -38 -22 -121 -18 -57 -41
-117 -51 -135 -19 -32 -118 -471 -141 -621 -12 -76 -14 -83 -38 -88 -183 -37
-282 -94 -332 -189 -14 -27 -30 -44 -39 -43 -8 2 -34 29 -58 61 l-44 58 12
332 c6 190 8 420 4 538 -6 174 -4 213 9 255 9 27 23 102 31 168 17 130 45 206
77 206 10 0 43 -9 73 -21z m-1350 -115 c69 -67 94 -139 136 -397 16 -99 31
-181 34 -184 12 -13 38 9 52 44 74 188 207 394 319 492 64 55 69 48 61 -85 -6
-97 -10 -119 -26 -133 -15 -12 -21 -35 -26 -93 -7 -75 -6 -77 21 -101 l28 -24
-33 -139 c-38 -160 -114 -438 -138 -503 -9 -24 -27 -57 -40 -73 -15 -18 -22
-35 -18 -45 4 -9 0 -31 -8 -48 -25 -53 -56 -164 -56 -204 0 -21 -7 -71 -16
-112 -15 -65 -16 -90 -4 -247 10 -131 11 -191 3 -236 -6 -34 -17 -95 -23 -136
-15 -93 -38 -162 -54 -157 -6 1 -33 48 -61 102 -48 96 -52 101 -107 128 -72
37 -136 45 -171 22 -41 -26 -49 -12 -46 79 1 44 -1 306 -6 581 -6 429 -5 523
9 659 9 88 16 205 16 260 1 125 34 459 51 506 17 47 39 80 54 80 6 0 28 -16
49 -36z m-426 -260 c30 -21 59 -80 63 -128 4 -36 1 -42 -30 -63 -69 -47 -132
-58 -319 -57 l-173 1 -36 35 -35 35 20 39 c26 50 77 99 125 119 l37 15 0 -27
c0 -43 34 -89 74 -103 55 -18 111 12 167 88 47 65 68 74 107 46z m1082 -59 c9
-11 10 -25 0 -65 -11 -45 -15 -50 -34 -44 -30 9 -38 19 -38 48 0 31 27 76 46
76 7 0 19 -7 26 -15z m-1007 -181 c-46 -349 -64 -548 -84 -904 -10 -187 -10
-228 4 -315 9 -55 18 -183 21 -285 3 -102 13 -231 23 -286 16 -96 16 -103 0
-128 -10 -14 -26 -26 -37 -26 -19 0 -20 7 -20 108 0 59 -9 168 -21 242 -14 97
-18 157 -14 215 4 44 2 116 -4 160 -15 108 -23 824 -11 944 6 53 17 131 26
174 16 73 19 78 58 101 47 27 62 27 59 0z m2022 -805 c69 -13 121 -37 170 -81
47 -41 65 -77 65 -133 0 -25 4 -45 8 -45 4 0 36 29 72 65 57 57 120 97 120 76
0 -4 -17 -32 -39 -62 -63 -89 -74 -116 -69 -177 5 -52 4 -55 -23 -64 -40 -14
-58 -68 -69 -216 -13 -162 -21 -194 -71 -289 -36 -69 -41 -84 -36 -128 3 -31
0 -57 -8 -70 -7 -11 -16 -42 -20 -68 -5 -35 -16 -59 -41 -86 -25 -29 -34 -47
-34 -75 0 -29 -8 -43 -45 -77 -24 -22 -47 -49 -50 -60 -4 -11 -21 -26 -38 -35
-18 -9 -45 -29 -62 -44 -82 -77 -162 -103 -185 -61 -5 11 -27 29 -47 42 -72
43 -93 69 -93 116 0 30 -6 49 -21 64 -17 17 -20 29 -16 62 3 25 0 55 -9 78
-14 34 -14 40 1 69 12 23 15 43 10 69 -16 85 -11 113 30 175 l39 59 1 171 c1
135 5 180 18 215 19 50 22 97 6 107 -20 12 -31 -13 -44 -105 -16 -105 -21
-117 -41 -100 -10 8 -14 35 -14 94 0 80 1 83 25 89 40 10 20 36 -28 36 -94 0
-177 89 -177 191 0 53 26 129 49 144 19 11 78 -57 92 -106 7 -24 13 -81 13
-127 0 -70 2 -82 15 -80 14 3 16 22 14 123 l-1 120 56 -63 c31 -34 62 -62 69
-62 15 0 33 32 33 58 0 20 117 139 160 162 22 12 113 37 146 39 6 1 37 -4 69
-10z m503 -183 c9 -109 -49 -216 -117 -216 -30 0 -31 2 -31 43 0 23 9 60 19
82 22 49 99 137 115 132 6 -2 12 -20 14 -41z m-2142 -692 c21 -10 38 -32 57
-72 l28 -57 -36 42 c-58 67 -88 81 -167 74 -56 -5 -72 -11 -97 -35 -33 -32
-50 -30 -30 2 39 63 159 86 245 46z m15 -106 c55 -66 79 -112 79 -151 0 -28
-123 -271 -154 -305 -31 -35 -73 -49 -226 -77 -75 -14 -152 -30 -171 -35 -44
-13 -125 -13 -149 0 -18 9 -18 12 1 72 14 47 29 72 62 103 30 30 50 61 67 106
16 44 34 73 58 94 20 17 81 73 137 126 114 110 143 128 202 129 40 0 45 -4 94
-62z"/>
<path d="M3296 12634 c-17 -17 -21 -40 -8 -48 11 -7 73 44 67 55 -9 14 -42 11
-59 -7z"/>
<path d="M3417 12623 c-4 -3 -7 -17 -7 -30 0 -33 24 -24 28 10 3 26 -7 35 -21
20z"/>
<path d="M3166 12558 c-18 -25 -22 -78 -6 -78 6 0 10 9 10 19 0 11 10 27 21
35 13 9 19 21 16 30 -9 22 -23 20 -41 -6z"/>
<path d="M3242 12548 c-15 -20 -24 -57 -17 -69 7 -11 11 -6 50 54 17 26 17 27
-3 27 -11 0 -24 -6 -30 -12z"/>
<path d="M3001 12451 c-6 -10 -7 -21 -4 -25 9 -8 33 14 33 30 0 20 -18 17 -29
-5z"/>
<path d="M2968 12669 c-10 -5 -22 -19 -28 -29 -9 -17 -7 -20 9 -20 13 0 27 12
36 30 16 31 12 36 -17 19z"/>
<path d="M3070 12036 c0 -19 22 -26 85 -26 46 0 58 -5 103 -40 72 -58 92 -53
49 11 -29 43 -92 68 -174 68 -48 1 -63 -2 -63 -13z"/>
<path d="M3180 11928 c0 -6 7 -19 16 -29 9 -10 13 -23 9 -28 -10 -18 -42 -13
-95 14 -80 41 -103 30 -55 -27 38 -45 33 -77 -7 -41 -17 15 -18 15 -18 -9 0
-46 66 -74 101 -42 18 16 21 17 55 1 19 -9 37 -17 39 -17 3 0 5 35 5 78 0 64
-4 82 -18 95 -22 20 -32 21 -32 5z"/>
<path d="M3481 11876 c-24 -20 -51 -40 -60 -45 -13 -8 -16 -32 -18 -151 -2
-90 -7 -148 -14 -156 -7 -8 -31 -19 -55 -25 -24 -6 -44 -13 -44 -16 0 -2 7
-20 15 -41 l16 -37 12 25 c7 14 30 35 52 47 l40 22 0 104 c0 111 10 139 45
130 22 -6 26 -33 9 -50 -33 -33 65 -46 127 -17 39 19 40 24 14 82 -13 29 -25
42 -40 42 -25 0 -26 -9 -2 -26 16 -12 16 -14 0 -30 -15 -15 -20 -14 -77 12
-33 16 -60 32 -60 36 -1 4 15 23 34 42 43 43 101 61 152 47 43 -12 53 -7 30
16 -10 10 -38 18 -75 21 -54 4 -60 2 -101 -32z"/>
<path d="M3184 11586 c-3 -8 -4 -25 -2 -38 3 -21 9 -23 61 -26 61 -3 63 -2 46
30 -8 16 -17 19 -40 14 -24 -5 -29 -2 -29 14 0 23 -28 27 -36 6z"/>
<path d="M3263 11420 l7 -32 -43 8 c-58 11 -94 9 -112 -6 -24 -20 -6 -31 41
-24 30 4 56 1 82 -9 47 -19 152 -33 152 -20 0 17 -24 33 -51 33 -31 0 -46 15
-51 49 -1 14 -9 27 -17 29 -11 4 -13 -2 -8 -28z"/>
<path d="M3234 11319 c-10 -17 7 -27 59 -32 34 -3 47 0 47 9 0 29 -90 48 -106
23z"/>
<path d="M2845 11208 c12 -39 47 -68 99 -83 71 -21 89 -20 76 5 -8 14 -21 20
-46 20 -27 0 -43 8 -74 40 -44 45 -65 52 -55 18z"/>
<path d="M3975 12089 c-9 -29 4 -38 21 -15 18 25 18 36 0 36 -8 0 -18 -9 -21
-21z"/>
<path d="M2534 10777 c-13 -34 0 -52 36 -52 31 0 35 3 38 28 3 21 -1 27 -17
27 -10 0 -26 3 -35 6 -9 4 -18 0 -22 -9z"/>
<path d="M2505 10670 c-3 -6 -3 -19 0 -30 9 -30 71 -28 78 2 9 32 -2 42 -24
22 -17 -15 -19 -15 -25 0 -7 18 -20 21 -29 6z"/>
<path d="M3540 10180 c0 -46 17 -59 54 -42 51 23 28 82 -31 82 -20 0 -23 -5
-23 -40z"/>
<path d="M2580 10196 c-6 -8 -10 -25 -8 -38 3 -20 9 -23 42 -23 53 0 71 28 37
56 -28 23 -54 24 -71 5z"/>
<path d="M2163 9823 c-32 -7 -92 -12 -134 -13 -60 0 -82 -4 -100 -19 -13 -11
-22 -22 -19 -24 3 -3 59 1 125 8 66 8 177 17 248 21 70 4 127 10 127 13 0 3
-4 11 -8 18 -10 16 -156 13 -239 -4z"/>
<path d="M4501 7255 c1 -70 11 -98 39 -112 13 -6 27 -19 32 -27 12 -22 51 -20
71 2 10 10 17 21 17 24 0 6 -63 22 -90 23 -10 0 -18 18 -25 52 -5 29 -18 60
-27 70 -17 16 -18 15 -17 -32z"/>
<path d="M4627 7023 c-4 -3 -7 -15 -7 -25 0 -17 5 -18 50 -12 51 7 72 -8 28
-20 -16 -4 -20 -8 -12 -16 19 -19 64 9 64 40 0 24 -5 28 -37 34 -49 8 -78 8
-86 -1z"/>
<path d="M4761 6524 c-17 -26 -49 -95 -72 -152 -69 -177 -96 -327 -106 -582
-4 -122 -3 -148 11 -165 14 -19 15 -13 16 78 1 272 66 581 165 777 25 49 33
76 26 83 -6 6 -20 -6 -40 -39z"/>
<path d="M4160 6391 c0 -6 13 -32 30 -58 41 -65 92 -201 141 -378 78 -286 128
-424 129 -360 0 11 -6 43 -14 70 -7 28 -32 120 -55 205 -44 167 -149 459 -180
500 -19 26 -51 39 -51 21z"/>
<path d="M2565 6818 c-10 -46 -55 -318 -79 -483 -38 -259 -57 -459 -63 -690
-6 -195 -5 -209 10 -196 14 11 17 35 17 140 0 69 7 185 14 256 31 284 97 804
111 881 8 44 15 88 15 97 0 25 -19 21 -25 -5z"/>
<path d="M3177 6500 c-20 -11 -43 -20 -50 -20 -38 0 -118 -34 -155 -66 -72
-62 -51 -73 37 -20 31 19 92 44 136 56 79 21 120 44 109 61 -9 14 -37 10 -77
-11z"/>
<path d="M3980 4328 c0 -29 -14 -120 -30 -202 -18 -87 -27 -153 -22 -158 18
-18 60 189 75 360 3 39 1 52 -9 52 -10 0 -14 -15 -14 -52z"/>
<path d="M3575 2086 c-78 -35 -123 -146 -58 -146 7 0 22 -20 33 -44 23 -56 57
-78 124 -84 l53 -4 16 39 c8 22 21 67 27 101 13 73 -1 112 -50 137 -36 18
-105 19 -145 1z m146 -45 c16 -16 29 -37 29 -46 0 -16 -2 -16 -22 -1 -58 42
-72 42 -182 0 -38 -15 2 33 46 55 60 29 93 27 129 -8z m-40 -41 c27 -15 24
-40 -5 -40 -28 0 -40 14 -32 35 6 18 11 18 37 5z m-53 -45 c22 -18 40 -25 63
-23 38 3 46 -12 30 -55 -9 -23 -16 -27 -49 -27 -25 0 -49 8 -67 22 -29 23 -59
83 -50 98 11 17 43 11 73 -15z"/>
<path d="M3914 2021 c-45 -20 -87 -69 -105 -120 -10 -28 -8 -35 16 -67 39 -50
65 -58 162 -44 l82 12 16 40 c17 44 20 33 -30 142 -16 33 -50 56 -83 56 -9 0
-36 -9 -58 -19z m104 -33 c23 -23 13 -36 -27 -36 -23 0 -64 -14 -100 -32 -74
-37 -79 -23 -14 37 40 36 54 43 88 43 23 0 46 -5 53 -12z m2 -62 c0 -20 -16
-36 -36 -36 -17 0 -24 6 -24 20 0 16 7 20 30 20 17 0 30 -2 30 -4z m50 -40 c0
-53 -79 -80 -179 -60 -38 8 -42 37 -6 60 23 15 26 15 51 -5 35 -27 55 -26 84
4 30 32 50 32 50 1z"/>
<path d="M3692 1729 c-19 -39 -31 -73 -29 -76 11 -10 48 9 63 32 17 27 24 106
9 111 -5 2 -25 -29 -43 -67z"/>
<path d="M3517 1610 c-14 -11 -30 -33 -35 -49 -9 -25 -7 -32 12 -50 29 -28 86
-40 86 -18 0 50 50 18 69 -43 9 -30 18 -41 38 -46 22 -6 31 -1 56 29 34 43 63
48 77 12 11 -28 22 -30 69 -14 36 13 47 41 36 95 -6 35 -44 84 -65 84 -17 0
-11 -36 10 -55 29 -26 34 -54 14 -76 -24 -27 -37 -24 -54 14 -20 44 -42 45
-88 3 -22 -20 -44 -36 -49 -36 -5 0 -15 16 -22 35 -11 32 -53 75 -72 75 -4 0
-11 -9 -14 -21 -5 -15 -14 -19 -33 -17 -37 4 -34 29 6 49 30 16 31 18 17 33
-21 21 -27 20 -58 -4z"/>
<path d="M3494 1306 c-60 -26 -74 -58 -74 -163 0 -166 51 -312 122 -349 30
-16 36 -16 88 1 42 14 71 34 123 84 37 36 67 70 67 76 0 5 21 52 46 102 53
106 54 145 6 184 -25 20 -35 21 -123 15 l-95 -6 -31 35 c-35 39 -73 45 -129
21z m147 -82 c50 -31 63 -35 96 -30 21 4 56 8 78 9 36 2 40 -1 43 -23 2 -14
-4 -34 -13 -45 -16 -20 -16 -20 -12 2 13 62 -40 23 -93 -67 -22 -38 -50 -76
-62 -85 -27 -18 -94 -20 -104 -3 -4 7 -11 59 -15 116 -5 64 -13 112 -23 126
-32 49 25 49 105 0z m-129 -28 c7 -11 15 -67 18 -124 8 -110 19 -134 66 -146
61 -16 154 45 197 129 9 17 16 24 17 16 0 -8 -19 -44 -42 -80 -23 -36 -48 -76
-55 -89 -16 -26 -105 -72 -139 -72 -32 0 -70 35 -89 82 -20 48 -36 259 -23
295 9 27 33 21 50 -11z"/>
<path d="M864 7759 c-4 -7 -10 -50 -12 -95 -6 -115 12 -171 89 -264 34 -41 76
-98 95 -127 42 -66 78 -79 185 -67 71 9 75 11 89 42 9 20 25 35 40 38 94 22
100 25 106 50 12 49 -78 104 -147 89 -37 -8 -37 -23 -1 -31 83 -19 87 -21 87
-40 0 -17 -9 -19 -75 -22 -122 -5 -177 5 -207 39 -14 16 -34 31 -44 34 -10 3
-21 15 -24 25 -8 27 -87 88 -93 72 -7 -22 -19 -13 -38 29 -18 41 -21 71 -13
161 2 35 -1 52 -13 64 -12 13 -17 13 -24 3z m163 -363 c57 -61 108 -91 183
-107 27 -6 50 -15 50 -19 0 -20 -43 -31 -96 -24 -58 7 -50 -1 -197 192 -5 7
-6 12 0 12 5 0 32 -24 60 -54z"/>
<path d="M986 7631 c-17 -27 77 -135 126 -145 13 -2 64 -14 114 -26 98 -23
157 -18 195 16 41 37 13 45 -63 17 -45 -16 -52 -16 -123 1 -99 23 -174 63
-203 106 -25 38 -37 46 -46 31z"/>
<path d="M1412 7116 c2 -75 7 -99 21 -113 15 -16 19 -16 27 -3 5 8 7 36 4 61
-3 25 -7 68 -8 95 -1 43 -4 49 -24 52 -24 4 -24 3 -20 -92z"/>
<path d="M1424 6945 c-4 -15 -4 -52 0 -83 3 -32 11 -100 16 -152 11 -104 28
-180 41 -180 15 0 20 86 9 170 -28 222 -36 264 -47 267 -7 3 -15 -8 -19 -22z"/>
<path d="M1490 6498 c0 -6 9 -21 19 -32 16 -18 22 -58 40 -241 31 -321 40
-403 62 -570 11 -82 23 -217 26 -300 4 -118 9 -159 24 -191 11 -22 37 -132 60
-245 49 -249 69 -330 113 -456 19 -54 37 -110 40 -125 6 -26 30 -58 45 -58 16
0 -8 98 -54 220 -32 83 -57 177 -77 280 -17 85 -37 175 -45 200 -8 25 -19 73
-23 108 -5 35 -12 67 -16 73 -3 5 -15 69 -25 142 -11 73 -24 159 -29 192 -5
34 -27 256 -49 495 -22 239 -45 450 -52 468 -13 39 -59 70 -59 40z"/>
<path d="M1380 6478 c0 -20 1 -21 20 -3 11 10 20 20 20 22 0 1 -9 3 -20 3 -14
0 -20 -7 -20 -22z"/>
<path d="M1258 6473 c-33 -5 -37 -29 -7 -38 20 -7 59 18 59 37 0 8 -4 8 -52 1z"/>
<path d="M1455 6331 c-3 -5 -1 -30 5 -54 5 -25 23 -162 40 -304 16 -142 37
-310 46 -373 9 -63 20 -160 24 -215 4 -55 12 -112 18 -127 6 -14 16 -82 22
-150 7 -78 20 -150 36 -198 31 -92 40 -139 59 -305 27 -234 46 -345 65 -368
30 -36 34 -13 11 60 -12 37 -33 151 -47 252 -14 102 -43 270 -66 375 -29 136
-41 217 -42 281 -1 53 -8 111 -18 140 -23 72 -35 162 -63 501 -23 272 -46 462
-61 485 -7 12 -21 11 -29 0z"/>
<path d="M1276 6222 c-6 -10 12 -206 24 -262 5 -25 9 -154 10 -288 0 -133 7
-358 16 -500 17 -275 15 -700 -6 -901 -9 -88 -8 -107 4 -119 35 -35 39 13 40
522 2 947 -24 1532 -70 1550 -7 3 -15 2 -18 -2z"/>
<path d="M4327 3063 c-12 -11 -8 -43 6 -42 32 3 56 15 49 25 -9 15 -46 26 -55
17z"/>
<path d="M4100 3025 c-17 -17 -30 -39 -30 -48 0 -28 33 -20 62 15 l26 32 62
-12 c67 -14 80 -11 64 16 -8 13 -30 18 -83 22 -70 5 -73 4 -101 -25z"/>
<path d="M4446 2934 c-9 -8 -16 -20 -16 -25 0 -15 30 -23 43 -10 15 15 53 14
87 -4 41 -21 52 1 16 32 -33 28 -106 32 -130 7z"/>
<path d="M4439 2822 c-14 -12 -20 -25 -16 -36 6 -15 9 -15 36 -1 41 21 48 19
66 -15 19 -38 35 -39 35 -2 0 65 -68 96 -121 54z"/>
<path d="M4390 2680 c-30 -30 -25 -42 15 -34 43 8 65 -8 65 -47 0 -35 16 -46
30 -19 15 28 3 66 -32 95 -36 30 -52 31 -78 5z"/>
<path d="M4362 2498 c-7 -7 -12 -18 -12 -26 0 -14 13 -14 67 3 17 6 22 2 25
-16 4 -30 25 -35 33 -8 14 44 -78 82 -113 47z"/>
<path d="M4361 2401 c-21 -13 -5 -41 24 -41 27 0 33 18 13 38 -14 14 -19 15
-37 3z"/>
<path d="M4741 1797 c-22 -58 -30 -114 -41 -312 -9 -159 -9 -217 -1 -239 11
-27 13 -28 28 -13 15 14 21 95 9 116 -2 3 0 53 6 111 17 196 27 305 30 329 4
33 -20 39 -31 8z"/>
<path d="M4692 1197 c-6 -7 -20 -33 -31 -59 -14 -34 -16 -49 -8 -57 16 -16 25
-14 30 7 3 14 6 12 17 -10 14 -30 40 -38 40 -12 0 9 -8 29 -17 45 -14 24 -15
32 -4 53 20 36 -3 63 -27 33z"/>
<path d="M4888 1121 c-29 -60 -34 -81 -20 -81 21 0 72 89 72 126 0 32 -27 9
-52 -45z"/>
<path d="M4775 900 c-51 -34 -222 -107 -294 -126 -31 -7 -96 -21 -146 -29
-120 -21 -161 -34 -306 -96 l-124 -53 -225 -6 -225 -7 -152 -51 c-205 -70
-256 -71 -509 -6 -235 60 -304 62 -459 15 -140 -42 -294 -53 -365 -26 -25 10
-64 18 -87 20 -22 1 -45 5 -50 8 -5 3 -97 31 -204 62 -144 42 -211 66 -260 95
-85 52 -121 54 -64 4 54 -48 169 -104 214 -104 20 0 51 -9 69 -20 18 -11 48
-20 67 -20 19 0 57 -9 85 -20 28 -11 95 -30 148 -41 53 -12 113 -29 132 -39
35 -18 39 -18 160 5 69 13 152 33 184 44 103 36 306 20 490 -38 142 -45 193
-47 343 -16 88 19 140 35 166 53 39 26 95 32 464 47 87 3 100 7 205 55 156 72
175 78 307 95 112 15 203 39 286 76 22 10 66 27 98 39 61 23 117 63 117 85 0
24 -25 22 -65 -5z"/>
</g>
</svg>
