<?xml version="1.0" standalone="no"?>
<!DOCTYPE svg PUBLIC "-//W3C//DTD SVG 20010904//EN"
 "http://www.w3.org/TR/2001/REC-SVG-20010904/DTD/svg10.dtd">
<svg version="1.0" xmlns="http://www.w3.org/2000/svg"
 width="1280.000000pt" height="1102.000000pt" viewBox="0 0 1280.000000 1102.000000"
 preserveAspectRatio="xMidYMid meet">
<metadata>
Created by potrace 1.15, written by Peter Selinger 2001-2017
</metadata>
<g transform="translate(0.000000,1102.000000) scale(0.100000,-0.100000)"
fill="red" stroke="none">
<path d="M1634 10993 l-72 -27 -55 19 c-55 18 -55 18 -113 -4 -32 -12 -81 -39
-109 -61 -27 -21 -69 -43 -92 -49 -39 -11 -89 -44 -121 -81 -7 -8 -29 -49 -49
-90 -20 -41 -44 -87 -54 -102 -11 -14 -38 -77 -62 -139 -41 -109 -44 -115
-100 -157 -85 -65 -113 -128 -95 -216 12 -61 -1 -97 -55 -153 -36 -39 -45 -40
-97 -13 -29 15 -57 20 -107 19 l-68 -1 64 -14 c72 -16 167 -69 207 -117 53
-62 67 -110 62 -213 -3 -84 -8 -100 -45 -176 -23 -46 -51 -92 -62 -103 -21
-18 -21 -18 -21 11 l-1 29 -17 -32 c-48 -89 -114 -126 -247 -138 -99 -8 -125
1 -152 55 -43 83 -22 158 68 249 28 28 47 51 43 51 -3 0 -29 -17 -57 -37 -107
-79 -136 -182 -81 -291 37 -75 64 -86 199 -89 61 -1 113 -2 116 -3 3 0 31 -22
62 -49 58 -51 97 -64 185 -65 31 0 32 -1 15 -14 -19 -14 -125 -12 -168 4 -18
6 -17 4 5 -20 64 -71 161 -97 229 -62 34 18 76 75 86 117 4 15 27 46 52 70
l45 44 -7 -39 c-3 -22 -18 -62 -31 -88 -13 -26 -23 -48 -20 -48 15 0 78 117
92 170 9 36 20 73 25 83 15 27 97 64 197 87 66 16 106 31 140 56 68 49 158 94
187 94 41 0 83 -27 104 -68 19 -36 20 -36 21 -10 0 15 -13 47 -30 71 -29 43
-58 62 -110 70 -20 3 -19 5 8 6 41 1 137 -47 177 -89 32 -34 75 -60 99 -60 8
0 33 16 56 35 22 19 57 37 77 41 26 5 58 28 120 87 l85 80 49 -6 c63 -8 136
-40 175 -78 17 -16 53 -39 80 -50 l49 -20 -42 5 c-31 3 -60 17 -103 50 -99 74
-179 76 -242 6 -20 -22 -41 -55 -47 -72 l-11 -32 22 21 c26 24 122 63 154 63
11 0 50 -19 85 -41 72 -47 114 -56 179 -39 57 14 53 15 135 -9 69 -21 113 -50
101 -69 -3 -5 -17 -7 -31 -4 -27 5 -33 -6 -13 -26 22 -22 -1 -24 -30 -3 -36
26 -51 27 -29 4 15 -17 9 -18 -111 -18 -115 0 -137 -4 -237 -34 -125 -38 -168
-60 -191 -101 l-17 -28 -68 136 -67 137 5 -55 c11 -131 33 -190 87 -238 20
-17 36 -34 36 -37 0 -3 -33 -2 -72 1 l-73 6 50 -30 c55 -32 82 -59 71 -69 -3
-4 -19 5 -34 19 -15 14 -36 28 -47 32 -13 4 -8 -3 13 -20 42 -33 56 -61 53
-105 -1 -20 2 -47 8 -60 18 -47 93 -136 200 -234 113 -105 179 -149 271 -185
l55 -21 -35 38 c-19 21 -49 53 -65 71 l-30 33 30 -11 c64 -24 133 -30 308 -23
199 7 199 15 1 32 -92 7 -141 17 -200 39 -44 16 -100 37 -125 46 -25 9 -54 23
-65 32 -18 15 -18 15 6 9 14 -3 41 -8 60 -10 l35 -5 -30 14 c-16 9 -39 15 -49
16 -14 0 -7 8 25 28 24 16 50 36 58 45 11 13 129 57 154 57 3 0 1 -14 -5 -30
-11 -34 2 -79 29 -102 14 -11 15 -8 7 22 -9 41 -7 101 5 113 4 4 25 11 47 14
37 6 38 6 21 -11 -36 -37 -9 -96 45 -96 14 0 32 7 39 17 13 15 12 15 -8 4 -33
-17 -65 2 -61 36 4 32 29 49 54 38 11 -4 23 -7 27 -6 5 1 21 -6 38 -16 38 -23
40 -73 4 -108 -22 -23 -33 -25 -112 -26 -48 -1 -133 -4 -188 -8 l-100 -6 47
-13 c37 -9 89 -10 235 -2 205 12 309 27 195 29 l-63 1 20 26 c12 15 21 36 21
47 0 20 1 20 28 -5 15 -13 93 -57 175 -97 145 -71 149 -74 273 -193 180 -175
271 -320 324 -518 12 -47 34 -121 48 -165 22 -70 26 -102 30 -260 4 -185 5
-177 -44 -410 -9 -38 -24 -88 -34 -110 -10 -22 -37 -79 -59 -127 -23 -47 -41
-89 -41 -92 0 -14 39 -5 64 15 l26 20 0 -34 c0 -18 14 -74 31 -123 16 -49 39
-117 49 -151 10 -35 29 -77 41 -95 27 -38 119 -227 119 -245 0 -7 17 -30 38
-52 47 -50 107 -62 195 -39 57 15 57 15 43 -6 -8 -13 -30 -24 -57 -28 -76 -13
-232 -70 -293 -106 -33 -19 -94 -48 -137 -62 -45 -16 -127 -59 -196 -102 -65
-41 -145 -85 -178 -97 -33 -12 -79 -31 -103 -43 -53 -25 -83 -19 -115 25 -65
86 -71 163 -61 822 l9 570 32 3 c55 5 59 22 28 108 -17 47 -36 81 -51 90 -12
9 -60 22 -106 30 -87 15 -525 35 -592 26 -47 -6 -46 12 2 44 39 27 27 34 -61
34 -71 0 -128 -14 -245 -60 -100 -38 -152 -36 -152 5 0 17 6 25 17 25 9 0 48
17 87 38 l71 37 115 -3 c63 -1 135 0 160 4 44 7 43 8 -55 25 -162 29 -226 23
-357 -35 l-38 -16 0 51 0 51 38 -6 c109 -18 133 -18 181 -2 64 21 88 20 180
-3 174 -44 190 -46 209 -27 16 17 16 17 -10 5 -31 -13 -60 -6 -53 14 8 18 -87
94 -163 130 -61 28 -68 29 -152 23 l-87 -7 -7 32 c-9 46 -9 45 24 59 21 9 50
10 88 6 31 -4 77 -10 102 -13 66 -8 73 6 55 93 -14 65 -13 70 6 90 35 38 43
88 20 136 l-19 43 -1 -45 c-2 -62 -21 -91 -21 -32 0 36 -6 49 -30 72 -16 15
-42 31 -57 35 -16 3 -68 29 -117 56 -107 59 -140 62 -221 19 -31 -16 -72 -30
-89 -30 -36 0 -58 -20 -95 -84 -15 -26 -17 -35 -7 -27 14 12 16 6 16 -60 0
-59 5 -81 22 -109 19 -29 25 -60 34 -175 10 -128 10 -142 -6 -160 -19 -22 -40
-59 -40 -71 0 -5 13 7 30 26 41 48 37 24 -11 -73 l-40 -82 45 45 46 44 0 -36
c0 -26 -5 -38 -17 -41 -16 -4 -16 -5 -2 -6 9 0 19 -8 23 -16 12 -32 -5 -43
-72 -50 -423 -38 -697 -95 -718 -150 -10 -25 -20 -17 -33 28 -23 78 -23 84 -7
57 33 -54 14 3 -35 104 -28 59 -53 126 -55 149 l-4 42 13 -35 c23 -65 91 -219
95 -215 11 11 -85 309 -124 385 -63 121 -68 173 -54 500 6 146 15 351 20 455
4 105 6 192 5 193 -13 14 -28 -103 -35 -263 -4 -104 -8 -191 -9 -193 -1 -1
-28 25 -62 57 -33 33 -76 67 -94 75 -75 36 -196 6 -260 -64 -23 -26 -26 -31
-10 -25 129 49 296 15 347 -71 14 -24 23 -32 28 -23 5 8 14 3 26 -17 17 -25
19 -50 19 -240 0 -206 -1 -211 -18 -185 -9 14 -17 35 -16 46 3 44 -3 57 -42
100 -25 27 -59 51 -87 61 -43 15 -88 51 -79 61 9 9 118 -40 171 -77 59 -41 65
-41 41 0 -16 29 -21 125 -5 100 7 -11 10 -7 10 17 0 37 -55 129 -96 162 -41
32 -94 44 -175 39 -50 -3 -90 -13 -124 -29 l-50 -24 85 -6 c150 -11 223 -49
280 -146 21 -35 19 -35 -38 3 -18 13 -56 30 -85 40 -29 9 -61 21 -72 27 -11 6
-31 12 -44 13 -13 2 -59 21 -102 42 l-78 39 30 -38 c17 -21 68 -64 115 -95 46
-31 84 -60 84 -65 0 -5 -20 6 -44 25 -24 18 -79 55 -123 82 -112 69 -142 93
-160 128 -9 17 -33 51 -54 76 -20 25 -42 61 -48 80 -9 29 -10 23 -5 -40 13
-178 53 -261 156 -326 50 -32 58 -30 23 6 l-28 30 38 -20 c20 -10 63 -25 94
-31 48 -11 98 -36 88 -45 -1 -2 -22 4 -46 12 -24 8 -45 13 -48 10 -2 -2 22
-20 54 -39 50 -30 61 -43 76 -84 20 -55 21 -99 6 -163 -15 -62 -14 -311 2
-357 29 -91 150 -228 237 -269 31 -16 71 -38 87 -50 17 -12 61 -34 98 -47 38
-14 71 -27 74 -30 17 -17 -20 -50 -120 -107 -125 -72 -219 -131 -214 -136 11
-11 251 97 336 151 33 20 49 24 75 19 33 -6 34 -8 45 -67 24 -145 24 -149 -1
-142 -13 4 -33 13 -45 21 -17 10 -21 11 -18 2 3 -7 -8 -21 -25 -30 -16 -9 -30
-23 -30 -31 0 -9 -11 -12 -37 -9 -37 3 -37 3 22 -28 77 -41 86 -49 137 -129
23 -36 47 -70 53 -74 5 -4 82 -6 170 -5 151 3 164 5 225 32 59 26 79 29 220
36 141 6 161 9 220 35 61 27 73 28 183 27 109 -2 123 -4 170 -29 66 -36 105
-92 114 -160 5 -50 5 -52 -21 -59 -45 -11 -75 4 -109 54 -41 60 -81 99 -128
123 -42 21 -49 23 -49 11 0 -4 14 -16 31 -26 16 -10 54 -50 84 -90 73 -100
106 -114 188 -81 14 6 17 2 17 -19 0 -20 -7 -29 -28 -37 -15 -6 -49 -21 -77
-34 -66 -31 -176 -62 -248 -71 -53 -6 -61 -4 -85 19 -24 22 -83 57 -96 57 -2
0 37 -42 87 -93 96 -96 131 -152 143 -226 7 -43 6 -44 -17 -37 -13 3 -45 9
-72 13 -43 5 -52 2 -102 -31 -62 -41 -109 -100 -127 -158 -16 -54 3 -109 58
-168 45 -48 54 -54 184 -113 41 -18 132 -71 203 -115 203 -131 288 -167 572
-249 193 -56 593 -188 870 -287 72 -26 191 -76 265 -112 182 -89 243 -116 236
-105 -3 5 -35 26 -71 47 -35 21 -63 39 -62 41 2 1 19 -2 38 -7 19 -6 171 -35
339 -66 410 -74 552 -106 738 -165 155 -50 263 -79 292 -79 22 0 -122 78 -198
107 -100 38 -219 71 -355 99 -171 35 -757 131 -847 139 -59 6 -98 17 -180 54
-58 26 -172 72 -255 101 -82 30 -152 55 -155 57 -2 2 7 14 21 26 32 28 112
123 174 207 52 72 183 327 265 520 29 69 72 150 94 180 57 79 247 290 298 332
173 142 440 254 681 287 252 35 502 -4 732 -115 78 -37 107 -59 220 -167 200
-191 224 -230 295 -472 26 -91 31 -120 26 -170 -14 -136 -90 -435 -111 -435
-2 0 -66 40 -142 89 -135 86 -195 121 -209 121 -4 0 46 -35 112 -78 172 -113
370 -287 473 -417 87 -109 208 -315 220 -375 42 -195 93 -511 98 -600 8 -150
-25 -325 -90 -475 -31 -73 -84 -155 -99 -155 -5 0 -25 -12 -43 -26 -40 -31
-95 -48 -199 -64 -177 -27 -411 30 -691 167 -66 32 -133 63 -150 69 l-30 10
40 13 c22 8 85 34 140 60 99 46 101 46 205 45 58 0 164 -4 237 -9 151 -9 210
4 232 51 16 35 15 38 -25 94 -40 56 -92 89 -290 188 -251 126 -441 195 -609
221 -316 49 -388 54 -600 45 -488 -22 -736 -9 -1055 56 -80 16 -185 37 -235
45 -49 9 -124 24 -165 35 -41 11 -129 31 -195 46 -121 26 -237 62 -343 107
-31 14 -82 30 -112 37 -187 42 -506 205 -750 382 -141 103 -152 108 -312 123
-126 12 -148 17 -212 48 -82 41 -116 73 -171 164 -22 37 -52 75 -66 85 -36 27
-120 47 -234 54 -120 7 -184 33 -287 118 -70 58 -111 117 -123 176 -4 19 -12
41 -19 49 -8 10 -11 108 -12 320 -1 168 -7 362 -14 430 -7 68 -9 145 -6 170 8
56 73 167 128 216 44 41 45 54 1 32 -37 -20 -81 -69 -124 -137 l-34 -55 2
-145 c1 -80 5 -181 9 -225 3 -44 7 -228 8 -410 l1 -330 42 -121 c67 -195 201
-446 285 -532 62 -64 84 -100 92 -152 9 -53 39 -94 103 -141 105 -77 194 -170
263 -275 39 -57 144 -108 310 -149 91 -23 185 -61 255 -104 33 -20 72 -43 88
-50 34 -18 34 -31 1 -62 -33 -30 -134 -166 -251 -334 -69 -101 -135 -220 -289
-525 -271 -538 -388 -804 -449 -1017 -27 -97 -134 -431 -175 -550 -55 -157
-69 -240 -99 -578 -5 -60 -6 -128 -2 -150 7 -37 8 -33 19 50 6 50 14 122 17
160 14 155 37 266 85 410 28 83 85 256 126 385 162 504 274 779 480 1170 48
91 122 237 165 325 59 123 106 200 199 330 67 94 140 202 163 240 22 39 46 80
54 92 l13 22 48 -28 c26 -15 149 -95 272 -177 124 -83 275 -180 337 -217 98
-59 157 -100 253 -176 22 -18 23 -23 13 -40 -18 -28 -16 -76 3 -95 20 -20 47
-20 89 0 33 15 35 15 79 -16 25 -17 46 -34 46 -38 0 -15 -96 -54 -146 -59 -38
-4 -58 -1 -80 12 -29 17 -29 17 4 -14 25 -24 41 -31 72 -31 47 0 100 20 147
56 33 25 33 25 64 7 29 -17 30 -21 24 -63 -6 -45 -69 -258 -105 -357 -32 -87
-97 -210 -191 -360 -49 -78 -89 -144 -89 -146 0 -9 159 25 235 51 44 14 89 27
100 27 118 6 458 140 547 216 l33 28 -90 -33 c-49 -19 -103 -39 -120 -46 -39
-15 -35 -12 75 61 52 34 130 95 172 137 l77 74 83 -44 c46 -24 137 -79 203
-122 66 -43 157 -97 203 -120 45 -22 82 -44 82 -49 0 -5 -54 -66 -120 -135
-65 -69 -118 -127 -116 -129 1 -2 72 29 157 68 85 39 176 80 202 90 l48 19 49
-25 c47 -24 49 -26 57 -82 21 -150 -10 -361 -70 -478 -58 -112 -265 -298 -420
-380 -106 -54 -61 -62 88 -15 118 38 281 70 358 70 68 0 117 -20 152 -62 21
-25 25 -40 25 -99 0 -78 -12 -109 -67 -170 -96 -106 -299 -226 -424 -250 -74
-14 -108 -28 -69 -29 17 0 -7 -16 -75 -49 -104 -51 -117 -61 -46 -36 106 37
536 73 646 54 75 -13 136 -45 153 -82 11 -23 11 -36 -3 -85 -21 -71 -71 -121
-172 -175 -39 -20 -122 -75 -185 -122 -62 -46 -178 -122 -258 -167 -143 -82
-144 -83 -105 -85 22 -1 487 -4 1033 -5 l993 -3 10 38 c29 107 57 423 64 700
2 128 8 268 11 312 6 84 29 230 38 244 3 5 16 80 28 167 17 119 23 210 24 359
l1 200 40 42 c95 97 171 250 222 444 10 42 41 130 66 195 54 136 106 331 132
495 27 173 24 529 -6 704 -24 142 -57 280 -97 408 -32 102 -126 319 -170 392
l-33 55 11 83 c19 141 -1 362 -47 522 -108 381 -280 659 -558 905 -113 101
-194 145 -337 185 -129 35 -243 54 -380 61 -99 5 -138 2 -275 -21 -88 -15
-185 -37 -215 -49 -94 -37 -333 -163 -375 -199 -48 -41 -83 -59 -175 -93 -87
-31 -134 -33 -187 -5 -49 25 -76 59 -110 144 -14 34 -49 114 -78 177 -72 155
-95 230 -102 327 l-6 81 54 72 c54 73 90 100 132 100 14 0 50 11 80 25 59 26
92 65 167 198 18 31 41 62 51 67 26 15 69 80 69 107 0 12 15 41 33 65 18 24
48 70 65 103 18 33 66 106 106 163 93 129 120 205 115 319 -3 54 -11 91 -26
122 l-22 44 24 31 c47 62 58 106 56 219 -1 63 -33 97 -89 97 -49 0 -121 -45
-151 -94 -13 -20 -24 -36 -26 -36 -12 0 27 95 56 136 49 72 130 152 162 159
45 12 74 -1 81 -36 12 -60 3 -165 -20 -244 -4 -14 -3 -17 4 -10 19 19 52 138
52 190 0 61 -22 139 -46 166 -28 31 -87 42 -130 24 -46 -19 -47 -19 -33 6 9
18 3 16 -36 -11 -59 -41 -100 -97 -120 -167 -9 -30 -17 -54 -19 -52 -2 2 0 32
3 67 6 60 9 65 68 125 72 73 83 93 83 144 0 69 10 67 113 -30 71 -66 102 -103
112 -132 9 -26 14 -33 15 -18 1 56 -68 142 -172 215 -32 23 -58 44 -58 48 0 4
9 15 20 25 11 10 20 25 20 33 0 25 -107 156 -149 182 -21 14 -49 43 -60 65
-12 22 -33 56 -47 74 -16 23 -22 40 -17 50 4 9 8 46 8 83 0 73 -12 94 -77 133
l-33 19 37 -43 c45 -52 65 -129 49 -187 -5 -20 -7 -34 -4 -30 8 7 62 -112 63
-136 0 -9 12 -25 27 -35 39 -26 152 -144 159 -166 3 -11 1 -24 -5 -30 -6 -6
-11 -19 -11 -29 0 -10 -4 -18 -10 -18 -5 0 -10 11 -10 24 0 59 -11 59 -61 3
-48 -54 -135 -115 -147 -103 -3 4 13 25 35 49 44 45 93 114 93 130 0 5 -17
-10 -38 -34 -91 -104 -92 -105 -86 -84 4 11 15 29 25 40 31 36 59 95 59 125 0
45 -38 35 -68 -18 -13 -23 -37 -52 -55 -64 l-31 -23 23 38 c12 20 21 46 19 57
-3 20 -4 20 -38 -5 -19 -15 -64 -42 -100 -60 -36 -18 -97 -61 -137 -95 -62
-53 -75 -70 -101 -133 -16 -40 -33 -81 -38 -92 -5 -14 -10 5 -14 62 -3 45 -8
85 -11 88 -4 3 -12 -22 -19 -57 l-12 -62 -17 39 c-16 38 -16 38 11 67 25 27
38 57 52 121 6 25 4 27 -26 28 -27 1 -22 3 22 13 30 6 66 18 78 25 13 7 26 10
29 7 3 -3 -9 -44 -27 -90 -40 -105 -35 -130 9 -43 24 47 32 75 30 104 -3 34 3
47 33 82 70 83 148 268 148 353 0 30 -77 140 -110 158 -10 6 -43 10 -72 10
-38 0 -49 3 -38 10 23 15 -5 12 -44 -4 -48 -20 -76 -61 -76 -110 0 -58 21 -82
106 -122 78 -37 93 -57 79 -106 -6 -22 -6 -22 9 -4 36 45 2 111 -71 136 -42
15 -49 37 -17 52 21 10 36 8 82 -7 48 -17 58 -25 66 -52 18 -67 -95 -233 -159
-233 -19 0 -28 8 -39 34 -20 47 -62 83 -128 107 -94 35 -161 127 -177 244 l-7
50 -13 -92 c-7 -50 -11 -148 -10 -218 l3 -126 -33 -32 -33 -32 16 33 c15 30
38 162 28 162 -2 0 -13 -10 -24 -22 -18 -21 -19 -21 -12 -3 24 68 34 132 34
223 0 102 1 105 30 139 17 18 30 41 30 50 0 10 -9 3 -23 -17 -12 -19 -28 -35
-34 -38 -22 -7 -14 24 22 84 20 33 42 79 50 104 l14 45 0 -37 c1 -26 11 -50
36 -83 24 -31 38 -61 42 -93 3 -26 11 -55 18 -65 10 -15 13 -10 18 35 12 97
10 104 -43 163 -28 30 -50 64 -50 76 0 11 -4 18 -9 15 -5 -3 -12 22 -15 55 -4
34 -9 59 -12 57 -2 -3 -15 -41 -28 -86 -40 -137 -100 -213 -206 -261 -43 -19
-44 -20 -17 -26 33 -9 82 0 121 20 39 20 41 19 18 -12 -10 -14 -39 -35 -63
-45 l-44 -19 38 6 c20 3 37 2 37 -2 0 -4 -9 -36 -20 -70 -11 -35 -25 -93 -31
-130 -12 -73 -32 -121 -58 -140 -9 -7 -37 -17 -63 -23 -27 -7 -45 -16 -42 -21
7 -12 5 -12 -49 7 -56 19 -63 35 -9 21 53 -14 90 -2 134 44 46 48 50 71 7 35
-37 -31 -62 -38 -120 -34 -46 4 -42 8 29 27 80 22 152 122 140 194 -3 17 -7
12 -16 -19 -16 -54 -61 -115 -103 -137 -31 -17 -29 -15 13 25 61 55 78 98 77
190 0 72 0 73 -17 48 -25 -37 -164 -201 -167 -198 -1 2 1 26 4 54 7 54 -6 83
-28 61 -6 -6 -11 -7 -11 -1 0 6 -25 8 -63 6 -51 -3 -72 0 -106 18 -24 12 -41
23 -39 24 1 2 37 -1 78 -6 93 -13 165 -12 188 1 13 8 3 10 -42 11 l-59 0 26
20 c15 12 42 20 69 21 59 2 102 12 101 24 0 6 12 18 27 27 16 9 36 23 47 32
10 8 33 27 51 41 41 34 58 67 77 149 8 36 18 73 22 83 6 15 4 16 -9 5 -14 -12
-15 -9 -7 29 12 51 5 62 -10 17 -12 -32 -13 -32 -26 -13 -8 11 -18 25 -22 30
-4 6 -18 29 -31 53 l-23 42 100 0 101 0 14 -32 14 -33 1 36 c1 23 -5 42 -16
50 -21 18 -82 18 -155 0 l-58 -14 -42 46 c-42 44 -68 59 -126 73 -21 5 -16 -1
22 -27 27 -19 78 -66 112 -105 52 -58 60 -70 42 -70 -11 1 -22 -5 -24 -12 -1
-7 0 -8 3 -2 16 33 63 -18 63 -70 0 -32 -7 -48 -36 -80 -48 -53 -167 -113
-209 -104 -46 9 -133 61 -199 118 l-60 50 34 -62 c18 -35 51 -83 72 -107 l40
-45 -44 20 c-24 11 -55 25 -69 32 -14 6 -35 24 -45 40 -29 43 -35 33 -14 -26
23 -68 37 -95 64 -125 l21 -24 -24 13 c-52 27 -110 91 -126 141 -19 55 -30 62
-15 9 l9 -33 -24 23 c-33 31 -32 46 9 119 68 119 108 168 186 224 l25 17 -32
-6 c-27 -5 -32 -3 -27 10 10 27 38 18 84 -29 24 -25 49 -45 55 -45 6 0 35 -16
65 -35 67 -42 75 -43 56 -6 -27 50 -134 115 -242 146 -32 8 -123 -30 -169 -71
l-40 -36 40 23 c35 20 38 21 24 3 -37 -43 -79 -172 -79 -241 0 -22 -2 -24 -16
-12 -13 11 -15 9 -9 -17 4 -22 3 -24 -3 -9 -5 11 -10 67 -11 125 -1 58 -6 121
-10 140 l-9 35 -1 -32 c-1 -31 -20 -48 -22 -20 -1 6 -7 -6 -14 -28 l-13 -40
-12 32 c-6 18 -15 31 -20 30 -4 -1 -19 13 -32 32 -35 52 -45 49 -50 -13 -6
-66 -23 -89 -87 -112 -25 -9 -70 -27 -99 -40 l-53 -23 18 32 c10 18 58 71 106
119 l89 86 -44 -5 c-85 -11 -167 -51 -249 -121 l-38 -33 9 28 c4 15 15 48 24
72 9 24 16 46 16 48 0 8 -52 -27 -82 -55 -23 -21 -28 -23 -28 -9 0 29 31 67
77 94 70 41 216 44 307 7 31 -12 9 14 -27 33 -18 10 -66 19 -112 22 l-80 6 38
22 c46 28 71 81 63 133 l-5 35 29 -35 c16 -19 33 -44 36 -55 19 -56 163 -209
181 -192 12 13 -39 123 -83 181 l-46 58 50 -27 c27 -15 72 -46 98 -70 l49 -42
-28 -54 c-15 -30 -27 -68 -27 -84 1 -30 1 -30 13 -7 7 12 16 20 19 17 3 -4 16
9 28 27 13 18 37 48 54 67 l31 34 -37 -21 c-40 -23 -44 -22 -28 9 8 14 5 29
-11 61 -40 81 -76 108 -169 127 -30 7 -72 23 -92 37 -37 23 -51 21 -25 -5 10
-10 8 -11 -8 -5 -11 4 -35 23 -53 42 -19 18 -36 32 -38 29 -2 -2 3 -26 11 -53
36 -118 -1 -218 -87 -239 l-28 -7 20 43 c23 51 25 111 5 154 -13 29 -13 27
-14 -43 -1 -78 -18 -162 -32 -162 -18 0 -101 -85 -120 -122 -10 -20 -19 -50
-19 -65 -1 -21 -3 -24 -9 -13 -11 18 -31 145 -31 192 l0 33 59 0 c48 0 64 4
84 23 23 22 43 64 28 59 -3 -1 -18 7 -33 17 -24 16 -33 16 -81 6 -49 -11 -57
-11 -99 11 l-46 24 23 48 c28 57 19 62 -15 7 -16 -27 -53 -59 -105 -92 -98
-64 -175 -138 -175 -170 -1 -55 -71 -81 -98 -37 -35 56 -146 67 -198 19 -23
-23 -24 -23 -24 -3 0 11 -11 42 -25 69 -14 27 -25 50 -25 50 0 1 16 -2 36 -6
46 -11 122 11 151 42 41 45 53 84 53 166 0 111 10 121 115 125 l80 3 18 36
c21 43 14 69 -36 116 -36 35 -113 62 -176 62 -41 0 -114 -33 -139 -63 -9 -12
-34 -30 -54 -41 -36 -18 -68 -66 -68 -100 0 -23 -33 -20 -48 4 -21 34 -56 25
-101 -26 -23 -26 -41 -44 -41 -41 0 4 12 32 26 62 32 67 81 110 144 125 28 7
67 28 98 54 29 23 74 50 102 60 46 16 52 17 81 2 48 -24 98 -20 172 14 78 35
111 37 152 10 l30 -20 -39 0 c-36 0 -133 -37 -123 -46 2 -2 29 1 61 7 71 15
88 2 41 -30 -33 -22 -36 -23 -60 -7 -38 25 -42 19 -10 -14 35 -37 44 -37 106
-2 50 28 61 50 34 72 -8 7 -13 16 -10 20 2 4 -9 19 -25 35 -41 39 -96 42 -186
8z m-644 -465 c-18 -47 -18 -55 -5 -82 9 -16 12 -32 7 -35 -124 -87 -130 -90
-104 -53 13 17 43 74 67 127 48 103 67 126 35 43z m1137 -124 c5 -15 -28 -23
-64 -16 l-28 5 30 13 c34 15 57 14 62 -2z m-990 -13 c6 -1 35 -19 63 -42 63
-50 98 -116 79 -151 -17 -33 -17 -33 -38 -14 -65 59 -191 58 -261 0 -38 -33
-40 -52 -2 -24 16 12 49 24 73 27 l44 6 -35 -24 c-36 -24 -74 -90 -85 -144 -5
-27 -4 -28 7 -11 7 11 28 37 47 58 41 47 85 52 121 13 20 -21 21 -25 6 -25
-30 0 -75 -30 -91 -60 -21 -40 -31 -120 -16 -120 6 0 11 10 11 23 1 54 80 147
115 133 9 -3 27 -30 40 -60 14 -31 37 -63 55 -76 27 -20 31 -28 27 -55 -12
-75 -32 -102 -91 -124 -30 -11 -83 -25 -117 -30 -73 -12 -79 -16 -53 -36 45
-36 113 -41 167 -13 10 5 21 7 24 4 9 -9 -22 -44 -77 -86 -45 -34 -61 -40 -87
-36 -46 7 -115 57 -157 114 -20 27 -43 55 -51 62 -14 11 -14 10 -6 -14 6 -14
17 -39 25 -55 15 -28 14 -29 -9 -34 -23 -4 -25 -1 -25 38 0 108 -56 196 -154
241 -28 12 -44 23 -35 23 26 1 79 68 79 99 1 26 1 27 17 7 15 -20 15 -19 10 5
-19 84 -19 128 1 172 21 49 46 70 137 116 33 16 79 45 102 63 41 33 61 37 140
30z m1437 -388 c-35 -26 -44 -14 -19 23 14 20 26 42 27 48 0 6 3 -5 5 -24 3
-25 0 -38 -13 -47z m112 -107 c19 -30 20 -36 7 -60 -16 -30 -12 -29 -51 -15
-41 14 -46 42 -14 78 15 17 29 30 32 30 3 0 14 -15 26 -33z m74 -149 c0 -20 0
-20 -15 -1 -8 10 -15 27 -15 36 0 11 -5 15 -15 12 -11 -4 -14 -1 -10 10 3 9 8
24 11 33 4 13 10 7 25 -26 10 -24 19 -53 19 -64z m1104 -65 c-16 -15 -31 -26
-34 -24 -5 4 47 52 57 52 3 0 -7 -12 -23 -28z m136 -92 c0 -5 -9 -6 -20 -3
-11 3 -20 9 -20 13 0 5 9 6 20 3 11 -3 20 -9 20 -13z m-453 -42 c-3 -8 -6 -5
-6 6 -1 11 2 17 5 13 3 -3 4 -12 1 -19z m-2476 -38 c22 0 23 -1 7 -35 -14 -30
-18 -31 -68 -5 -30 15 -40 26 -40 45 0 24 0 24 41 10 23 -8 50 -15 60 -15z
m2706 -176 c28 -13 54 -32 57 -40 5 -14 1 -15 -31 -9 -49 9 -82 27 -113 60
l-25 28 30 -7 c17 -4 53 -18 82 -32z m-367 -28 c0 -9 -32 -36 -42 -36 -6 0 0
9 13 20 25 21 29 23 29 16z m-1019 -111 c100 -40 205 -65 277 -65 96 0 200 17
248 40 96 47 174 5 242 -131 39 -78 42 -87 32 -122 -12 -42 -48 -70 -90 -70
-23 0 -42 13 -84 56 -30 32 -61 57 -69 57 -7 0 -29 8 -48 18 -28 14 -60 17
-174 17 -185 0 -260 -21 -326 -92 -25 -27 -55 -64 -67 -85 -38 -61 -64 -60
-99 2 -26 44 -28 55 -11 44 11 -7 -25 59 -44 81 -4 5 -8 16 -8 24 0 8 -12 30
-26 48 -23 30 -25 38 -15 59 6 14 11 33 11 44 0 27 42 72 81 86 53 19 104 16
170 -11z m524 -5 c-11 -5 -29 -9 -40 -9 -17 -1 -17 1 -5 9 8 5 26 9 40 9 23 0
23 -1 5 -9z m838 -86 c12 -4 1 -18 -39 -55 -30 -27 -57 -49 -59 -49 -3 0 13
25 36 55 23 30 43 55 44 55 2 0 10 -3 18 -6z m731 -169 c-24 -51 -28 -37 -7
28 14 42 19 50 21 32 2 -14 -4 -40 -14 -60z m-1643 24 c42 -9 64 -22 106 -62
29 -27 53 -58 53 -68 0 -10 21 -44 46 -75 l47 -57 -39 31 c-21 17 -52 48 -67
67 -16 20 -51 53 -78 75 -62 49 -121 58 -228 36 -84 -18 -121 -39 -210 -121
-33 -32 -61 -53 -61 -48 0 5 5 14 10 19 6 6 24 44 40 85 16 41 39 82 52 91 43
32 234 47 329 27z m1138 -87 c-14 -37 -57 -110 -69 -117 -6 -4 -1 18 11 47 12
29 24 60 27 68 9 24 24 40 33 35 4 -3 4 -18 -2 -33z m132 -196 l33 -14 -52 -3
c-54 -4 -60 -1 -40 19 15 15 19 15 59 -2z m-10 -71 c78 -27 109 -49 142 -100
45 -68 67 -127 67 -179 0 -50 8 -78 20 -71 14 8 19 -42 22 -190 2 -125 0 -147
-21 -209 -41 -119 -138 -196 -246 -196 -148 0 -240 99 -238 253 1 47 6 74 17
86 9 10 16 30 16 45 0 15 4 35 9 44 4 9 11 49 15 89 5 57 3 75 -9 87 -21 20
-21 106 0 106 8 0 15 9 15 20 0 22 34 95 56 120 15 18 12 56 -5 52 -17 -4 21
46 39 51 30 9 58 7 101 -8z m539 -41 c22 -22 20 -169 -3 -209 l-18 -30 6 46
c8 61 -7 96 -50 116 -32 15 -37 16 -69 0 -26 -12 -42 -31 -65 -79 -35 -71 -39
-67 -13 14 42 128 152 201 212 142z m-4064 -635 c24 -37 53 -95 63 -127 10
-33 28 -74 41 -92 26 -37 23 -44 -14 -30 -15 5 -41 10 -58 10 -28 0 -25 -3 31
-32 66 -34 76 -48 35 -48 -22 0 -25 -2 -14 -15 7 -8 30 -20 51 -27 43 -12 53
-28 14 -20 -28 5 -33 -9 -10 -28 8 -6 17 -22 21 -33 3 -12 22 -39 42 -59 20
-21 31 -38 26 -38 -6 0 -19 9 -29 20 -19 21 -78 44 -98 37 -6 -2 11 -14 38
-27 l50 -23 -30 -7 -30 -7 93 -90 c50 -50 92 -93 92 -96 0 -3 -30 4 -67 15
-116 35 -197 98 -246 192 -31 60 -32 63 -32 201 0 77 4 179 9 227 9 84 8 88
-19 134 -41 70 -10 42 41 -37z m1401 9 c54 -59 167 -368 130 -355 -16 5 -107
186 -107 212 0 17 -2 17 -10 5 -8 -12 -10 -10 -10 10 0 14 -5 32 -10 40 -8 12
-10 9 -10 -12 0 -16 -5 -28 -12 -28 -8 0 -9 -62 -4 -245 4 -135 9 -252 12
-259 6 -15 -55 -32 -67 -19 -8 8 -22 146 -41 405 -13 181 -6 228 40 252 39 21
65 19 89 -6z m-1193 -34 c9 -24 -8 -15 -34 18 l-24 31 26 -17 c15 -9 29 -24
32 -32z m1197 -263 c15 -35 16 -40 2 -45 -20 -8 -19 -10 -27 48 -7 55 -1 55
25 -3z m787 -361 c183 -10 323 -29 358 -48 22 -12 57 -115 37 -108 -39 15
-177 45 -253 55 -403 53 -963 36 -1445 -44 -130 -22 -334 -69 -387 -90 -15 -6
-18 -2 -18 20 0 41 15 61 67 83 141 60 507 105 1068 131 243 12 362 12 573 1z
m-1780 -179 c3 -8 -5 -7 -22 4 -32 21 -33 27 -4 16 12 -4 24 -14 26 -20z
m1234 -171 c1 -110 2 -217 3 -237 l0 -38 -75 -7 c-41 -3 -97 -12 -125 -18 -27
-6 -104 -15 -170 -20 -143 -10 -179 -15 -309 -41 -181 -35 -297 -21 -338 43
-8 13 -22 83 -31 163 -10 77 -20 156 -23 176 l-6 35 73 22 c222 64 613 118
882 121 l117 1 2 -200z m878 -103 c0 -302 -21 -1731 -25 -1735 -2 -2 -19 1
-37 7 l-33 11 -4 320 -3 320 30 0 29 0 6 318 c4 174 10 464 13 645 4 180 11
327 15 327 5 0 9 -96 9 -213z m-420 -1329 c7 -145 11 -271 9 -280 -4 -15 -10
-14 -72 7 -83 30 -197 91 -297 161 -120 83 -117 77 -71 170 22 43 46 102 52
129 6 28 13 56 15 63 3 9 47 12 177 12 l174 0 13 -262z"/>
<path d="M1049 10309 c-54 -12 -139 -48 -172 -71 -44 -32 -77 -110 -76 -183 2
-101 15 -121 21 -30 5 89 30 149 74 184 33 26 173 71 220 71 42 0 101 -23 131
-52 13 -12 23 -17 23 -12 0 17 -64 72 -102 88 -41 17 -64 18 -119 5z"/>
<path d="M794 9926 c13 -53 47 -112 86 -151 22 -22 40 -36 40 -33 0 8 -91 159
-113 188 l-20 25 7 -29z"/>
<path d="M2705 9069 c-33 -5 -94 -18 -135 -29 l-75 -19 75 5 c148 9 347 38
315 45 -41 9 -109 8 -180 -2z"/>
<path d="M4027 8530 c-21 -13 -57 -82 -57 -107 1 -11 8 -4 20 19 51 95 124 89
195 -18 60 -90 115 -362 94 -463 -14 -72 -35 -123 -56 -138 -10 -8 -12 -13 -4
-13 21 0 59 50 78 103 22 64 21 173 -2 277 -9 41 -21 95 -26 120 -13 64 -55
142 -99 185 -29 29 -48 38 -82 41 -23 3 -51 0 -61 -6z"/>
<path d="M4086 8419 c37 -11 55 -29 94 -100 23 -40 29 -46 24 -24 -10 46 -41
102 -66 119 -12 9 -36 16 -53 15 l-30 -1 31 -9z"/>
<path d="M3970 8275 c0 -100 -20 -196 -54 -259 -32 -60 -33 -90 -4 -110 34
-24 71 -19 113 14 46 36 52 37 95 5 19 -14 42 -25 52 -25 25 0 50 42 55 94 5
41 3 47 -37 88 -27 28 -40 36 -36 23 4 -13 -3 -9 -21 13 -16 19 -54 61 -85 95
-40 41 -58 68 -58 86 0 14 -5 33 -10 41 -7 10 -10 -10 -10 -65z"/>
<path d="M1950 10921 c-71 -10 -53 -11 175 -14 225 -3 272 -16 361 -94 124
-109 115 -105 288 -114 247 -12 360 -55 505 -195 43 -40 94 -81 114 -89 20 -8
80 -20 134 -25 54 -6 111 -15 127 -20 45 -15 93 -56 131 -113 42 -61 46 -54 8
14 -45 84 -111 122 -228 133 -154 15 -168 20 -260 106 -163 151 -276 196 -532
209 -168 9 -147 1 -269 104 -96 81 -153 97 -349 102 -82 2 -175 0 -205 -4z"/>
<path d="M1950 10814 c-34 -15 -100 -71 -100 -85 0 -4 22 7 49 24 27 18 66 42
87 54 46 26 20 31 -36 7z"/>
<path d="M2243 10771 c-71 -20 -116 -48 -220 -134 -79 -65 -92 -80 -40 -49 17
11 55 33 82 49 28 17 76 46 108 67 31 20 78 46 102 56 25 11 45 22 45 25 0 7
-7 6 -77 -14z"/>
<path d="M2475 10675 c40 -63 136 -174 187 -216 29 -24 48 -37 42 -29 -96 128
-153 196 -196 232 -47 39 -50 40 -33 13z"/>
<path d="M2601 10625 c2 -5 21 -39 41 -75 44 -78 82 -116 123 -125 l30 -6 -27
15 c-14 9 -42 42 -62 73 -30 50 -115 146 -105 118z"/>
<path d="M2793 10545 c27 -24 32 -25 108 -19 79 7 79 7 79 -17 0 -14 -7 -34
-15 -47 -14 -19 -14 -21 -1 -16 20 8 46 49 46 73 0 24 -36 51 -67 51 -12 0
-43 -7 -67 -15 -41 -14 -49 -14 -78 0 l-33 16 28 -26z"/>
<path d="M1592 10535 c-12 -9 -28 -39 -37 -70 -16 -54 -61 -125 -99 -157 -25
-21 -15 -23 22 -4 38 20 91 88 109 142 14 42 36 64 50 51 3 -3 -8 -35 -25 -70
-37 -81 -45 -114 -33 -152 l9 -30 1 35 c1 22 18 62 46 110 50 83 56 121 23
144 -28 20 -38 20 -66 1z"/>
<path d="M3121 10516 c8 -8 146 -56 161 -56 26 1 -82 50 -124 56 -23 4 -40 4
-37 0z"/>
<path d="M3000 10355 c-7 -9 -11 -17 -9 -18 19 -14 159 -92 218 -121 l73 -37
-43 51 c-63 74 -155 140 -195 140 -17 0 -37 -7 -44 -15z"/>
<path d="M3310 10330 c38 -12 99 -12 80 0 -8 5 -35 9 -60 9 -37 -1 -41 -2 -20
-9z"/>
<path d="M2773 10309 c-17 -11 -39 -32 -48 -46 -16 -24 -15 -24 23 6 22 18 62
38 88 46 l49 13 -40 1 c-24 0 -53 -7 -72 -20z"/>
<path d="M3634 10260 c-15 -6 -24 -24 -33 -65 -23 -100 -4 -140 110 -235 32
-26 63 -50 71 -52 9 -3 5 -15 -15 -41 -33 -43 -25 -48 15 -10 15 15 49 38 75
52 63 34 71 59 49 148 -14 61 -22 73 -69 115 -53 49 -139 98 -166 97 -9 0 -25
-4 -37 -9z"/>
<path d="M3233 10130 c20 -42 37 -49 56 -26 12 14 1 25 -55 54 l-21 11 20 -39z"/>
<path d="M2925 10146 c-16 -7 -40 -25 -53 -39 -26 -28 -41 -100 -23 -111 7 -5
11 2 11 20 0 39 36 90 83 119 44 26 33 33 -18 11z"/>
<path d="M3945 10096 c28 -25 86 -70 130 -100 87 -59 109 -79 124 -116 10 -25
10 -25 10 -2 2 49 -29 81 -157 165 -161 105 -168 109 -107 53z"/>
<path d="M3180 10092 c0 -6 14 -24 31 -41 50 -51 120 -40 118 19 0 24 -1 24
-9 4 -17 -44 -56 -43 -109 2 -17 14 -31 21 -31 16z"/>
<path d="M2960 10044 c0 -18 47 -63 77 -75 15 -6 46 -15 68 -20 35 -7 32 -8
-21 -4 -33 2 -69 7 -80 10 -10 3 -5 -1 11 -9 40 -20 189 -20 230 -1 30 15 30
15 -19 9 -27 -3 -55 -8 -64 -12 -9 -3 -13 -1 -9 5 5 7 -9 14 -35 18 -57 10
-125 42 -143 68 -8 12 -15 17 -15 11z"/>
<path d="M3070 10044 c1 -25 62 -74 92 -74 7 0 4 6 -7 12 -11 6 -35 24 -52 41
-18 17 -33 27 -33 21z"/>
<path d="M4040 9952 c0 -4 34 -40 75 -79 75 -71 103 -76 43 -8 -34 39 -118
101 -118 87z"/>
<path d="M3855 9872 c-22 -10 -55 -35 -73 -56 -31 -35 -78 -116 -67 -116 2 0
28 14 55 31 77 47 162 71 229 64 31 -4 74 -3 96 2 l40 9 -65 39 c-79 48 -151
57 -215 27z"/>
<path d="M331 9864 c-22 -16 -23 -22 -17 -76 5 -50 2 -66 -21 -112 -22 -45
-25 -59 -15 -78 l11 -23 0 27 c1 14 12 39 25 55 41 49 49 73 42 124 -6 43 -5
49 12 49 38 0 122 -128 91 -139 -7 -2 -23 -14 -36 -27 -21 -22 -24 -22 -30 -6
-4 9 -7 32 -7 51 0 33 0 33 -17 12 -15 -19 -18 -42 -17 -159 1 -122 -1 -141
-20 -177 -19 -34 -20 -42 -8 -60 35 -54 171 -7 237 82 38 51 59 86 59 100 0 4
-13 -13 -29 -38 -38 -61 -105 -113 -160 -127 -64 -15 -83 -3 -68 43 10 33 13
35 39 30 37 -9 86 28 133 98 58 87 56 157 -2 157 -20 0 -24 3 -16 11 8 8 30 9
67 5 58 -8 76 -23 76 -65 0 -12 5 -21 10 -21 19 0 11 69 -10 90 -26 26 -130
29 -151 4 -11 -14 -14 -13 -25 8 -8 13 -13 32 -14 42 0 36 -42 106 -71 121
-35 19 -39 19 -68 -1z"/>
<path d="M4256 9761 c15 -23 29 -39 32 -37 7 8 -31 69 -46 74 -8 2 -1 -14 14
-37z"/>
<path d="M3555 9668 c10 -119 79 -205 198 -248 34 -13 72 -29 85 -37 13 -8 22
-9 22 -3 0 11 -40 37 -147 98 -68 38 -114 99 -144 188 l-19 59 5 -57z"/>
<path d="M117 9648 c-79 -76 -124 -192 -114 -298 5 -58 40 -138 84 -197 37
-48 115 -83 182 -82 l56 1 -45 12 c-72 20 -117 45 -154 87 -44 47 -83 125 -92
177 -13 83 42 236 109 303 40 40 16 37 -26 -3z"/>
<path d="M4175 9643 c8 -21 14 -60 15 -88 0 -27 3 -68 7 -90 6 -36 7 -38 14
-15 20 70 4 183 -30 214 -19 17 -19 16 -6 -21z"/>
<path d="M4211 9370 c-10 -31 -138 -195 -185 -239 -38 -36 -32 -44 16 -20 68
35 145 114 162 168 28 86 35 169 7 91z"/>
<path d="M1455 9353 c-16 -9 -55 -35 -85 -58 -67 -52 -109 -74 -163 -85 l-42
-8 36 -1 c57 -2 116 25 193 86 111 88 118 97 61 66z"/>
<path d="M1778 9333 c-15 -37 -22 -202 -10 -233 7 -19 11 2 16 95 4 66 9 130
12 143 6 31 -4 28 -18 -5z"/>
<path d="M1464 9221 c9 -14 98 -71 110 -71 12 0 -22 31 -69 61 -32 20 -50 25
-41 10z"/>
<path d="M1604 9171 c21 -23 26 -26 26 -11 0 5 -10 15 -22 21 -23 12 -23 12
-4 -10z"/>
<path d="M1425 9155 c19 -16 17 -17 -37 -10 -68 8 -75 0 -17 -15 43 -12 169
-4 169 10 0 4 -19 10 -42 14 -24 4 -54 9 -68 12 -25 5 -25 5 -5 -11z"/>
<path d="M1280 9118 c78 -22 73 -27 -25 -23 -68 3 -89 2 -67 -4 50 -13 50 -21
-1 -21 -25 0 -49 -5 -53 -11 -4 -8 7 -9 37 -5 l44 5 -37 -16 c-21 -8 -38 -21
-38 -28 0 -7 -7 -18 -15 -25 -10 -8 -14 -23 -11 -39 5 -24 0 -29 -55 -55 -33
-15 -58 -30 -56 -32 8 -8 115 36 128 52 21 25 59 35 106 28 51 -7 47 -18 -22
-58 -38 -23 -84 -71 -110 -116 -9 -15 88 64 158 129 l37 35 0 -27 c0 -21 9
-33 36 -49 l36 -21 -55 -29 c-87 -43 -148 -112 -189 -210 -19 -45 -38 -101
-42 -123 -4 -22 -15 -51 -23 -65 -16 -25 -16 -25 4 -7 12 10 24 33 27 50 9 47
60 151 98 198 63 79 167 129 266 129 36 0 43 -3 38 -16 -3 -9 -6 -22 -6 -30 0
-10 -15 -14 -58 -14 -120 0 -241 -93 -277 -214 -8 -27 -14 -50 -12 -52 1 -1
27 28 57 64 63 75 75 82 83 50 9 -35 58 -77 97 -83 l35 -6 -30 14 c-40 19 -82
66 -90 100 -6 24 -3 29 29 42 48 20 56 19 56 -10 0 -62 90 -89 129 -39 12 15
21 33 21 40 0 8 5 14 11 14 18 0 4 -75 -20 -108 -11 -16 -18 -32 -15 -35 6 -6
-65 -33 -121 -46 -37 -8 -38 -9 -9 -10 45 -1 123 24 179 60 49 31 50 31 25 4
-28 -31 -94 -66 -189 -102 -66 -25 -97 -30 -183 -32 -27 -1 -48 -5 -48 -11 0
-19 183 0 243 25 39 16 12 -5 -55 -45 -40 -24 -75 -44 -77 -46 -2 -2 2 -11 9
-20 10 -11 23 -14 46 -9 50 9 223 92 279 134 75 56 76 56 50 -1 -36 -77 -30
-91 10 -24 19 31 46 72 61 89 15 18 37 54 50 80 l22 49 7 -42 c4 -23 8 -40 10
-38 10 10 25 377 16 403 l-9 30 -1 -29 c-1 -26 -4 -22 -31 31 -24 49 -39 64
-73 81 -97 48 -155 64 -247 72 -52 4 -108 12 -123 19 -16 6 -45 11 -65 10
l-37 -1 35 -10z m237 -472 c8 -8 -17 -45 -38 -56 -27 -15 -58 -3 -70 27 -14
38 -2 46 54 40 27 -4 52 -8 54 -11z m97 -41 c45 -19 46 -32 4 -50 -18 -8 -46
-23 -63 -35 -43 -28 -53 -25 -22 8 15 15 30 42 33 60 4 18 8 32 9 32 1 0 19
-7 39 -15z"/>
<path d="M1845 9038 c-50 -49 -50 -49 -12 -27 35 20 75 65 66 73 -2 2 -26 -19
-54 -46z"/>
<path d="M969 9019 c-24 -34 -65 -88 -91 -120 -42 -51 -54 -59 -101 -70 -64
-14 -160 -5 -182 18 -9 8 -22 27 -29 41 -22 42 -87 97 -134 116 -52 20 -135
21 -154 2 -8 -7 -24 -16 -36 -20 -21 -7 -62 -51 -62 -67 0 -4 14 -1 30 8 34
16 74 11 130 -17 l35 -18 -41 -11 c-49 -13 -89 -43 -109 -80 -12 -24 -17 -71
-8 -71 2 0 25 16 52 35 26 19 63 38 80 41 46 10 141 -14 176 -43 18 -15 23
-23 12 -19 -10 3 -26 6 -35 6 -15 0 -15 2 -2 11 11 8 7 9 -18 5 -49 -9 -87
-40 -111 -92 -12 -25 -21 -48 -19 -50 2 -2 19 18 38 43 19 26 46 55 60 64 24
18 27 18 96 -5 117 -39 179 -81 225 -154 l28 -44 -1 39 c0 21 11 70 24 110 13
39 20 69 16 67 -19 -12 -48 -86 -48 -121 l0 -38 -19 31 c-10 17 -36 45 -57 62
-26 22 -33 32 -22 32 17 0 61 19 138 59 27 14 45 37 76 97 22 44 57 106 77
138 34 55 43 76 33 76 -2 0 -23 -28 -47 -61z"/>
<path d="M160 9013 c-83 -53 -118 -91 -137 -147 -22 -67 -21 -160 3 -215 l19
-43 1 109 c1 135 12 162 107 260 39 40 68 73 66 72 -2 0 -29 -16 -59 -36z"/>
<path d="M1044 9021 c-29 -36 -50 -80 -58 -121 -7 -32 -5 -31 24 20 33 57 62
122 58 125 -2 1 -12 -9 -24 -24z"/>
<path d="M95 8807 c-20 -48 -37 -126 -30 -138 10 -16 31 -10 55 16 29 31 41
24 30 -18 l-9 -32 19 24 c11 13 20 37 20 53 0 30 -1 30 -38 24 l-38 -6 7 53
c8 64 4 71 -16 24z"/>
<path d="M2048 8760 c-4 -14 -7 -74 -7 -135 1 -97 2 -104 10 -62 11 58 8 235
-3 197z"/>
<path d="M238 8704 c-15 -8 -39 -35 -54 -60 -22 -37 -26 -54 -22 -93 6 -56 36
-104 80 -127 16 -8 32 -14 34 -11 2 2 -4 24 -15 48 -32 74 -36 130 -12 177 11
22 25 43 31 47 14 9 12 35 -2 35 -7 -1 -25 -7 -40 -16z"/>
<path d="M470 8609 c-55 -25 -96 -62 -121 -111 -19 -37 -13 -52 10 -24 27 32
115 59 210 64 66 3 92 2 87 -6 -4 -6 21 -26 61 -48 38 -20 79 -47 92 -58 l23
-21 -7 25 c-4 14 -26 43 -48 66 -23 22 -50 53 -61 69 -42 61 -160 83 -246 44z"/>
<path d="M1223 8413 c9 -2 25 -2 35 0 9 3 1 5 -18 5 -19 0 -27 -2 -17 -5z"/>
<path d="M2113 8375 c20 -14 37 -29 37 -33 0 -17 74 -83 126 -112 30 -17 63
-45 74 -63 11 -17 20 -28 20 -24 0 5 23 -10 52 -32 28 -23 53 -39 55 -37 9 8
-56 94 -93 124 -20 17 -48 33 -62 37 -45 11 -111 56 -143 96 -17 22 -44 46
-60 54 -44 23 -47 18 -6 -10z"/>
<path d="M1105 8351 c-23 -26 -25 -32 -9 -23 26 14 47 39 42 50 -1 4 -16 -8
-33 -27z"/>
<path d="M1785 8300 c-3 -5 -15 -43 -25 -83 -11 -41 -33 -100 -50 -132 -29
-55 -41 -123 -20 -110 6 3 10 17 10 29 0 13 14 49 31 81 17 31 39 95 49 141
17 80 18 96 5 74z"/>
<path d="M1708 7885 c6 -11 27 -36 47 -55 23 -21 33 -27 27 -15 -6 11 -27 36
-47 55 -23 21 -33 27 -27 15z"/>
<path d="M2263 7663 c4 -6 25 -13 47 -16 22 -3 63 -20 91 -37 67 -44 73 -32 7
13 -35 24 -70 39 -102 43 -33 5 -47 4 -43 -3z"/>
<path d="M2221 6450 c46 -55 129 -127 129 -112 0 30 -131 162 -162 162 -5 0
10 -23 33 -50z"/>
<path d="M4413 5155 c-3 -9 -3 -41 1 -73 20 -190 20 -178 -5 -196 -30 -20 -52
-20 -92 0 l-32 17 19 -22 c11 -11 17 -24 14 -27 -9 -8 -54 54 -77 106 -11 25
-21 38 -21 30 0 -27 37 -94 71 -130 38 -40 165 -145 211 -174 24 -15 34 -17
54 -7 25 11 25 12 18 94 -6 80 -83 356 -106 385 -14 17 -47 15 -55 -3z"/>
<path d="M1899 3251 c-85 -58 -195 -160 -208 -194 -5 -13 -12 -48 -16 -78 -5
-46 -1 -69 27 -153 l34 -98 123 282 c68 155 121 284 118 286 -2 3 -38 -18 -78
-45z"/>
<path d="M1946 3018 c-57 -141 -82 -224 -121 -403 -24 -110 -62 -256 -85 -325
-55 -165 -59 -226 -29 -467 12 -103 25 -190 29 -193 4 -3 15 -44 25 -92 10
-49 19 -88 21 -88 22 0 66 38 121 104 37 45 133 149 214 231 137 141 150 157
210 270 34 66 73 137 87 158 13 22 22 41 20 43 -5 4 -203 -97 -264 -135 -23
-14 -65 -45 -93 -68 -96 -78 -167 -79 -216 -4 -30 45 -44 108 -52 225 -4 78
-1 113 27 246 45 217 76 350 106 447 28 91 28 119 0 51z"/>
<path d="M4425 2145 c-22 -8 -75 -23 -118 -34 -94 -26 -229 -80 -317 -129
-191 -105 -389 -236 -377 -249 2 -2 35 14 73 35 305 172 347 193 474 237 113
39 244 100 310 145 21 14 3 12 -45 -5z"/>
<path d="M1538 1505 c-4 -16 -12 -79 -18 -140 -23 -219 -114 -406 -291 -600
-41 -44 -53 -61 -33 -48 76 54 203 214 262 330 38 73 70 189 82 290 12 106 11
224 -2 168z"/>
<path d="M582 710 c-44 -41 -41 -118 7 -164 22 -21 40 -28 75 -29 44 -2 46 -3
46 -33 0 -17 11 -64 25 -105 14 -41 32 -101 41 -134 8 -33 29 -95 46 -137 l32
-78 38 0 c21 0 38 2 38 4 0 14 -125 369 -158 446 -22 52 -43 118 -47 145 -4
28 -10 45 -12 38 -2 -7 -10 -10 -17 -7 -8 3 -30 -6 -51 -20 -54 -37 -75 -35
-75 8 0 26 7 41 31 60 17 14 24 26 17 26 -8 0 -24 -9 -36 -20z"/>
<path d="M1429 533 c-154 -158 -207 -230 -327 -446 l-33 -58 133 3 133 3 45
76 c63 103 124 264 148 384 28 136 30 155 23 155 -4 0 -59 -53 -122 -117z"/>
<path d="M1273 523 c-116 -127 -231 -297 -263 -391 -8 -23 -8 -24 3 -8 102
157 160 239 229 326 91 114 132 170 125 170 -2 0 -45 -44 -94 -97z"/>
<path d="M983 417 c-51 -90 -83 -165 -83 -194 0 -8 18 21 41 64 44 86 101 214
96 219 -1 2 -26 -39 -54 -89z"/>
</g>
</svg>
