<?xml version="1.0" standalone="no"?>
<!DOCTYPE svg PUBLIC "-//W3C//DTD SVG 20010904//EN"
 "http://www.w3.org/TR/2001/REC-SVG-20010904/DTD/svg10.dtd">
<svg version="1.0" xmlns="http://www.w3.org/2000/svg"
 width="640.000000pt" height="1280.000000pt" viewBox="0 0 640.000000 1280.000000"
 preserveAspectRatio="xMidYMid meet">
<metadata>
Created by potrace 1.15, written by Peter Selinger 2001-2017
</metadata>
<g transform="translate(0.000000,1280.000000) scale(0.100000,-0.100000)"
fill="#000000" stroke="none">
<path d="M2445 12790 c-184 -16 -250 -38 -391 -125 -97 -61 -148 -120 -199
-229 -108 -233 -134 -336 -115 -453 22 -138 64 -229 133 -290 19 -16 75 -58
125 -92 165 -113 191 -157 213 -360 18 -166 22 -161 -311 -396 -389 -275 -464
-346 -511 -482 -30 -89 -44 -280 -30 -431 38 -406 165 -911 240 -951 11 -7 42
-16 68 -21 87 -16 300 25 407 80 42 21 63 27 70 20 18 -18 20 -208 2 -284 -10
-42 -60 -160 -130 -305 -62 -130 -121 -261 -129 -291 -9 -30 -39 -129 -67
-220 -66 -218 -92 -333 -135 -585 -47 -277 -61 -326 -101 -380 -19 -24 -34
-48 -34 -54 0 -9 -10 -19 -112 -111 -61 -54 -63 -83 -11 -141 44 -49 117 -93
139 -85 9 4 22 1 30 -5 19 -15 2 -53 -47 -106 -54 -58 -79 -121 -86 -214 -7
-96 5 -119 74 -144 26 -10 56 -26 65 -37 41 -45 69 -212 98 -568 23 -282 33
-358 56 -427 22 -64 38 -87 111 -165 100 -105 134 -212 99 -314 -9 -26 -14
-50 -11 -52 20 -20 76 91 196 389 103 258 131 311 199 379 49 50 158 130 192
143 10 4 11 7 1 18 -7 7 -13 30 -13 50 0 82 124 494 207 688 57 133 169 357
183 366 12 8 3 -16 -63 -155 -96 -204 -187 -476 -187 -558 0 -36 -3 -43 -12
-34 -17 17 -28 15 -22 -5 15 -48 27 -73 34 -73 4 0 20 33 35 72 35 88 45 74
14 -19 -30 -94 -46 -123 -63 -117 -25 10 -58 -79 -71 -189 -4 -39 -12 -60 -24
-66 -44 -24 -177 -318 -315 -699 -62 -170 -198 -496 -221 -530 -12 -16 -22
-21 -41 -16 -15 4 -34 0 -49 -10 -35 -23 -49 -20 -89 18 -43 40 -45 61 -10
101 18 21 24 24 19 10 -16 -46 -16 -54 5 -75 53 -53 107 0 214 210 87 171 246
555 246 594 0 6 -19 -23 -41 -64 -75 -138 -76 -124 -2 52 50 120 66 141 58 76
l-5 -43 26 55 c44 92 56 190 25 190 -17 0 -60 -83 -132 -256 -154 -367 -256
-544 -313 -544 -22 0 -66 -61 -120 -164 -31 -59 -33 -90 -5 -135 11 -18 27
-61 36 -95 19 -74 25 -87 69 -136 49 -54 70 -110 89 -235 17 -107 17 -183 -1
-349 -5 -47 -4 -58 7 -54 9 3 20 39 31 94 31 163 50 228 113 384 35 85 73 189
86 230 12 41 43 129 69 195 52 131 130 369 184 565 19 69 35 121 36 115 0 -5
5 -82 10 -169 9 -156 9 -161 -15 -233 -28 -83 -96 -223 -130 -268 -80 -107
-261 -604 -320 -878 -13 -60 -25 -111 -28 -113 -2 -3 -8 7 -11 21 -8 32 -31
27 -30 -6 1 -13 6 -76 13 -139 6 -63 11 -165 11 -226 l0 -111 76 -11 c51 -7
83 -17 94 -29 10 -10 32 -65 50 -122 17 -58 59 -157 93 -220 60 -115 61 -117
68 -221 6 -92 22 -169 48 -220 4 -8 27 -25 51 -36 41 -20 42 -22 19 -29 -37
-11 -69 -46 -69 -75 0 -29 34 -85 98 -158 l42 -50 -47 -23 c-45 -22 -48 -27
-53 -69 -5 -42 -7 -45 -45 -52 -50 -11 -77 -36 -125 -118 -59 -101 -68 -107
-153 -115 -40 -4 -164 -2 -276 3 l-203 10 -101 -70 c-121 -83 -214 -158 -280
-225 l-47 -49 2 -339 3 -340 85 3 c51 2 165 -7 285 -22 195 -25 419 -48 580
-61 44 -4 314 -33 600 -65 286 -33 608 -66 715 -75 107 -9 236 -20 285 -26
160 -19 271 -22 457 -9 206 13 303 28 464 70 149 38 240 80 256 117 8 20 12
154 13 453 2 278 6 434 13 452 6 14 21 30 34 33 44 14 49 48 18 116 -12 27
-20 66 -20 101 0 53 3 62 36 98 35 39 37 43 31 97 -4 40 -20 82 -53 147 -112
213 -103 188 -119 356 -26 274 -30 484 -10 570 9 41 21 93 26 115 5 22 13 130
18 240 6 110 16 248 22 307 21 182 -3 291 -191 868 -162 499 -164 507 -189
735 -5 50 -24 132 -41 183 -17 52 -40 148 -51 215 -28 166 -60 290 -130 502
l-59 179 30 331 c17 181 35 340 40 352 5 12 36 36 69 52 67 34 124 87 152 143
28 56 24 84 -17 122 -33 30 -34 34 -23 62 32 81 32 81 -22 140 -54 59 -58 76
-32 143 l17 44 -31 26 c-17 14 -41 33 -53 41 -17 12 -26 36 -40 108 -21 108
-34 132 -88 156 -22 10 -45 29 -51 43 -6 13 -25 131 -41 261 -35 273 -39 295
-87 537 -33 162 -37 196 -37 345 -1 91 7 302 17 470 54 944 74 1634 49 1678
-14 24 -79 60 -154 86 -64 21 -141 32 -354 51 -256 22 -496 67 -621 117 -29
11 -53 26 -53 32 0 7 13 70 29 142 62 269 80 582 38 663 -9 19 -17 41 -17 48
0 23 24 9 30 -18 4 -15 14 -25 28 -27 13 -2 30 -17 40 -35 l17 -32 3 115 3
115 -40 80 c-58 116 -171 285 -217 323 -21 18 -77 52 -123 75 -79 39 -88 41
-180 43 -53 1 -136 -1 -186 -6z m220 -90 c3 -5 1 -10 -5 -10 -6 0 -10 -8 -8
-17 4 -22 40 -30 131 -32 72 -1 87 10 35 27 l-33 10 35 1 c20 1 50 -8 70 -21
l35 -22 -70 -12 c-38 -7 -86 -13 -106 -13 -38 -1 -116 34 -164 74 l-30 25 52
0 c28 0 55 -4 58 -10z m-445 -54 c0 -20 -66 -73 -101 -80 -33 -6 -104 -67
-125 -107 -8 -16 -14 -45 -14 -67 0 -72 -59 -101 -112 -54 -24 20 -12 34 23
27 16 -4 38 -4 49 0 23 7 27 30 5 39 -15 6 -20 33 -9 60 10 26 250 196 276
196 4 0 8 -6 8 -14z m358 -6 c17 -7 32 -16 32 -20 0 -4 -62 -10 -137 -12 -124
-4 -144 -7 -197 -31 -69 -32 -96 -36 -75 -11 18 22 89 69 124 82 37 14 206 8
253 -8z m-120 -67 c-2 -12 -32 -25 -103 -45 -124 -36 -178 -65 -278 -152 -44
-38 -78 -65 -75 -60 36 77 50 115 50 141 0 30 2 32 24 27 16 -4 31 -1 43 10
10 9 46 21 79 26 33 6 89 24 124 40 72 34 142 41 136 13z m327 -14 c5 -5 1 -9
-12 -9 -12 0 -30 -11 -40 -26 -20 -27 -71 -43 -139 -44 -63 0 -222 -30 -270
-50 -23 -10 -47 -28 -53 -39 -6 -11 -29 -25 -50 -31 -21 -5 -53 -21 -72 -35
-85 -61 -106 -75 -141 -90 -52 -21 -49 -3 10 52 105 98 195 158 281 186 98 33
237 62 339 72 50 5 75 12 79 22 6 15 49 11 68 -8z m215 -49 c-17 -32 -70 -38
-70 -8 0 6 10 8 26 4 22 -6 25 -4 20 9 -9 24 3 38 20 24 10 -8 11 -16 4 -29z
m-70 -51 c30 -16 63 -29 72 -29 27 0 68 -22 68 -37 0 -9 -8 -12 -27 -7 -76 17
-111 28 -144 44 -33 18 -37 18 -52 2 -16 -15 -17 -14 -17 11 0 24 -3 27 -24
21 -29 -7 -43 11 -19 25 25 15 79 3 143 -30z m-220 -50 c0 -16 -19 -29 -43
-29 -7 0 -3 7 8 15 19 15 19 16 1 48 l-19 32 26 -24 c15 -14 27 -32 27 -42z
m-166 22 c9 -14 -13 -27 -81 -50 -66 -22 -133 -28 -133 -11 0 37 195 93 214
61z m76 -60 c0 -21 -64 -55 -104 -55 -32 -1 -41 3 -44 18 -3 15 1 18 22 14 19
-4 30 0 37 13 7 14 21 19 49 19 22 0 40 -4 40 -9z m472 -46 c6 -14 8 -28 5
-31 -10 -11 -37 17 -37 37 0 27 18 23 32 -6z m-143 6 c8 -5 9 -11 3 -15 -13
-8 -72 4 -72 15 0 11 51 11 69 0z m-544 -21 c41 -16 20 -30 -44 -30 -105 0
-211 -46 -211 -92 0 -13 -5 -18 -14 -15 -8 3 -33 11 -56 17 -23 6 -40 13 -39
15 26 23 146 96 171 104 45 13 161 13 193 1z m449 -34 c23 -18 60 -43 83 -54
22 -12 55 -38 72 -59 52 -63 91 -193 59 -193 -7 0 -32 7 -55 16 -58 22 -96 7
-117 -47 -21 -52 -20 -106 4 -222 22 -107 17 -142 -23 -152 -30 -8 -97 19 -97
39 0 8 12 19 28 24 l27 10 -29 1 c-16 1 -38 -6 -48 -16 -20 -18 -24 -63 -6
-81 17 -17 123 -15 158 3 35 18 45 49 37 118 -4 29 -9 77 -13 109 -4 31 -4 68
0 82 11 44 96 71 96 31 0 -14 -22 -25 -51 -25 -25 0 -34 -22 -19 -49 15 -29
33 -26 73 9 39 34 51 38 43 13 -3 -10 -15 -89 -26 -175 -49 -378 -156 -526
-364 -504 -96 11 -128 23 -203 75 -92 65 -161 133 -206 204 -27 42 -43 57 -60
57 -25 0 -67 26 -67 41 0 7 15 8 40 4 l39 -7 -5 34 c-5 27 0 41 26 73 37 47
26 56 -27 21 -23 -16 -51 -26 -73 -26 l-35 0 43 26 c23 14 42 29 42 35 0 5
-21 9 -47 10 l-48 1 32 14 c18 7 39 27 47 43 34 64 136 180 183 207 145 82
188 110 279 182 55 44 113 98 128 121 16 23 31 41 34 41 3 0 23 -15 46 -34z
m-190 18 c22 -8 20 -21 -4 -29 -21 -7 -60 10 -60 25 0 11 40 13 64 4z m-746
-21 c-10 -2 -26 -2 -35 0 -10 3 -2 5 17 5 19 0 27 -2 18 -5z m640 -23 c1 -9
-11 -23 -28 -33 -34 -21 -37 -17 -14 18 20 31 4 33 -37 5 -31 -23 -116 -40
-194 -40 -70 0 -84 12 -40 33 42 20 69 21 129 5 39 -10 47 -9 77 10 40 24 102
26 107 2z m587 -78 c-7 -7 -43 27 -68 63 -16 23 -10 20 26 -14 26 -25 44 -47
42 -49z m-1294 68 c19 -11 26 -30 10 -30 -5 0 -19 9 -32 20 -26 21 -11 27 22
10z m196 -91 c43 -17 95 -32 116 -32 42 -2 44 -16 4 -35 -43 -21 -135 12 -217
77 -25 20 -25 21 -3 21 12 0 57 -14 100 -31z m328 3 c38 -19 46 -31 34 -54
-12 -22 -33 -24 -25 -2 5 14 0 16 -35 11 -39 -5 -40 -5 -23 14 17 18 16 19
-27 20 -24 0 -53 4 -64 9 -19 8 -19 8 5 18 30 12 94 5 135 -16z m-522 1 c-7
-2 -21 -2 -30 0 -10 3 -4 5 12 5 17 0 24 -2 18 -5z m194 -90 c86 -43 102 -63
52 -63 l-32 0 19 -22 c19 -21 19 -21 -1 -14 -52 19 -123 26 -174 16 -80 -15
-108 -13 -131 12 -25 27 -27 53 -2 43 29 -11 213 -27 240 -20 l25 6 -25 26
c-14 14 -50 34 -79 45 l-54 19 43 -5 c24 -2 77 -22 119 -43z m446 16 c-8 -8
-16 -8 -30 0 -16 9 -14 10 12 11 21 0 26 -3 18 -11z m-608 -29 c0 -23 -29 -23
-56 0 l-24 20 40 -2 c28 -2 40 -8 40 -18z m450 10 c4 -6 -7 -10 -25 -10 -18 0
-29 4 -25 10 3 6 15 10 25 10 10 0 22 -4 25 -10z m-17 -47 c-10 -2 -26 -2 -35
0 -10 3 -2 5 17 5 19 0 27 -2 18 -5z m-269 -98 c7 -17 23 -40 34 -52 26 -29 5
-31 -30 -3 -20 16 -41 20 -99 20 -41 0 -74 4 -74 10 0 20 44 32 98 27 54 -6
54 -6 35 15 -18 20 -18 20 2 17 11 -3 26 -18 34 -34z m211 10 c-7 -9 -23 -21
-34 -27 -16 -8 -14 -3 8 21 29 31 51 36 26 6z m-412 -36 c2 -32 1 -33 -13 -15
-18 24 -20 59 -2 54 6 -3 13 -20 15 -39z m112 -35 c0 -11 -34 -33 -50 -33 -10
-1 -6 6 10 19 26 20 40 25 40 14z m143 -76 c27 -19 36 -38 18 -38 -14 0 -71
50 -71 61 0 11 9 7 53 -23z m231 -474 c84 -84 211 -153 331 -179 122 -27 178
-11 272 78 l53 50 0 -79 c0 -225 -50 -414 -117 -446 -15 -7 -26 -17 -24 -23 2
-5 6 -9 9 -8 25 7 524 255 520 258 -2 3 -66 -18 -142 -46 -177 -64 -192 -67
-201 -40 -8 27 -9 322 -1 349 l7 20 67 -19 c37 -11 137 -39 222 -61 l155 -42
210 -1 c208 -2 211 -2 303 -33 118 -41 152 -58 152 -80 0 -29 -40 -294 -51
-337 -16 -66 -61 -166 -72 -162 -6 2 -56 63 -111 137 -105 139 -145 177 -105
99 25 -50 50 -85 132 -186 68 -83 97 -152 97 -226 -1 -66 -29 -151 -52 -155
-9 -2 -34 14 -56 36 -39 39 -141 97 -151 86 -3 -4 12 -20 34 -38 154 -120 225
-267 225 -467 0 -154 -46 -267 -145 -358 -150 -136 -348 -158 -561 -61 -73 33
-71 19 4 -32 164 -113 435 -84 595 62 124 114 162 280 127 554 -8 63 -11 144
-7 220 7 142 34 357 46 369 11 11 28 -61 41 -168 14 -108 -18 -1012 -51 -1450
-12 -165 -19 -113 66 -564 24 -128 81 -537 92 -667 5 -57 4 -63 -19 -78 -13
-8 -114 -49 -223 -90 -110 -40 -279 -105 -375 -144 -96 -39 -294 -107 -440
-151 -146 -43 -308 -96 -360 -116 -206 -80 -207 -80 -268 -67 -31 7 -87 30
-125 52 -38 22 -74 40 -79 40 -23 0 4 -28 65 -70 l67 -45 -92 -11 c-103 -12
-136 -20 -158 -39 -8 -7 -37 -15 -65 -18 -27 -3 -87 -22 -132 -41 -44 -20 -97
-36 -116 -36 -62 0 -168 39 -204 75 -31 31 -33 37 -33 102 1 134 47 468 91
653 33 140 146 475 211 625 70 162 175 375 185 375 4 0 41 -34 84 -75 44 -43
97 -84 125 -97 69 -31 161 -29 289 7 127 35 309 41 363 12 32 -18 32 -17 32 6
0 31 39 89 69 102 22 9 23 14 18 78 -6 89 -22 106 -30 32 -7 -72 -27 -102 -85
-128 -42 -19 -66 -21 -222 -22 -96 0 -188 4 -205 8 l-30 8 35 -29 c19 -17 32
-33 28 -37 -26 -27 -209 -20 -271 10 -52 24 -114 81 -142 129 -29 50 -44 146
-44 281 -1 97 7 115 61 149 26 17 32 16 159 -15 105 -25 145 -30 198 -26 86 7
197 45 276 97 63 41 165 139 165 159 0 23 -23 9 -78 -48 -99 -101 -255 -161
-419 -161 -107 0 -167 15 -203 51 -58 59 -198 490 -186 575 8 61 47 134 106
199 28 30 50 62 50 70 0 38 -60 -25 -149 -158 -28 -43 -56 -75 -61 -72 -16 10
-151 216 -171 260 -19 43 -39 59 -39 32 0 -23 66 -151 114 -219 26 -37 61 -97
78 -135 40 -87 160 -424 154 -430 -3 -3 -25 3 -51 12 -34 14 -61 16 -110 12
-123 -12 -388 -118 -474 -191 -24 -20 -48 -33 -52 -29 -12 12 -38 119 -97 393
-76 350 -76 352 -76 525 0 136 3 172 23 240 48 172 104 250 246 342 120 79
276 191 405 291 52 41 110 82 128 91 31 14 35 14 46 -2 7 -9 16 -53 19 -97 7
-90 15 -110 52 -134 34 -22 40 -16 22 21 -32 61 -98 450 -96 570 0 57 0 58 16
33 9 -14 48 -57 87 -96z m691 -479 c0 -22 -31 -33 -48 -16 -7 7 -6 15 3 26 17
21 45 15 45 -10z m1132 -187 c-2 -13 -4 -5 -4 17 -1 22 1 32 4 23 2 -10 2 -28
0 -40z m33 -170 c0 -7 -5 -20 -10 -28 -8 -12 -10 -9 -10 13 0 15 5 27 10 27 6
0 10 -6 10 -12z m-2032 -1164 c12 -4 22 -14 22 -24 0 -17 -2 -17 -40 -3 -60
24 -47 44 18 27z m22 -114 c0 -26 7 -25 31 3 12 14 18 17 19 8 0 -23 -75 -87
-142 -120 -126 -62 -374 -107 -451 -82 -38 13 -54 38 -37 55 6 6 52 14 103 17
51 3 103 9 117 14 25 8 25 8 6 -14 -19 -21 -19 -21 1 -21 26 0 83 20 83 29 0
4 -5 12 -12 19 -16 16 -2 15 58 -3 63 -19 86 -20 62 -1 -22 17 -23 26 -2 26
11 0 15 6 11 20 -4 17 0 20 29 20 19 0 34 5 34 12 0 6 8 4 19 -6 18 -16 19
-16 29 13 12 35 42 42 42 11z m2220 -1585 c0 -23 -75 -100 -167 -172 -46 -36
-83 -69 -83 -75 0 -11 40 13 144 84 88 60 126 64 96 9 -14 -28 -96 -76 -178
-105 -40 -14 -89 -34 -110 -45 -157 -79 -215 -112 -258 -146 -268 -215 -422
-395 -337 -395 39 0 293 263 293 304 0 25 28 56 52 56 27 0 91 34 183 98 l80
56 -95 -103 c-52 -57 -108 -119 -123 -137 -53 -63 -9 -34 95 62 114 107 213
184 302 238 67 41 79 43 74 19 -2 -10 3 -23 12 -30 13 -10 10 -17 -25 -53 -47
-50 -130 -100 -164 -100 -19 0 -7 13 57 56 87 60 118 94 84 94 -10 0 -31 -13
-47 -30 -15 -16 -43 -34 -61 -40 -50 -17 -150 -137 -131 -156 23 -23 252 117
312 190 41 50 42 56 14 56 -18 0 -19 2 -9 15 12 14 100 23 100 10 0 -3 -11
-22 -24 -43 -18 -28 -24 -50 -23 -88 1 -66 -30 -121 -118 -202 -63 -59 -188
-131 -259 -148 -47 -11 -23 11 39 37 51 21 71 39 44 39 -6 0 -54 -18 -106 -41
-167 -71 -121 -19 74 85 190 102 313 192 313 230 0 10 -39 -13 -95 -55 -27
-20 -122 -76 -209 -123 -173 -93 -253 -149 -275 -189 -22 -41 -9 -57 47 -57
60 0 160 32 307 98 61 27 127 54 147 61 50 17 115 84 128 133 13 45 26 53 63
39 39 -15 34 -42 -18 -101 -52 -58 -55 -81 -20 -116 23 -22 31 -25 68 -19 l42
7 -25 -27 c-14 -15 -53 -45 -87 -67 -35 -22 -63 -46 -63 -53 0 -22 -203 -81
-360 -105 -41 -6 -86 -13 -100 -16 -41 -9 -12 9 95 58 55 26 129 52 165 58 89
15 193 64 188 87 -6 29 -89 21 -198 -20 -52 -20 -223 -98 -380 -175 -157 -76
-350 -170 -429 -208 -79 -38 -138 -70 -130 -72 8 -1 87 27 174 64 217 90 314
124 354 124 95 0 235 -128 316 -290 15 -31 9 -27 -42 27 -70 73 -161 134 -246
162 -72 25 -177 39 -177 24 0 -11 66 -33 101 -33 76 0 295 -145 335 -222 10
-19 22 -28 40 -28 20 0 29 -9 44 -42 34 -78 180 -476 180 -489 0 -8 -41 65
-91 161 -118 227 -184 325 -291 433 -94 94 -125 109 -114 56 3 -17 6 -37 6
-45 0 -7 41 -64 91 -126 90 -112 129 -173 129 -203 0 -26 -26 -17 -107 39 -43
29 -97 63 -120 75 -98 49 -261 65 -377 35 -111 -28 -253 -112 -335 -198 -52
-54 -29 -56 36 -3 142 114 258 166 390 175 142 9 266 -29 396 -121 105 -73
141 -80 153 -30 10 37 -43 131 -146 261 -89 112 -101 132 -79 132 48 0 275
-368 395 -640 26 -58 81 -211 124 -340 43 -129 81 -244 86 -255 8 -20 8 -20
-21 -1 -105 67 -194 170 -314 359 -66 104 -100 126 -256 159 l-110 23 90 6
c50 3 105 9 123 13 29 7 41 3 77 -23 53 -38 67 -39 63 -4 -6 49 -32 55 -243
49 -250 -6 -458 -41 -615 -103 -106 -42 -136 -67 -196 -158 -70 -108 -162
-298 -170 -353 -3 -23 -15 -53 -26 -67 -22 -28 -27 -77 -9 -99 25 -30 39 -897
15 -959 -18 -49 -96 14 -160 130 -49 89 -106 173 -134 198 -12 11 -32 38 -44
60 -53 101 -4 516 135 1130 28 121 59 261 70 310 10 50 22 101 25 115 3 16 2
22 -4 15 -6 -5 -40 -116 -75 -245 -70 -249 -98 -329 -105 -296 -2 10 3 44 12
75 8 31 20 95 26 142 24 200 103 400 293 747 88 161 70 99 -35 -113 -55 -112
-98 -210 -96 -217 2 -6 37 51 78 128 131 249 261 448 431 659 140 174 292 311
529 477 126 87 160 120 154 145 -4 15 0 22 15 26 16 4 21 0 21 -14 0 -39 32
-17 184 124 64 59 121 107 126 107 6 0 10 -7 10 -15z m-114 -30 c-22 -17 -66
-20 -66 -6 0 13 19 19 55 20 29 0 29 0 11 -14z m-76 -65 c0 -12 -53 -40 -75
-40 -33 0 -93 -41 -195 -132 -58 -52 -163 -140 -235 -198 -152 -121 -430 -398
-575 -572 -56 -68 -111 -129 -121 -137 -17 -12 -19 -11 -19 4 0 10 20 36 45
58 46 41 57 67 30 67 -8 0 -15 2 -15 5 0 10 81 184 109 235 31 56 39 90 21 90
-18 0 -115 -47 -172 -84 -46 -29 -58 -42 -58 -62 0 -15 -22 -63 -49 -108 -26
-44 -74 -127 -106 -184 -31 -57 -59 -101 -62 -98 -11 11 130 298 183 374 9 12
12 22 7 22 -5 0 -95 -52 -199 -116 -242 -150 -416 -240 -579 -303 -159 -60
-185 -72 -185 -82 0 -17 191 34 285 76 32 14 61 23 64 19 6 -6 -3 -14 -69 -65
l-34 -26 29 -15 c27 -15 28 -16 8 -26 -11 -6 -78 -27 -148 -47 -131 -37 -190
-42 -190 -15 0 10 30 23 93 42 173 51 162 62 -23 23 -87 -19 -166 -27 -285
-32 -223 -8 -230 -4 -190 112 11 32 20 75 20 95 0 48 6 52 43 33 23 -11 48
-14 96 -10 60 5 64 4 46 -10 -18 -14 -12 -15 70 -9 127 8 187 29 169 58 -3 4
-87 8 -187 9 -247 0 -200 15 94 29 381 18 679 62 679 100 0 13 10 13 -106 -10
-54 -10 -142 -24 -194 -29 -119 -13 -397 -26 -390 -18 6 6 320 60 483 82 160
21 215 40 378 130 145 79 203 97 105 32 -31 -20 -56 -42 -56 -47 0 -25 31 -19
74 13 25 19 80 54 123 77 106 56 120 67 105 82 -17 17 -97 -4 -307 -79 -436
-157 -576 -198 -805 -232 -206 -30 -218 -32 -224 -22 -7 11 22 37 57 50 16 6
88 45 159 87 160 94 373 196 490 235 74 25 118 32 277 44 213 16 323 29 450
51 47 9 91 17 96 18 6 0 12 -3 15 -9 10 -19 -50 -36 -162 -46 -255 -23 -645
-103 -748 -153 -57 -27 -170 -106 -170 -118 0 -21 53 -18 111 7 65 27 75 30
209 64 41 10 153 44 247 75 186 60 251 69 328 42 34 -12 40 -12 43 -1 2 10 22
15 60 17 l57 3 41 63 c23 35 63 88 89 119 69 79 219 207 284 241 148 79 561
191 561 152z m-745 -260 c-17 -19 -104 -52 -175 -66 -66 -13 -160 -45 -160
-54 0 -15 58 -12 145 9 44 11 82 17 84 15 3 -3 -4 -13 -15 -24 -29 -30 -121
-48 -329 -65 -222 -18 -263 -19 -249 -6 22 22 631 209 683 210 33 1 34 1 16
-19z m285 -219 c0 -12 -179 -201 -191 -201 -20 0 39 75 109 140 80 73 82 75
82 61z m-2086 -67 c8 -39 64 -101 99 -108 104 -20 147 -30 180 -44 35 -13 37
-16 23 -30 -13 -13 -22 -14 -54 -4 -29 9 -54 9 -93 2 -33 -7 -107 -8 -189 -4
-114 6 -137 4 -148 -8 -7 -9 -9 -23 -6 -33 6 -15 15 -16 58 -11 112 13 343 19
350 8 9 -14 -46 -52 -101 -68 -47 -14 -187 -19 -241 -8 -41 8 -112 70 -112 97
0 30 105 129 133 125 29 -4 36 -38 8 -38 -12 0 -21 -6 -21 -15 0 -10 11 -15
35 -15 30 0 35 3 35 23 0 12 -9 37 -20 55 -26 43 -25 56 6 77 14 9 23 22 20
30 -2 7 -2 16 1 19 11 11 31 -15 37 -50z m726 15 c0 -12 -86 -52 -103 -46 -12
4 71 57 91 57 6 0 12 -5 12 -11z m-155 -58 c3 -5 -7 -18 -22 -28 -66 -45 -118
-49 -70 -6 42 39 80 52 92 34z m494 -16 c-15 -15 -101 -35 -87 -20 7 7 77 34
93 35 5 0 2 -7 -6 -15z m-631 -7 c-3 -7 -22 -14 -44 -16 -39 -2 -39 -2 -14 13
31 18 63 19 58 3z m475 -43 c-60 -26 -149 -47 -184 -43 l-34 4 30 13 c32 14
153 38 195 40 23 0 22 -1 -7 -14z m551 -33 c14 -23 -162 -381 -224 -456 -41
-49 -57 -87 -45 -105 3 -6 -1 -11 -10 -11 -20 0 -53 -72 -62 -135 -3 -26 -15
-57 -27 -70 -12 -13 -29 -33 -38 -46 -16 -22 -16 -19 1 31 31 92 119 307 188
459 47 103 62 146 53 151 -21 13 -1 49 39 69 50 26 69 49 47 57 -20 8 -12 20
28 45 34 21 42 23 50 11z m1426 -47 c-7 -8 -21 -15 -32 -15 -17 0 -18 3 -8 15
7 8 21 15 32 15 17 0 18 -3 8 -15z m-191 -188 c8 -37 11 -70 7 -74 -11 -12
-29 15 -35 54 -8 48 -32 54 -48 12 -7 -17 -17 -28 -22 -24 -6 3 -11 0 -12 -7
-2 -26 1 -94 7 -150 4 -35 2 -58 -4 -58 -5 0 -23 36 -41 79 -38 98 -41 158 -8
189 30 28 86 52 117 49 22 -2 26 -9 39 -70z m-273 -18 c29 -24 59 -81 108
-204 49 -124 71 -161 80 -134 2 8 7 40 11 72 4 39 12 60 22 64 8 3 21 20 29
37 l13 31 1 -41 c0 -23 -7 -59 -16 -80 -12 -29 -14 -55 -9 -116 5 -54 4 -78
-4 -78 -6 0 -11 11 -11 24 0 13 -7 30 -16 37 -14 11 -18 11 -29 -4 -12 -16
-19 -7 -65 80 -64 120 -119 202 -177 267 -23 26 -43 53 -43 58 0 15 86 4 106
-13z m-1336 -87 c-16 -44 -68 -217 -115 -384 -120 -422 -164 -567 -186 -610
-19 -36 -93 -97 -105 -85 -3 3 15 59 39 124 25 65 82 237 128 383 66 212 83
280 85 337 3 93 31 154 114 251 35 40 64 71 66 69 2 -2 -9 -40 -26 -85z m387
11 c-40 -55 -77 -91 -77 -76 0 20 99 137 108 128 2 -2 -12 -26 -31 -52z m-537
12 c0 -6 -87 -65 -96 -65 -12 0 20 33 51 52 29 18 45 22 45 13z m-5 -72 c-125
-112 -265 -207 -281 -190 -2 2 40 33 93 69 54 36 125 86 158 112 72 54 85 59
30 9z m-49 -167 c-16 -68 -95 -248 -115 -260 -16 -10 -14 27 4 71 8 19 15 44
15 56 0 17 -5 19 -37 14 -21 -3 -47 -8 -58 -13 -11 -4 30 40 90 98 61 58 111
105 113 103 2 -1 -4 -32 -12 -69z m384 25 c-1 -9 -12 -36 -26 -61 -17 -30 -23
-37 -20 -20 3 14 8 49 12 79 6 49 8 52 20 36 8 -11 14 -26 14 -34z m-705 -161
c-16 -16 -34 -30 -39 -30 -12 1 49 60 61 60 4 0 -6 -13 -22 -30z m-485 0 c0
-5 -12 -10 -26 -10 -14 0 -23 4 -19 10 3 6 15 10 26 10 10 0 19 -4 19 -10z
m770 -122 c-35 -120 -53 -168 -65 -168 -21 0 -101 57 -168 120 -37 34 -67 57
-67 50 0 -7 22 -49 49 -94 71 -117 121 -219 128 -258 5 -32 -17 -98 -33 -98
-9 0 -70 140 -117 270 -25 69 -53 142 -61 162 -11 25 -12 39 -5 43 21 13 86
-7 178 -56 51 -28 95 -49 96 -47 1 2 20 48 41 103 30 76 40 93 42 73 2 -15 -6
-60 -18 -100z m-334 -111 c26 -61 69 -173 96 -247 54 -151 55 -161 11 -285
-35 -97 -73 -169 -83 -159 -11 12 -74 230 -145 507 -53 210 -73 352 -52 373
16 17 31 -20 63 -158 36 -155 95 -349 101 -332 2 6 -8 65 -22 130 -42 195 -65
317 -65 349 1 29 2 28 26 -18 13 -26 45 -98 70 -160z m-362 160 c17 -13 16
-19 -12 -128 -17 -64 -38 -133 -47 -155 l-17 -39 -13 30 c-7 17 -20 80 -30
140 -9 61 -18 122 -21 138 l-6 27 64 0 c37 0 72 -6 82 -13z m81 -44 c-21 -86
-135 -415 -128 -368 18 124 112 425 133 425 4 0 2 -26 -5 -57z m493 35 c4 -21
-16 -23 -53 -6 -37 17 -31 30 12 26 27 -2 39 -8 41 -20z m-303 -587 l95 -341
-71 -183 c-39 -100 -75 -186 -79 -190 -15 -17 -54 138 -90 354 -14 88 -20 166
-19 269 1 126 13 305 17 259 7 -67 45 -336 56 -389 24 -116 37 -153 47 -143 7
7 3 54 -10 137 -34 207 -65 593 -46 574 3 -3 48 -159 100 -347z m351 335 c7
-19 -13 -56 -31 -56 -12 0 -45 47 -45 65 0 12 71 4 76 -9z m-593 -214 c-23
-146 -27 -207 -27 -349 1 -95 -2 -173 -7 -173 -31 0 -48 227 -30 390 15 124
24 168 59 275 37 113 39 70 5 -143z m77 173 c0 -14 -4 -25 -10 -25 -5 0 -10
11 -10 25 0 14 5 25 10 25 6 0 10 -11 10 -25z m-28 -182 c-10 -26 -10 -24 -11
22 0 42 2 46 11 28 7 -15 7 -30 0 -50z m1943 -8 c50 -8 131 -25 180 -38 l90
-22 3 -35 c2 -20 -4 -53 -13 -73 -13 -31 -19 -36 -30 -27 -8 6 -19 28 -26 48
-16 50 -29 63 -29 28 0 -15 14 -58 30 -96 36 -81 35 -80 10 -80 -11 0 -20 6
-20 13 0 41 -158 209 -168 179 -1 -5 21 -34 50 -64 29 -30 66 -80 82 -111 l28
-57 -25 -97 c-13 -53 -29 -98 -33 -100 -5 -2 -54 33 -108 77 -164 132 -135 79
52 -93 64 -59 136 -120 159 -135 50 -31 51 -38 32 -207 -16 -145 -17 -151 -34
-134 -7 8 -55 93 -105 189 -50 96 -96 180 -102 185 -22 21 4 -49 72 -193 l70
-147 -98 100 c-64 66 -106 120 -125 158 -15 31 -29 57 -30 57 -1 0 -3 -33 -4
-74 -2 -80 -54 -329 -78 -376 -35 -68 -126 -76 -206 -18 -53 38 -121 108 -171
175 -21 29 -42 53 -47 53 -18 0 -20 -15 -5 -38 12 -19 15 -37 10 -76 -25 -187
-167 -706 -374 -1361 -162 -514 -360 -1123 -373 -1146 l-14 -24 -3 23 c-2 12
4 57 12 99 9 42 14 78 12 80 -2 2 -14 -12 -26 -31 -23 -38 -37 -45 -46 -23 -9
25 131 428 158 452 8 7 9 5 6 -5 -57 -165 -90 -285 -72 -268 21 21 219 633
264 818 24 98 39 140 50 140 33 0 55 91 29 117 -12 12 -4 69 12 78 5 4 9 -6 9
-21 0 -17 4 -24 9 -18 17 18 59 150 76 239 9 49 25 101 36 117 l20 28 -20 29
c-27 38 -27 59 2 63 17 2 22 10 23 33 0 23 4 29 18 27 14 -3 17 1 12 13 -3 9
5 42 18 73 28 68 60 195 54 214 -3 7 -18 -26 -33 -74 -15 -49 -30 -88 -34 -88
-4 0 -6 30 -4 68 4 75 -10 60 -22 -24 -12 -85 -25 -124 -41 -124 -18 0 -16 30
10 140 18 76 109 787 103 804 -8 20 -27 -44 -43 -143 -21 -136 -24 -144 -39
-131 -22 18 -25 -12 -25 -258 -1 -261 -12 -288 -30 -71 -8 100 -8 187 0 325
17 312 28 365 110 541 83 177 124 220 264 274 145 56 314 72 481 44z m-1968
-232 c-2 -21 -4 -4 -4 37 0 41 2 58 4 38 2 -21 2 -55 0 -75z m707 7 c-15 -116
-105 -492 -171 -710 -50 -166 -133 -403 -230 -655 -109 -282 -106 -275 -114
-275 -23 0 -22 231 1 254 5 5 10 47 10 92 0 46 4 85 9 89 14 8 23 -30 15 -70
-8 -46 2 -45 22 3 53 125 296 902 315 1005 21 119 65 239 116 316 21 33 35 10
27 -49z m1617 -31 c70 -146 189 -952 279 -1899 34 -360 73 -635 101 -707 25
-65 138 -183 177 -183 22 0 0 29 -54 71 -91 70 -103 105 -138 379 -25 199
-146 1353 -142 1357 2 2 11 -20 21 -50 9 -30 26 -67 37 -83 l20 -29 -7 30
c-66 285 -225 1039 -224 1062 2 38 39 -70 94 -267 30 -112 58 -207 62 -210 9
-8 -6 116 -23 185 -17 72 -18 98 -4 74 31 -53 143 -613 274 -1374 31 -176 69
-387 86 -469 39 -195 39 -198 -10 -243 -50 -44 -110 -145 -117 -193 -5 -34 -3
-33 36 28 22 34 45 62 50 62 14 0 27 -47 56 -200 31 -168 31 -226 0 -396 -14
-74 -25 -163 -24 -197 l1 -62 13 50 c7 28 19 79 27 115 l13 65 29 -175 c27
-164 51 -270 41 -175 -34 293 -50 972 -22 905 3 -8 15 -127 27 -265 44 -518
83 -815 116 -890 25 -56 30 -23 9 66 -9 40 -14 73 -11 76 5 5 63 -90 101 -166
l27 -54 -61 6 c-78 7 -104 24 -136 90 -14 28 -55 93 -91 142 -114 158 -125
192 -149 460 -18 207 -30 285 -46 300 -26 23 17 -435 53 -570 17 -61 35 -100
84 -171 67 -98 102 -162 135 -246 11 -29 48 -111 82 -181 58 -123 60 -130 46
-155 -9 -17 -44 -42 -94 -67 -60 -31 -86 -51 -110 -85 -23 -32 -42 -48 -69
-55 -20 -6 -58 -27 -83 -48 -27 -22 -62 -40 -85 -43 -21 -4 -38 -8 -38 -10 0
-2 12 -15 26 -29 19 -19 23 -30 17 -48 -4 -12 -8 -39 -8 -60 0 -31 -3 -37 -17
-34 -12 4 -20 -4 -28 -27 -6 -18 -26 -48 -46 -67 -68 -65 -78 -91 -70 -181 9
-107 25 -136 26 -47 0 98 30 177 49 128 l9 -24 7 28 c13 49 20 29 18 -50 -2
-73 -2 -76 10 -44 l13 34 14 -59 15 -59 5 70 c5 76 14 77 25 2 9 -58 20 -61
23 -5 2 24 8 59 14 78 11 33 11 34 20 10 8 -22 -5 -321 -17 -396 l-6 -32 -97
-7 c-298 -21 -477 -29 -481 -22 -3 7 6 62 25 169 4 19 20 36 55 58 47 29 68
54 56 67 -3 3 -18 -4 -33 -16 -34 -27 -38 -26 -52 4 -24 52 -12 74 41 76 18 0
15 3 -10 12 -47 18 -51 27 -10 27 20 0 39 5 42 10 3 6 -2 10 -13 10 -28 0 -82
20 -82 31 0 5 30 9 68 9 45 0 62 3 52 10 -13 8 -12 13 6 37 11 15 39 37 62 48
23 11 41 27 42 37 0 10 14 21 35 28 43 14 50 46 8 35 -66 -18 -148 -33 -153
-29 -9 10 27 24 115 45 49 11 97 25 107 30 27 15 12 29 -22 22 -48 -9 -35 5
34 36 55 25 91 51 70 51 -4 0 -49 -13 -99 -30 -101 -32 -195 -50 -263 -50 -49
0 -86 -16 -76 -32 5 -7 40 -8 108 -3 110 7 116 -1 24 -29 -32 -9 -58 -20 -58
-23 0 -3 11 -18 25 -35 27 -32 32 -57 13 -76 -20 -20 -28 -14 -47 32 -13 29
-27 45 -43 49 -12 3 -111 11 -218 17 -264 14 -481 35 -825 77 -183 22 -332 35
-405 35 -66 0 -194 10 -300 24 -102 13 -356 42 -565 64 -209 22 -397 43 -419
46 l-38 6 43 45 c50 51 173 149 268 213 l64 43 216 -13 c119 -7 230 -15 248
-19 l31 -6 -24 -60 c-14 -33 -28 -81 -31 -107 -5 -42 -3 -50 24 -77 56 -55
138 -65 404 -47 114 8 131 7 190 -12 86 -29 193 -46 514 -82 149 -16 324 -39
390 -50 66 -11 131 -20 146 -20 14 0 63 18 110 41 46 22 102 44 124 48 29 5
39 11 37 23 -1 9 7 23 19 32 l21 15 -20 28 c-23 33 -42 110 -23 99 6 -4 11
-13 11 -20 0 -7 9 -25 21 -40 18 -23 28 -26 79 -26 74 0 87 13 72 72 -6 23 -9
44 -8 46 2 2 14 -13 26 -32 25 -41 39 -44 65 -16 19 21 16 51 -9 85 -21 29
-29 13 -17 -32 9 -34 9 -36 -4 -19 -19 25 -19 67 0 113 8 19 15 39 15 44 0 13
-30 39 -45 39 -17 0 -125 -131 -125 -152 0 -17 -27 -44 -36 -36 -2 3 0 25 5
49 5 23 7 47 5 51 -3 5 -21 6 -41 2 l-35 -7 27 51 c15 28 24 56 20 62 -9 15
-35 12 -35 -5 0 -18 -12 -19 -28 -3 -24 24 -14 45 26 52 63 10 130 7 135 -6 6
-17 42 3 42 23 0 10 -14 14 -48 14 -26 0 -47 2 -47 5 0 12 70 49 97 52 24 3
28 0 25 -21 -3 -16 1 -22 10 -19 17 6 22 51 8 78 -14 25 -45 26 -105 0 -26
-11 -56 -20 -68 -20 l-21 0 22 16 c16 11 22 25 22 53 0 51 9 56 41 25 l28 -27
7 27 c9 36 0 124 -15 139 -8 8 -11 0 -11 -31 0 -25 -5 -42 -11 -42 -12 0 -5
81 10 123 8 20 12 15 36 -41 31 -70 40 -75 26 -13 -6 27 -5 43 1 47 16 10 28
-17 28 -68 0 -56 -7 -78 -26 -78 -8 0 -14 -5 -14 -12 0 -22 33 -48 62 -48 l29
0 -7 57 c-6 53 -6 57 10 44 14 -12 16 -10 16 17 0 17 -4 34 -10 37 -5 3 -10
12 -10 18 0 7 14 -3 31 -21 24 -27 29 -40 24 -61 -5 -24 -3 -28 17 -27 21 1
25 -9 51 -109 35 -139 112 -368 140 -420 23 -41 44 -46 39 -8 -1 12 -16 51
-32 87 -17 36 -30 76 -30 88 0 13 -12 55 -26 93 -13 39 -44 131 -69 205 -24
74 -52 160 -63 190 -11 30 -25 102 -32 160 -15 138 -25 693 -15 845 l8 120 39
-225 c21 -124 56 -351 79 -505 55 -380 99 -587 162 -760 33 -91 127 -262 127
-231 0 11 -49 132 -80 201 -76 165 -113 319 -164 690 -19 138 -62 439 -95 670
-95 663 -122 917 -171 1619 -25 352 -50 583 -90 830 -17 99 -30 195 -30 214 0
42 19 39 41 -9z m-1575 -44 c27 -65 12 -272 -27 -383 -18 -53 -28 -24 -19 58
4 41 11 139 15 218 4 78 9 142 12 142 2 0 11 -16 19 -35z m1460 -122 c20 -27
17 -53 -6 -53 -33 0 -45 -45 -29 -109 8 -30 20 -57 28 -59 14 -5 13 10 -5 83
-5 21 -4 27 7 23 20 -6 55 -116 41 -130 -18 -18 -61 1 -83 35 -24 38 -22 116
6 185 19 47 22 49 41 25z m-2168 -95 c8 -47 9 -75 3 -81 -15 -15 -40 10 -47
48 -6 33 11 105 25 105 4 0 12 -32 19 -72z m456 -119 c-56 -175 -100 -289
-120 -309 -14 -15 68 239 126 390 50 128 47 82 -6 -81z m2146 70 c0 -12 -27
-11 -35 1 -11 17 5 32 21 19 8 -6 14 -15 14 -20z m-350 -45 c0 -14 -4 -23 -9
-20 -5 3 -7 15 -4 26 7 28 13 25 13 -6z m-1999 -233 c-48 -119 -110 -244 -158
-321 -37 -59 -101 -130 -116 -130 -30 0 37 133 124 247 26 34 78 119 114 188
37 69 69 124 72 121 2 -2 -14 -50 -36 -105z m2045 -192 c10 -156 17 -381 18
-584 1 -293 -2 -361 -27 -609 -16 -153 -26 -280 -24 -282 2 -3 14 39 26 93 12
54 24 103 26 108 2 6 4 -102 5 -240 1 -338 18 -301 30 67 5 156 10 306 10 333
1 46 2 48 13 25 8 -18 12 -140 12 -410 0 -379 -6 -490 -40 -743 -18 -127 -18
-127 -6 -127 10 0 21 42 51 205 l19 100 -2 -335 c-1 -184 -6 -341 -11 -348 -6
-10 -11 -11 -19 -3 -6 6 -33 11 -60 11 -45 0 -49 -2 -62 -32 -7 -18 -25 -44
-40 -58 -15 -14 -43 -56 -62 -93 -42 -85 -105 -271 -101 -300 2 -14 17 -28 41
-40 53 -25 48 -66 -18 -152 -17 -22 -51 -74 -75 -115 -24 -41 -56 -92 -72
-112 -34 -43 -30 -66 7 -42 14 9 31 14 40 11 11 -5 13 0 9 21 -4 19 1 36 16
55 29 37 46 35 18 -3 l-22 -30 24 -25 23 -24 -24 -9 c-13 -5 -42 -12 -64 -16
-21 -4 -51 -14 -65 -21 -21 -11 -31 -11 -56 0 -59 25 -245 53 -459 70 -305 23
-464 50 -524 86 -36 22 -44 54 -10 44 17 -6 20 -4 16 12 -68 235 -113 345
-178 430 -22 29 -36 53 -31 53 15 0 70 -45 110 -90 24 -27 41 -40 45 -32 4 6
-31 51 -83 107 -49 53 -90 100 -90 104 0 10 25 21 48 21 22 0 52 30 52 52 0
12 7 18 23 18 12 0 85 5 162 10 267 19 432 59 580 142 240 134 492 308 446
308 -7 0 -38 -17 -69 -38 -90 -61 -388 -240 -463 -278 -110 -56 -399 -119
-399 -87 0 6 35 23 78 38 96 35 161 67 145 72 -6 2 -81 -14 -165 -36 -84 -21
-207 -52 -272 -67 l-120 -27 -29 34 c-53 62 -86 159 -54 159 7 0 26 -14 42
-30 20 -21 38 -30 60 -30 65 0 194 88 336 230 94 94 159 186 240 344 35 70 59
104 67 101 14 -5 93 70 133 126 24 34 17 32 -40 -8 -23 -17 -24 -17 -16 7 9
30 186 385 257 518 53 98 72 117 38 38 -23 -55 -23 -56 -10 -56 17 0 91 168
100 227 4 33 32 113 64 186 59 136 90 230 83 250 -3 6 -19 -19 -37 -58 -132
-287 -176 -379 -289 -600 -123 -239 -222 -419 -241 -439 -21 -21 -16 3 17 77
19 44 32 81 29 85 -8 8 -96 -182 -146 -318 -89 -240 -154 -343 -308 -492 -135
-131 -247 -201 -267 -168 -12 20 -6 185 10 284 17 105 79 328 120 431 15 39
64 142 108 230 44 88 113 232 154 320 84 182 131 265 151 265 10 0 12 10 7 44
-8 48 10 75 21 32 6 -26 -11 -92 -27 -102 -28 -17 -155 -315 -145 -340 9 -23
38 -17 31 5 -5 16 -2 18 15 14 18 -5 19 -2 14 26 -4 20 -2 31 5 31 6 0 22 21
35 48 21 39 25 43 25 22 1 -32 -60 -171 -94 -215 -16 -22 -20 -32 -10 -29 33
13 12 -20 -56 -86 -39 -39 -78 -70 -85 -70 -14 0 -60 -79 -47 -81 5 -1 18 0
29 0 31 3 37 -24 9 -37 -27 -12 -40 -58 -31 -107 14 -74 38 -57 99 68 101 210
211 542 204 619 -3 42 -2 47 17 50 18 3 22 13 29 63 21 154 49 232 88 242 17
5 18 12 13 77 -6 62 -3 79 20 133 27 65 56 173 55 208 0 29 -21 -14 -173 -353
-221 -492 -375 -812 -376 -783 0 8 27 84 60 169 83 210 151 411 216 636 52
182 65 242 134 631 18 99 36 186 39 193 5 8 18 -2 40 -33 57 -80 180 -155 254
-155 88 0 133 58 147 194 9 84 35 186 48 186 4 0 43 -32 87 -71 44 -39 99 -84
122 -100 52 -36 83 -100 112 -229 34 -152 51 -310 58 -535 6 -241 -5 -373 -43
-506 -29 -103 -30 -161 0 -94 40 91 85 355 86 510 2 145 -17 809 -25 878 -9
79 3 253 15 221 4 -11 16 -135 26 -275z m-1626 256 c0 -14 -4 -25 -10 -25 -5
0 -10 11 -10 25 0 14 5 25 10 25 6 0 10 -11 10 -25z m2065 -247 c35 -106 123
-375 196 -598 l132 -405 -17 -305 c-20 -355 -30 -471 -47 -501 -16 -31 -25
-11 -33 81 -17 188 -95 680 -196 1245 -75 415 -117 696 -104 682 3 -3 35 -93
69 -199z m-506 -130 c-1 -38 -3 -46 -8 -28 -7 24 -3 80 5 80 2 0 4 -24 3 -52z
m-1604 -1 c8 -19 17 -67 21 -108 6 -66 4 -81 -20 -136 -29 -70 -119 -422 -165
-650 -72 -354 -84 -638 -38 -887 15 -77 25 -142 23 -144 -7 -6 -31 45 -54 113
-21 61 -55 214 -92 410 -12 60 -26 115 -32 123 -23 27 -33 5 -33 -79 -1 -46
-4 -100 -9 -119 -7 -33 -6 -36 16 -35 12 0 23 -4 23 -10 0 -12 -120 -14 -132
-2 -4 5 0 14 9 21 26 19 34 47 67 246 48 278 77 371 254 815 64 160 119 306
122 325 5 33 4 32 -19 -15 -13 -27 -39 -86 -57 -130 -18 -43 -34 -74 -36 -68
-4 11 127 363 134 363 2 0 10 -15 18 -33z m-387 -94 c-7 -15 -17 -25 -23 -23
-12 5 -9 23 13 70 l16 35 4 -27 c2 -15 -3 -40 -10 -55z m472 -428 c11 -141 20
-195 59 -340 35 -132 49 -375 21 -375 -16 0 -68 76 -84 123 -9 26 -21 89 -26
140 -14 125 -17 556 -6 692 l10 110 8 -105 c4 -58 12 -168 18 -245z m81 238
c53 -77 69 -147 79 -347 10 -193 -2 -512 -19 -529 -15 -15 -18 1 -30 143 -5
69 -19 159 -31 200 -32 117 -40 173 -50 358 -9 170 -6 237 11 226 5 -3 23 -26
40 -51z m-721 32 c26 -31 -34 -97 -75 -82 -31 12 -30 39 3 69 36 32 54 35 72
13z m54 -72 c-11 -53 -26 -93 -33 -93 -13 0 -31 24 -31 41 0 19 46 79 61 79 5
0 7 -12 3 -27z m292 -131 c-26 -73 -59 -142 -67 -142 -10 0 35 124 57 158 21
32 25 27 10 -16z m208 -228 c13 -396 25 -451 121 -550 39 -41 48 -46 75 -41
36 8 36 8 10 -35 -25 -44 -67 -156 -90 -243 -10 -38 -51 -144 -89 -235 -101
-235 -121 -274 -132 -263 -16 16 -39 145 -39 223 0 69 16 217 71 664 22 174
22 277 1 298 -9 9 -12 0 -12 -43 0 -29 -7 -62 -14 -72 -9 -11 -12 -33 -8 -62
6 -54 -14 -63 -23 -11 -10 52 12 175 43 239 26 52 27 57 10 57 -25 0 -23 12 7
38 22 20 25 30 25 94 0 39 5 101 12 137 17 97 24 53 32 -195z m2143 134 c-2
-13 -4 -5 -4 17 -1 22 1 32 4 23 2 -10 2 -28 0 -40z m-1704 -35 c-9 -63 -52
-230 -68 -265 -12 -26 -14 -27 -10 -8 2 14 7 61 11 105 7 93 20 149 41 182 22
34 32 28 26 -14z m-113 -113 c-6 -37 -8 -28 -8 45 0 73 2 82 8 45 4 -25 4 -65
0 -90z m1842 18 c-9 -20 -11 -18 -11 22 0 40 2 42 11 23 8 -17 8 -29 0 -45z
m-2468 -10 c-21 -68 -29 -90 -66 -170 -32 -69 -54 -90 -42 -40 10 42 72 200
91 233 26 44 34 35 17 -23z m2496 -133 c0 -14 -4 -25 -10 -25 -5 0 -10 11 -10
25 0 14 5 25 10 25 6 0 10 -11 10 -25z m17 -127 c-2 -13 -4 -5 -4 17 -1 22 1
32 4 23 2 -10 2 -28 0 -40z m-1067 -147 c-6 -12 -15 -21 -20 -21 -16 0 -12 28
8 58 16 25 17 26 20 5 2 -12 -2 -31 -8 -42z m-1570 -5 c0 -19 -4 -38 -10 -41
-6 -4 -10 10 -10 34 0 23 5 41 10 41 6 0 10 -15 10 -34z m277 -93 c-2 -16 -4
-5 -4 22 0 28 2 40 4 28 2 -13 2 -35 0 -50z m-305 -31 c3 -9 1 -26 -3 -37 -6
-15 -8 -11 -8 18 -1 40 4 48 11 19z m328 -168 c0 -32 -39 -124 -53 -124 -14 0
-2 92 18 130 18 34 35 32 35 -6z m2387 -183 c4 -57 3 -81 -6 -81 -6 0 -11 13
-11 28 0 16 -7 52 -16 81 -18 62 -13 94 12 69 11 -10 18 -43 21 -97z m-2407
-26 c0 -14 -4 -25 -10 -25 -11 0 -14 33 -3 43 11 11 13 8 13 -18z m575 -25
c-34 -35 -51 -39 -34 -7 14 26 28 37 48 37 10 0 4 -11 -14 -30z m1155 -1218
c0 -5 -9 -17 -20 -27 -22 -20 -26 -14 -10 16 11 19 30 26 30 11z m940 -61 c12
-8 8 -18 -20 -60 -19 -28 -38 -51 -41 -51 -8 0 -30 100 -23 111 7 12 65 11 84
0z m-2495 -72 c19 -17 48 -59 64 -93 32 -66 96 -274 88 -282 -3 -3 -23 21 -45
53 -75 110 -193 205 -289 234 -24 7 -43 16 -43 20 0 19 70 49 114 49 43 0 52
-5 102 -51 30 -29 54 -47 54 -41 0 17 -59 81 -104 114 l-39 28 31 0 c21 0 43
-11 67 -31z m1460 -69 c-16 -16 -33 -30 -39 -30 -5 0 3 14 19 30 16 17 33 30
39 30 5 0 -3 -13 -19 -30z m-1576 -91 c59 -34 198 -168 221 -212 12 -25 12
-30 -6 -48 -24 -24 -138 -46 -286 -56 -82 -5 -98 -4 -98 8 0 23 21 39 50 39
18 0 34 10 48 30 12 16 48 42 80 57 94 46 28 40 -82 -6 -52 -23 -101 -41 -108
-41 -20 0 -38 -21 -38 -42 0 -26 -28 -34 -48 -15 -15 15 -14 19 13 47 41 42
113 88 192 120 63 25 93 50 60 50 -31 0 -135 -43 -186 -76 l-54 -36 22 31 c12
17 26 33 31 36 22 13 8 24 -22 19 l-33 -6 25 21 c36 29 60 33 60 11 0 -16 5
-17 29 -10 15 4 39 14 52 21 l24 14 -27 3 c-41 5 -54 26 -29 51 28 28 46 26
110 -10z m2493 -182 c-28 -30 -28 -37 3 -37 29 0 30 -2 10 -40 -18 -35 -31
-38 -40 -10 -18 56 -1 110 33 110 12 0 11 -5 -6 -23z m-934 -100 c-16 -49 -24
-65 -26 -49 -5 32 41 175 46 144 2 -12 -7 -55 -20 -95z m242 1 c0 -17 -3 -18
-15 -8 -8 7 -15 21 -15 32 0 17 3 18 15 8 8 -7 15 -21 15 -32z m-2822 -82
c106 -16 482 -56 1057 -111 204 -20 471 -47 595 -60 124 -14 353 -36 510 -50
157 -14 308 -30 336 -35 70 -15 90 -39 104 -125 6 -39 22 -94 35 -122 l24 -52
-20 -55 c-13 -38 -19 -82 -19 -141 l0 -85 -52 0 c-108 0 -365 22 -783 65 -236
25 -603 61 -815 80 -474 43 -621 59 -823 91 -88 13 -183 24 -213 24 l-54 0 0
295 c0 191 4 295 10 295 6 0 54 -6 108 -14z m3529 -93 c19 -67 -3 -529 -28
-574 -6 -12 -21 -19 -39 -19 -19 0 -30 -5 -30 -14 0 -21 -48 -56 -76 -56 -28
0 -28 -3 -10 131 8 57 17 143 21 192 7 89 18 111 30 57 12 -57 25 -19 25 76 0
52 4 94 9 94 12 0 21 -104 21 -259 0 -87 4 -130 10 -120 14 24 30 208 30 348
0 128 5 171 21 171 5 0 12 -12 16 -27z m-210 -135 c-2 -13 -4 -3 -4 22 0 25 2
35 4 23 2 -13 2 -33 0 -45z m3 -173 c0 -12 -24 -55 -32 -55 -12 0 -10 34 4 48
12 12 28 16 28 7z m-13 -231 c-6 -125 -18 -178 -33 -141 -7 20 3 237 12 262 4
8 11 12 16 8 7 -4 9 -49 5 -129z"/>
<path d="M2545 11929 c-22 -4 -60 -15 -85 -23 l-45 -16 63 4 62 4 -45 -34
c-25 -19 -45 -38 -45 -43 0 -15 145 -71 186 -71 49 0 82 30 91 84 6 41 10 42
41 20 26 -18 27 -13 6 27 -27 53 -117 72 -229 48z m122 -96 c3 -7 -12 -20 -31
-30 -35 -16 -37 -16 -54 1 -16 16 -16 18 3 32 23 17 77 15 82 -3z"/>
<path d="M2878 11495 c-2 -3 -29 -9 -58 -15 -56 -11 -125 -54 -114 -72 5 -7
38 -9 100 -4 56 4 95 3 99 -3 8 -14 -26 -30 -79 -37 -60 -9 -79 -29 -34 -37
55 -10 100 5 125 42 29 42 39 96 23 116 -12 14 -51 21 -62 10z"/>
<path d="M2858 11019 c-39 -53 -70 -62 -218 -68 -124 -6 -133 -7 -110 -20 16
-10 52 -14 105 -14 136 2 265 56 265 113 0 29 -16 25 -42 -11z"/>
<path d="M2620 10806 c50 -133 117 -200 161 -161 15 14 59 111 59 131 0 3 -23
-22 -51 -56 -28 -34 -56 -59 -62 -57 -7 2 -32 40 -56 85 -41 77 -72 111 -51
58z"/>
<path d="M2078 10691 c-59 -4 -110 -10 -114 -13 -10 -11 70 -17 296 -23 230
-7 287 -14 331 -45 28 -21 59 -26 59 -11 0 12 -126 68 -181 80 -64 14 -264 20
-391 12z"/>
<path d="M3900 9885 c-1 -5 -2 -30 -3 -55 -2 -42 -4 -45 -32 -48 -55 -5 -75
-12 -75 -27 0 -10 11 -15 35 -15 69 0 125 38 125 84 0 17 -49 76 -50 61z"/>
<path d="M3140 9643 c0 -11 7 -28 15 -39 14 -18 15 -17 13 15 -3 36 -28 57
-28 24z"/>
<path d="M3060 9580 c0 -20 5 -30 15 -30 10 0 15 10 15 30 0 20 -5 30 -15 30
-10 0 -15 -10 -15 -30z"/>
<path d="M2283 9544 c8 -50 42 -84 84 -84 38 0 73 29 73 61 0 20 -1 21 -22 5
-53 -38 -88 -33 -112 19 -22 45 -30 45 -23 -1z"/>
<path d="M3170 9548 c0 -27 54 -118 70 -118 15 0 13 7 -15 48 -14 20 -25 44
-25 53 0 9 -7 22 -15 29 -13 10 -15 9 -15 -12z"/>
<path d="M2343 9553 c9 -2 23 -2 30 0 6 3 -1 5 -18 5 -16 0 -22 -2 -12 -5z"/>
<path d="M3140 9260 c-21 -21 -26 -55 -10 -80 7 -11 11 -8 20 15 15 40 24 85
16 85 -3 0 -15 -9 -26 -20z"/>
<path d="M3664 9158 c71 -99 70 -96 74 -197 2 -53 -1 -123 -8 -156 -6 -33 -14
-73 -17 -90 -5 -27 -4 -28 10 -15 25 26 38 99 44 248 l6 143 -47 44 c-51 49
-92 64 -62 23z"/>
<path d="M3147 9123 c-12 -11 -8 -38 8 -59 13 -18 14 -16 15 24 0 39 -8 51
-23 35z"/>
<path d="M3910 8679 c-119 -65 -171 -99 -147 -99 21 0 152 66 227 114 85 55
31 44 -80 -15z"/>
<path d="M3226 8632 c-10 -17 22 -22 191 -32 140 -7 168 -11 198 -30 33 -20
55 -20 55 1 0 19 -65 37 -170 48 -195 20 -267 23 -274 13z"/>
<path d="M3044 8383 c-26 -63 -50 -81 -113 -88 -80 -9 -86 -12 -70 -31 22 -27
112 -14 150 22 30 28 68 96 69 122 0 26 -22 10 -36 -25z"/>
<path d="M3556 8363 c-4 -9 -2 -21 4 -27 7 -7 10 -2 10 17 0 31 -5 34 -14 10z"/>
<path d="M3552 8263 c-19 -34 -14 -73 17 -132 25 -49 57 -83 47 -49 -34 108
-46 148 -48 173 -3 29 -3 29 -16 8z"/>
<path d="M2931 8219 c-66 -11 -72 -16 -35 -25 16 -4 42 -13 57 -21 24 -12 28
-20 26 -48 -5 -50 5 -51 41 -6 18 22 48 45 66 51 46 16 50 26 15 45 -33 16
-86 18 -170 4z"/>
<path d="M3605 8020 c-10 -16 -34 -120 -34 -145 0 -35 25 23 39 88 11 57 9 80
-5 57z"/>
<path d="M4041 7919 c-46 -22 -108 -49 -139 -60 -89 -31 -99 -41 -163 -176
-91 -193 -145 -246 -281 -278 -38 -9 -184 -21 -345 -30 -437 -23 -594 -42
-498 -61 45 -8 609 29 774 52 210 28 282 89 385 324 37 86 65 113 139 140 114
41 231 109 216 124 -3 3 -43 -12 -88 -35z"/>
<path d="M2246 7700 c12 -48 109 -222 147 -266 42 -48 95 -89 103 -81 3 3 -13
22 -35 42 -46 41 -113 138 -159 230 -17 33 -38 69 -47 80 -16 20 -16 19 -9 -5z"/>
<path d="M2160 7335 c0 -16 51 -95 61 -95 12 0 -24 72 -45 89 -9 8 -16 10 -16
6z"/>
<path d="M2260 7200 c0 -16 26 -40 44 -40 13 0 5 28 -12 43 -24 22 -32 21 -32
-3z"/>
<path d="M3814 6959 c-3 -6 -1 -16 4 -21 13 -13 45 8 36 23 -7 12 -31 11 -40
-2z"/>
<path d="M3730 6726 c-174 -72 -466 -272 -606 -413 -70 -71 -111 -155 -188
-386 -113 -337 -207 -737 -207 -872 1 -141 -18 -394 -39 -542 -25 -181 -24
-217 7 -221 12 -2 25 -13 29 -25 7 -21 7 -21 14 -2 4 11 15 62 25 113 9 50 20
92 24 92 3 0 12 -23 18 -51 17 -69 65 -170 70 -146 3 9 -5 45 -17 80 -31 88
-34 182 -16 417 20 246 30 291 112 483 35 81 64 153 64 159 0 19 -48 -55 -55
-85 -4 -14 -15 -33 -26 -43 -18 -17 -19 -16 -19 29 0 26 -4 47 -10 47 -6 0
-10 -31 -10 -73 0 -74 -16 -138 -56 -221 l-19 -39 -5 74 c-6 85 2 172 30 349
26 155 50 238 105 360 56 124 62 145 41 137 -20 -8 -16 15 20 112 68 181 208
326 479 496 173 108 325 171 240 99 -29 -24 -29 -25 -5 -18 38 10 115 51 129
68 40 48 -37 61 -129 22z m-918 -1888 c-9 -20 -11 -18 -11 22 0 40 2 42 11 23
8 -17 8 -29 0 -45z"/>
<path d="M3630 6384 c-30 -8 -75 -27 -100 -41 -48 -29 -258 -228 -249 -237 3
-3 56 39 118 94 62 55 136 110 165 124 39 18 227 56 280 56 3 0 6 5 6 10 0 15
-157 11 -220 -6z"/>
<path d="M3555 6194 c-86 -21 -173 -54 -187 -72 -11 -13 -9 -14 17 -9 51 10
269 78 280 88 13 13 -40 10 -110 -7z"/>
<path d="M3135 6172 c-50 -67 -125 -187 -125 -199 0 -29 20 -9 68 65 58 91 96
162 85 162 -5 0 -17 -13 -28 -28z"/>
<path d="M3161 6064 c-82 -92 -215 -364 -195 -396 3 -5 43 67 89 159 46 92 97
192 114 221 17 28 30 52 27 52 -2 0 -18 -16 -35 -36z"/>
<path d="M3765 5939 c3 -4 28 -21 55 -36 82 -46 63 -50 -49 -9 -51 19 -152 21
-219 5 -72 -17 -198 -79 -290 -142 -108 -74 -119 -75 -68 -5 11 15 17 31 13
34 -10 10 -60 -47 -169 -193 -54 -73 -103 -135 -108 -138 -13 -8 -13 -42 -1
-49 20 -13 42 9 76 78 46 94 112 168 178 200 28 14 90 48 136 75 103 61 262
114 340 114 75 0 241 -52 362 -114 115 -59 194 -128 280 -244 64 -86 86 -106
69 -60 -25 66 -143 220 -210 274 -42 34 -48 51 -10 31 11 -6 31 -10 43 -8 17
3 9 10 -38 34 -139 72 -403 175 -390 153z"/>
<path d="M3449 5776 c-103 -39 -268 -147 -344 -227 -49 -51 -49 -52 -14 -32
20 11 75 50 123 87 47 36 92 66 99 67 7 1 26 0 42 -1 17 0 51 8 75 19 l45 21
-55 -5 -55 -6 40 23 c22 12 60 24 85 27 31 4 45 11 45 21 0 20 -41 23 -86 6z"/>
<path d="M2943 5590 c-20 -59 -25 -100 -14 -100 19 0 32 40 29 88 l-3 47 -12
-35z"/>
<path d="M2890 4151 c0 -11 5 -23 10 -26 6 -4 10 5 10 19 0 14 -4 26 -10 26
-5 0 -10 -9 -10 -19z"/>
<path d="M3855 7400 c-22 -11 -78 -54 -124 -95 -46 -41 -92 -75 -102 -75 -37
0 -215 -156 -294 -257 -92 -120 -205 -283 -234 -341 -42 -83 -14 -66 57 35 39
55 114 147 165 204 119 131 322 329 337 329 6 0 39 26 73 58 97 90 146 132
157 132 20 0 9 -23 -29 -61 -47 -48 -39 -50 25 -6 59 40 73 60 55 81 -18 21
-38 20 -86 -4z m-430 -380 c-27 -27 -51 -47 -54 -45 -3 3 17 28 44 55 27 27
51 47 54 45 3 -3 -17 -28 -44 -55z"/>
<path d="M1865 6381 c-294 -50 -339 -66 -295 -106 18 -16 22 -17 38 -3 32 29
58 37 257 78 183 38 291 69 240 68 -11 0 -119 -17 -240 -37z"/>
<path d="M1560 6701 c-42 -12 1 -21 98 -21 90 0 134 12 90 23 -30 9 -156 7
-188 -2z"/>
<path d="M2640 6347 c-31 -68 -37 -92 -21 -83 12 8 63 137 57 144 -3 3 -19
-25 -36 -61z"/>
<path d="M3630 5183 c0 -4 76 -82 169 -173 168 -165 233 -246 246 -307 4 -18
11 -33 15 -33 13 0 23 64 15 92 -18 55 -444 459 -445 421z"/>
<path d="M4465 2889 c15 -317 226 -1500 285 -1597 40 -65 100 -49 100 27 l0
36 -25 -30 -25 -30 -20 23 c-25 30 -31 53 -85 317 -83 411 -137 727 -190 1123
-31 231 -48 285 -40 131z"/>
<path d="M4400 2335 c0 -154 48 -554 76 -639 13 -40 13 -38 10 49 -3 50 -11
126 -19 170 -8 44 -23 168 -32 275 -18 199 -35 271 -35 145z"/>
<path d="M4278 923 c-39 -15 -50 -33 -23 -33 17 0 95 37 95 45 0 10 -35 4 -72
-12z"/>
<path d="M4132 878 c-17 -17 -15 -28 7 -28 19 0 35 23 24 34 -9 9 -18 7 -31
-6z"/>
<path d="M4367 467 c-37 -49 -57 -98 -57 -143 0 -36 1 -36 19 -20 17 16 19 15
34 -6 l15 -23 11 29 c7 16 10 67 9 114 l-3 86 -28 -37z"/>
<path d="M4483 425 c0 -27 2 -38 4 -22 2 15 2 37 0 50 -2 12 -4 0 -4 -28z"/>
<path d="M3320 4170 c31 -44 80 -75 80 -51 0 17 -67 81 -84 81 -15 0 -15 -3 4
-30z"/>
<path d="M4058 3825 c-3 -6 -29 -89 -58 -185 -62 -210 -107 -330 -162 -430
-53 -96 -169 -269 -198 -295 l-23 -20 8 25 c12 39 51 113 141 271 46 80 84
152 84 160 -1 40 -117 -145 -260 -414 -41 -76 -113 -196 -161 -265 -48 -70
-147 -215 -220 -322 -72 -107 -155 -222 -183 -254 -63 -73 -188 -174 -270
-217 -130 -68 -157 -107 -66 -96 67 8 172 53 238 102 142 104 380 359 492 527
62 92 79 140 60 163 -21 26 -40 6 -38 -40 2 -31 -3 -50 -16 -64 -21 -23 -65
-28 -84 -9 -19 19 -14 28 13 28 16 0 28 7 31 18 13 39 40 85 58 97 16 12 22
12 40 0 11 -8 24 -15 28 -15 5 0 25 23 45 51 l37 52 18 -53 c9 -29 31 -117 48
-196 31 -145 51 -207 70 -219 11 -7 8 15 -10 80 -5 17 -16 68 -25 115 -9 47
-32 151 -52 231 l-35 145 120 180 c139 207 199 322 252 483 56 171 108 415 78
366z m-543 -1155 c-12 -13 -22 -17 -28 -11 -13 13 1 31 25 31 21 0 21 -1 3
-20z m-167 -256 c12 -4 22 -11 22 -17 0 -22 -45 -76 -77 -91 -21 -10 -33 -23
-33 -36 0 -11 -7 -23 -15 -26 -8 -4 -15 -14 -15 -23 0 -21 -195 -213 -304
-299 -76 -61 -153 -108 -162 -99 -3 2 38 36 91 76 122 92 230 193 261 247 14
23 33 44 44 47 11 3 20 13 20 24 0 10 8 23 19 30 10 7 21 29 25 53 7 47 26 59
61 36 32 -21 40 -5 14 28 -34 44 -13 66 49 50z"/>
<path d="M3351 3416 c-24 -119 -41 -220 -37 -223 17 -17 57 143 77 309 19 168
5 137 -40 -86z"/>
<path d="M3466 3257 c-15 -24 -26 -59 -26 -78 l1 -34 14 25 c20 35 48 120 42
126 -3 3 -17 -14 -31 -39z"/>
<path d="M3489 2924 c-11 -14 -10 -15 11 -12 13 1 25 9 28 16 5 17 -23 15 -39
-4z"/>
<path d="M3479 2853 c-22 -25 -39 -58 -39 -78 0 -24 18 -8 41 36 23 46 22 70
-2 42z"/>
<path d="M2795 2566 c18 -28 18 -29 1 -42 -11 -7 -23 -15 -28 -16 -5 -2 -11
-19 -13 -37 -3 -19 -14 -44 -25 -56 -22 -24 -26 -65 -8 -83 19 -19 26 -14 20
13 -3 18 5 35 28 62 42 47 71 112 60 133 -4 8 -18 24 -31 35 l-22 20 18 -29z"/>
<path d="M3358 1720 c-342 -85 -329 -80 -232 -75 117 7 512 108 529 135 10 16
-4 13 -297 -60z"/>
<path d="M3869 1633 c-120 -141 -190 -213 -219 -228 -41 -21 -174 -37 -287
-33 -73 2 -107 -1 -110 -8 -12 -34 181 -46 295 -19 129 31 206 89 330 252 76
101 97 133 85 133 -6 0 -48 -44 -94 -97z"/>
<path d="M2940 1637 c0 -21 12 -28 27 -16 19 16 16 29 -7 29 -11 0 -20 -6 -20
-13z"/>
<path d="M2705 1588 c-10 -24 26 -136 92 -287 30 -69 64 -151 74 -181 12 -34
36 -71 62 -98 48 -49 136 -117 143 -110 2 3 -38 58 -90 123 -79 98 -103 135
-140 224 -53 126 -92 248 -83 257 3 3 43 -21 89 -54 142 -102 251 -169 374
-231 217 -109 325 -132 438 -92 63 22 174 92 231 146 61 58 25 54 -47 -5 -35
-28 -94 -66 -132 -85 -60 -31 -78 -35 -143 -35 -137 0 -325 81 -613 265 -85
54 -171 105 -191 113 -22 8 -40 24 -46 40 -9 23 -11 24 -18 10z m250 -566 c-7
-7 -34 18 -47 42 -8 16 -3 14 21 -8 17 -16 29 -32 26 -34z"/>
<path d="M2949 1243 c17 -33 186 -190 270 -252 158 -116 203 -124 59 -10 -51
41 -144 120 -207 176 -111 100 -142 122 -122 86z"/>
<path d="M2743 1223 c11 -53 27 -85 47 -90 15 -4 20 -14 20 -40 0 -38 25 -93
42 -93 32 0 -21 177 -70 233 -24 27 -45 22 -39 -10z"/>
<path d="M4821 383 c-6 -21 -10 -72 -10 -113 1 -63 2 -69 9 -40 12 47 24 190
17 190 -3 0 -11 -17 -16 -37z"/>
</g>
</svg>
